<svg width="634" height="46" viewBox="0 0 634 46" fill="none" xmlns="http://www.w3.org/2000/svg">
<path d="M44.3461 23.5L44.1961 23.6C44.3294 24.0667 44.1794 24.3667 43.7461 24.5C41.4794 25.3 39.4461 26.0667 37.6461 26.8C33.6461 28.4334 31.4128 29.35 30.9461 29.55C30.5461 29.7167 29.9961 29.9334 29.2961 30.2C28.6294 30.4667 28.0128 30.7167 27.4461 30.95C26.9128 31.15 26.4128 31.35 25.9461 31.55C25.1128 31.8834 23.6628 32.45 21.5961 33.25C20.2628 33.7834 19.0961 34.1834 18.0961 34.45C17.0294 34.75 16.2128 34.9 15.6461 34.9C14.8461 34.9 14.2461 34.65 13.8461 34.15C13.3461 33.5167 13.1461 32.6667 13.2461 31.6C13.3461 30.6667 13.5294 29.5334 13.7961 28.2C13.9961 27.1334 14.1461 26.35 14.2461 25.85C14.4128 25.0834 14.4128 24.4834 14.2461 24.05C14.0794 23.4834 13.7628 22.9667 13.2961 22.5C12.6961 21.9 12.2794 21.5 12.0461 21.3C11.6128 21.4334 11.1961 21.55 10.7961 21.65C10.5961 21.6834 10.4461 21.7334 10.3461 21.8C10.0794 22.1334 9.62942 22.7167 8.99609 23.55C8.36275 24.3834 7.87942 25.0167 7.54609 25.45C6.64609 26.65 5.79609 27.8 4.99609 28.9C4.69609 29.3 4.29609 29.85 3.79609 30.55C3.32942 31.2167 3.01275 31.6667 2.84609 31.9C2.14609 32.8334 1.64609 33.6 1.34609 34.2C1.31275 34.3334 1.17942 34.4334 0.946086 34.5C0.746086 34.5334 0.579419 34.4834 0.446086 34.35C0.046086 34.0834 -0.0372473 33.7667 0.196086 33.4C0.596086 32.7 1.06275 32 1.59609 31.3C2.19609 30.5 2.84609 29.6 3.54609 28.6C4.07942 27.8334 4.86275 26.7834 5.89609 25.45C6.46275 24.7167 7.31275 23.5834 8.44609 22.05H8.04609C7.71275 22.0167 7.41275 21.8334 7.14609 21.5C6.87942 21.2 6.92942 20.8667 7.29609 20.5C7.82942 19.8667 8.41275 19.4667 9.04609 19.3C9.64609 19.1334 10.1794 19.0834 10.6461 19.15C12.4794 16.7834 13.5961 15.3334 13.9961 14.8C14.1628 14.6 14.6128 14.0334 15.3461 13.1C16.0794 12.1667 16.6128 11.4834 16.9461 11.05C17.7794 9.95004 18.4794 9.05004 19.0461 8.35004C19.5461 7.71671 19.8794 7.31671 20.0461 7.15004C20.3461 6.78338 20.6794 6.75004 21.0461 7.05004C21.2128 7.15004 21.2961 7.30004 21.2961 7.50004C21.2961 7.70004 21.2294 7.86671 21.0961 8.00004L20.9961 8.10004C20.9294 8.20004 20.8294 8.35004 20.6961 8.55005C20.5628 8.71671 20.4294 8.88338 20.2961 9.05004C19.4628 10.1167 18.7961 10.9667 18.2961 11.6C17.5628 12.5 16.5961 13.7167 15.3961 15.25C14.9961 15.7834 13.8794 17.2334 12.0461 19.6C12.2128 19.6667 12.3128 19.7167 12.3461 19.75C13.6128 19.3167 14.9461 18.7667 16.3461 18.1C17.9128 17.3334 19.3961 16.4667 20.7961 15.5C22.2294 14.5 23.6961 13.3 25.1961 11.9C26.6628 10.5667 27.9628 9.01671 29.0961 7.25004C29.1961 7.08338 29.3461 6.98338 29.5461 6.95004C29.7461 6.91671 29.9294 6.95004 30.0961 7.05004C30.2294 7.15004 30.3294 7.30004 30.3961 7.50004C30.4294 7.66671 30.3961 7.83338 30.2961 8.00004C29.0961 9.80004 27.8294 11.3334 26.4961 12.6C25.0294 14 23.6128 15.2 22.2461 16.2C20.8128 17.2667 19.3628 18.1667 17.8961 18.9C16.4294 19.6334 15.0794 20.2334 13.8461 20.7L13.7461 20.75C14.1128 21.05 14.5128 21.4834 14.9461 22.05C15.3794 22.5834 15.6628 23.1167 15.7961 23.65C15.9294 24.25 15.9294 24.9667 15.7961 25.8C15.5628 27.1334 15.3961 28.0334 15.2961 28.5L14.9961 29.85C14.9294 30.15 14.8628 30.6 14.7961 31.2C14.7628 31.5 14.7461 31.9 14.7461 32.4C14.7461 32.7334 14.8294 32.9834 14.9961 33.15C15.0628 33.3167 15.2961 33.4 15.6961 33.4C16.2294 33.4 17.0294 33.25 18.0961 32.95C19.1961 32.6167 20.3794 32.2167 21.6461 31.75C21.9128 31.65 22.5461 31.4167 23.5461 31.05C24.5461 30.65 25.3461 30.3334 25.9461 30.1C26.9794 29.7 28.5294 29.0667 30.5961 28.2C33.5961 26.9334 35.8294 26 37.2961 25.4C39.7294 24.4 41.7794 23.6167 43.4461 23.05C43.8794 22.8834 44.1794 23.0334 44.3461 23.5Z" fill="#D2C7B7"/>
<path d="M74.2914 23.55L74.1914 23.45C74.2247 23.4834 74.2414 23.5834 74.2414 23.75C74.1747 24.0167 74.0247 24.2 73.7914 24.3C73.6914 24.3 73.3414 24.4167 72.7414 24.65C72.0747 24.8834 71.2247 25.1834 70.1914 25.55C69.3581 25.85 68.2581 26.25 66.8914 26.75C65.8247 27.15 64.4247 27.6167 62.6914 28.15C61.4247 28.55 60.0247 28.9167 58.4914 29.25C57.1247 29.55 55.9747 29.7 55.0414 29.7C54.5081 29.7 54.0414 29.6167 53.6414 29.45C53.1081 29.1834 52.8247 28.7834 52.7914 28.25C52.7581 27.85 52.8581 27.3834 53.0914 26.85C53.3581 26.25 53.6747 25.7 54.0414 25.2L54.9414 24.1C55.1081 23.9 55.3914 23.6 55.7914 23.2L56.5414 22.45C54.5747 22.95 52.4581 23.5834 50.1914 24.35C48.2914 24.9834 46.2247 25.6 43.9914 26.2C43.7581 26.3 43.4914 26.35 43.1914 26.35C42.8914 26.35 42.6247 26.3 42.3914 26.2C42.1581 26.1 41.9581 25.95 41.7914 25.75C41.6581 25.55 41.6414 25.3 41.7414 25C42.1414 24.1334 42.7247 23.3834 43.4914 22.75L45.7414 20.95C46.6081 20.35 47.2747 19.9 47.7414 19.6C48.4081 19.1667 49.1247 18.8 49.8914 18.5C50.6581 18.2 51.4247 18 52.1914 17.9C52.9914 17.8 53.7914 17.85 54.5914 18.05C55.2247 18.1834 55.7747 18.5167 56.2414 19.05C56.7081 19.55 56.9081 20.15 56.8414 20.85H57.5414C57.7081 20.85 57.8581 20.8667 57.9914 20.9C58.2581 20.9667 58.4414 21.0167 58.5414 21.05C58.6747 21.0834 58.8081 21.1667 58.9414 21.3C59.0414 21.4 59.0581 21.5334 58.9914 21.7C58.4914 22.3667 58.1747 22.7667 58.0414 22.9C57.6414 23.3667 57.3747 23.6667 57.2414 23.8C57.0747 23.9667 56.8581 24.2167 56.5914 24.55C56.4581 24.7167 56.2247 24.9667 55.8914 25.3C55.3581 26 54.9581 26.5667 54.6914 27C54.3914 27.4667 54.2747 27.85 54.3414 28.15C54.3414 28.1834 54.3747 28.2334 54.4414 28.3C54.8081 28.5 55.5914 28.5 56.7914 28.3C57.8581 28.1334 59.2581 27.8 60.9914 27.3C62.4247 26.9 64.1081 26.3667 66.0414 25.7C67.3414 25.2667 68.9414 24.6834 70.8414 23.95C71.1747 23.9167 71.4914 23.8167 71.7914 23.65L72.5914 23.35L73.3414 23.05C73.5081 22.9834 73.6914 23 73.8914 23.1C74.1247 23.2 74.2581 23.35 74.2914 23.55ZM55.3414 21.3L55.1414 21.25C55.3414 20.65 55.3081 20.2 55.0414 19.9C54.7747 19.6 54.4247 19.4 53.9914 19.3C53.4914 19.2 52.9914 19.1667 52.4914 19.2C51.9247 19.2667 51.4747 19.3667 51.1414 19.5C49.6414 20.0334 48.2414 20.7834 46.9414 21.75C45.6414 22.7167 44.4414 23.7667 43.3414 24.9C45.2747 24.4667 47.2747 23.8834 49.3414 23.15C51.1081 22.5167 53.1081 21.9 55.3414 21.3Z" fill="#D2C7B7"/>
<path d="M86.723 31L86.273 31.05C85.7397 31.05 85.2897 31 84.923 30.9C84.623 30.8 84.3564 30.7 84.123 30.6C83.8897 30.5 83.7397 30.3834 83.673 30.25C83.6064 30.15 83.5397 30.0334 83.473 29.9C83.1064 29 83.4064 27.9667 84.373 26.8C85.3064 25.6667 86.6064 24.3167 88.273 22.75L89.023 22C89.3564 21.6667 89.6064 21.4334 89.773 21.3C89.6397 21.3334 89.3897 21.4167 89.023 21.55C88.6897 21.65 88.423 21.7334 88.223 21.8C87.423 22.0667 86.8064 22.2834 86.373 22.45C85.5064 22.7834 84.8397 23.0334 84.373 23.2C83.673 23.4667 83.023 23.7167 82.423 23.95C81.823 24.15 80.9397 24.4667 79.773 24.9C78.6397 25.3 77.8397 25.5834 77.373 25.75C76.3064 26.15 75.3064 26.4667 74.373 26.7C73.6397 26.9 73.123 27 72.823 27C72.5564 27 72.3397 26.9167 72.173 26.75C71.7064 26.25 71.6064 25.6667 71.873 25C72.1397 24.3667 72.523 23.7834 73.023 23.25C73.3897 22.95 73.723 22.95 74.023 23.25C74.1897 23.4167 74.273 23.5834 74.273 23.75C74.273 23.9167 74.1897 24.0834 74.023 24.25C73.4897 24.8167 73.2064 25.2667 73.173 25.6C73.4064 25.5667 73.8897 25.4334 74.623 25.2C75.3564 24.9667 76.0897 24.7167 76.823 24.45C76.9564 24.4167 77.323 24.2834 77.923 24.05C78.523 23.8167 79.0064 23.6334 79.373 23.5C79.7397 23.3667 80.223 23.1834 80.823 22.95C81.423 22.7167 81.7897 22.5834 81.923 22.55C82.6897 22.25 84.3897 21.6334 87.023 20.7C88.2564 20.2334 89.2064 19.9334 89.873 19.8C90.5397 19.6667 90.9897 19.6167 91.223 19.65C91.4564 19.6834 91.6564 19.7834 91.823 19.95C92.1897 20.3834 92.1397 20.8834 91.673 21.45C91.2064 22.0167 90.4564 22.8167 89.423 23.85C89.1564 24.0834 88.6897 24.5334 88.023 25.2C87.4564 25.7334 86.9564 26.2834 86.523 26.85C85.9897 27.5167 85.6064 28.0167 85.373 28.35C85.073 28.7834 84.973 29.1334 85.073 29.4C85.3064 29.7 86.223 29.75 87.823 29.55C89.2564 29.3834 91.2564 29 93.823 28.4C95.9897 27.9 98.6897 27.1667 101.923 26.2C104.623 25.4 107.64 24.3667 110.973 23.1C111.406 22.9667 111.706 23.1 111.873 23.5C111.94 23.7334 111.923 23.9334 111.823 24.1C111.723 24.3 111.606 24.4167 111.473 24.45C110.173 24.95 108.823 25.45 107.423 25.95C106.49 26.2834 105.056 26.75 103.123 27.35C102.556 27.5167 101.123 27.9334 98.823 28.6C97.523 28.9667 96.1897 29.3167 94.823 29.65C92.7564 30.15 91.0897 30.5 89.823 30.7C88.523 30.9 87.4897 31 86.723 31Z" fill="#D2C7B7"/>
<path d="M139.218 23.5L139.018 23.65C139.085 23.8167 139.068 23.9834 138.968 24.15C138.868 24.35 138.752 24.4667 138.618 24.5C138.585 24.5 138.035 24.7 136.968 25.1C136.135 25.4334 134.752 25.9334 132.818 26.6C130.452 27.4334 127.618 28.2334 124.318 29C121.085 29.7334 117.535 30.2834 113.668 30.65C113.335 31.1167 112.968 31.5334 112.568 31.9C112.302 32.1667 111.868 32.5334 111.268 33C110.902 33.2667 110.568 33.45 110.268 33.55C109.968 33.65 109.685 33.7 109.418 33.7C108.918 33.7 108.435 33.5167 107.968 33.15C107.502 32.7834 107.368 32.3 107.568 31.7C107.635 31.4334 107.752 31.2 107.918 31C108.118 30.7334 108.418 30.4834 108.818 30.25C109.185 30.0167 109.735 29.8 110.468 29.6C111.235 29.3667 112.118 29.2334 113.118 29.2C113.718 28.3 114.018 27.5334 114.018 26.9C114.018 26.6667 114.002 26.5334 113.968 26.5L113.818 26.35C113.552 26.1834 113.152 26.2 112.618 26.4C111.985 26.6334 111.352 26.95 110.718 27.35C109.852 27.9167 109.102 28.4334 108.468 28.9C107.935 29.3 107.168 29.9334 106.168 30.8C106.035 30.9334 105.868 31 105.668 31C105.468 31 105.302 30.9334 105.168 30.8C105.002 30.6334 104.918 30.4667 104.918 30.3C104.918 30.1 104.985 29.9334 105.118 29.8L113.018 20.75C113.318 20.4167 113.652 20.4 114.018 20.7C114.352 21 114.368 21.3334 114.068 21.7L110.668 25.6C111.402 25.2667 112.135 25.0167 112.868 24.85C113.568 24.6834 114.152 24.7834 114.618 25.15C114.852 25.3167 115.035 25.5167 115.168 25.75C115.302 25.9834 115.402 26.3334 115.468 26.8C115.468 27.4334 115.252 28.1667 114.818 29C116.652 28.8 118.435 28.55 120.168 28.25C121.602 28.0167 123.252 27.6834 125.118 27.25C126.685 26.8834 128.085 26.5334 129.318 26.2C130.352 25.9 131.402 25.5667 132.468 25.2L133.118 24.95C133.252 24.9167 133.485 24.8334 133.818 24.7C134.185 24.5667 134.468 24.4667 134.668 24.4C135.068 24.2667 135.702 24.0334 136.568 23.7C136.768 23.6334 137.068 23.5334 137.468 23.4C137.868 23.2334 138.152 23.1167 138.318 23.05C138.752 22.8834 139.052 23.0334 139.218 23.5ZM111.618 30.9H111.518C110.485 31.0334 109.768 31.2334 109.368 31.5C109.002 31.7334 108.785 31.9334 108.718 32.1C108.718 32.2334 108.785 32.3 108.918 32.3C109.118 32.3 109.285 32.2834 109.418 32.25L110.018 32.1C110.252 32.0334 110.385 31.9834 110.418 31.95L111.618 30.9Z" fill="#D2C7B7"/>
<path d="M168.414 23.65L168.364 23.85C168.531 24.2834 168.381 24.5834 167.914 24.75C167.648 24.7834 167.348 24.8834 167.014 25.05C166.914 25.0834 166.748 25.15 166.514 25.25C166.314 25.3167 166.164 25.3667 166.064 25.4C165.531 25.6 165.114 25.75 164.814 25.85C162.881 26.4834 160.931 27.0834 158.964 27.65C156.664 28.2834 154.798 28.7667 153.364 29.1C151.231 29.5667 149.564 29.9 148.364 30.1C146.931 30.3334 145.581 30.45 144.314 30.45C143.214 30.45 142.481 30.3167 142.114 30.05C141.781 29.75 141.631 29.45 141.664 29.15C141.698 28.5834 141.948 28.0834 142.414 27.65C142.881 27.2167 143.381 26.7667 143.914 26.3C144.214 26.0334 144.564 25.7334 144.964 25.4C145.364 25.0667 145.564 24.8167 145.564 24.65C145.431 24.5167 145.164 24.45 144.764 24.45C144.331 24.45 143.864 24.5167 143.364 24.65C142.764 24.8167 142.181 25.0167 141.614 25.25C140.814 25.5834 140.231 25.8334 139.864 26L139.764 26.1C139.131 26.5 138.531 26.9 137.964 27.3C137.398 27.7 136.898 28.05 136.464 28.35C135.664 28.8834 135.164 29.2167 134.964 29.35C134.598 29.55 134.348 29.65 134.214 29.65C134.014 29.65 133.848 29.55 133.714 29.35C133.481 29.1167 133.414 28.8667 133.514 28.6C133.614 28.3334 133.714 28.1334 133.814 28C134.081 27.7 134.481 27.25 135.014 26.65C135.548 26.05 136.148 25.4 136.814 24.7C137.481 24 138.181 23.3 138.914 22.6C139.648 21.9 140.348 21.25 141.014 20.65C141.781 19.95 142.348 19.45 142.714 19.15C143.181 18.7834 143.498 18.5667 143.664 18.5C143.831 18.4334 143.981 18.45 144.114 18.55C144.248 18.65 144.348 18.8 144.414 19C144.548 19.3334 144.448 19.5834 144.114 19.75C144.014 19.7834 143.764 19.9834 143.364 20.35C143.231 20.4834 142.998 20.7 142.664 21C142.364 21.2667 142.131 21.4834 141.964 21.65C141.231 22.3167 140.631 22.8834 140.164 23.35L138.214 25.3C139.114 24.7 140.114 24.1 141.214 23.5C142.681 22.7 143.798 22.1167 144.564 21.75C145.731 21.1834 146.881 20.7334 148.014 20.4C149.148 20.0667 150.248 19.8667 151.314 19.8C151.514 19.8 151.698 19.85 151.864 19.95C152.031 20.05 152.114 20.2 152.114 20.4C152.148 20.6 152.098 20.7667 151.964 20.9C151.831 21.0334 151.664 21.1 151.464 21.1C150.564 21.1334 149.581 21.3167 148.514 21.65C147.581 21.9167 146.548 22.3 145.414 22.8C145.981 22.8334 146.448 23.0334 146.814 23.4C147.081 23.6667 147.214 24.0167 147.214 24.45C147.181 24.9167 146.931 25.3834 146.464 25.85C146.031 26.2834 145.531 26.7334 144.964 27.2C144.564 27.5334 144.248 27.8 144.014 28C143.681 28.2667 143.431 28.55 143.264 28.85C143.731 28.95 144.614 28.95 145.914 28.85C147.048 28.75 148.564 28.5167 150.464 28.15C152.598 27.7167 154.498 27.3 156.164 26.9C158.398 26.3667 160.398 25.8 162.164 25.2C162.631 25.0334 163.298 24.7834 164.164 24.45C165.164 24.0834 165.748 23.8667 165.914 23.8C166.448 23.5667 166.981 23.3667 167.514 23.2C167.981 23.0667 168.281 23.2167 168.414 23.65Z" fill="#D2C7B7"/>
<path d="M153.264 45.15L152.764 45.45C152.164 45.3834 151.647 45.2167 151.214 44.95C150.747 44.65 150.397 44.2834 150.164 43.85C149.897 43.35 149.714 42.8667 149.614 42.4C149.514 41.9 149.514 41.4 149.614 40.9C149.914 39.7334 150.63 38.6334 151.764 37.6C152.93 36.5334 154.23 35.5834 155.664 34.75C157.23 33.8167 158.697 33.0834 160.064 32.55C161.564 31.95 162.814 31.5 163.814 31.2C165.447 30.7 166.93 30.35 168.264 30.15C169.13 30.0167 170.464 29.85 172.264 29.65L175.564 26.35C176.33 25.5834 177.28 24.6 178.414 23.4C177.147 23.8667 175.614 24.3834 173.814 24.95C172.547 25.35 171.497 25.65 170.664 25.85C169.93 26.0167 169.264 26.1334 168.664 26.2C168.164 26.2667 167.78 26.2667 167.514 26.2C167.247 26.1334 167.064 26.05 166.964 25.95L166.714 25.7C166.614 25.5667 166.564 25.3334 166.564 25C166.564 24.7 166.68 24.3334 166.914 23.9C167.147 23.5 167.547 22.9834 168.114 22.35C168.68 21.75 169.514 21.0667 170.614 20.3C170.78 20.1334 170.964 20.0834 171.164 20.15C171.364 20.1834 171.514 20.2834 171.614 20.45C171.88 20.8167 171.83 21.15 171.464 21.45C170.997 21.75 170.58 22.0667 170.214 22.4C169.68 22.8667 169.33 23.1834 169.164 23.35C168.93 23.5834 168.68 23.8667 168.414 24.2C168.247 24.4 168.13 24.6 168.064 24.8C168.364 24.8334 168.997 24.75 169.964 24.55C170.63 24.4167 171.68 24.1334 173.114 23.7C174.447 23.3 175.73 22.9 176.964 22.5C178.097 22.1 179.43 21.6167 180.964 21.05C181.297 20.9167 181.547 21 181.714 21.3C181.88 21.6334 181.864 21.9167 181.664 22.15L181.114 22.7C180.98 22.8334 180.747 23.0834 180.414 23.45C180.08 23.8167 179.83 24.0834 179.664 24.25C179.464 24.4834 179.114 24.8667 178.614 25.4C178.114 25.9 177.73 26.2834 177.464 26.55C176.33 27.75 175.414 28.7 174.714 29.4C176.114 29.2667 177.114 29.15 177.714 29.05C178.114 28.9834 178.747 28.8834 179.614 28.75C180.514 28.6167 181.064 28.5334 181.264 28.5C182.397 28.3334 183.83 28.05 185.564 27.65C187.13 27.2834 188.88 26.8334 190.814 26.3C193.68 25.5667 195.93 24.8667 197.564 24.2C199.197 23.5667 200.014 23.2167 200.014 23.15C200.247 23.0834 200.447 23.1 200.614 23.2C200.847 23.3 200.98 23.4167 201.014 23.55C201.18 24.0167 201.064 24.3167 200.664 24.45C200.63 24.4834 199.78 24.8334 198.114 25.5C196.447 26.1667 194.197 26.8667 191.364 27.6C189.13 28.2667 187.13 28.7667 185.364 29.1C183.364 29.5 181.78 29.7834 180.614 29.95C179.214 30.15 177.914 30.3 176.714 30.4C175.214 30.5334 174.047 30.65 173.214 30.75L171.814 32.05L170.464 33.4C162.23 41.1334 156.53 45.05 153.364 45.15H153.264ZM170.214 31.5C169.28 31.6 168.297 31.7667 167.264 32C165.864 32.3334 164.547 32.7 163.314 33.1C162.114 33.5 160.747 34.0334 159.214 34.7C157.88 35.3 156.63 35.95 155.464 36.65C154.364 37.3167 153.397 38.0667 152.564 38.9C151.764 39.7 151.264 40.5167 151.064 41.35C150.93 41.95 151.047 42.55 151.414 43.15C151.747 43.75 152.23 44.05 152.864 44.05C153.73 44.0167 154.83 43.6167 156.164 42.85C157.597 42.05 159.047 41.0834 160.514 39.95C162.214 38.65 163.847 37.3 165.414 35.9C167.014 34.5 168.614 33.0334 170.214 31.5Z" fill="#D2C7B7"/>
<path d="M213.579 31L213.129 31.05C212.595 31.05 212.145 31 211.779 30.9C211.479 30.8 211.212 30.7 210.979 30.6C210.745 30.5 210.595 30.3834 210.529 30.25C210.462 30.15 210.395 30.0334 210.329 29.9C209.962 29 210.262 27.9667 211.229 26.8C212.162 25.6667 213.462 24.3167 215.129 22.75L215.879 22C216.212 21.6667 216.462 21.4334 216.629 21.3C216.495 21.3334 216.245 21.4167 215.879 21.55C215.545 21.65 215.279 21.7334 215.079 21.8C214.279 22.0667 213.662 22.2834 213.229 22.45C212.362 22.7834 211.695 23.0334 211.229 23.2C210.529 23.4667 209.879 23.7167 209.279 23.95C208.678 24.15 207.795 24.4667 206.629 24.9C205.495 25.3 204.695 25.5834 204.229 25.75C203.162 26.15 202.162 26.4667 201.229 26.7C200.495 26.9 199.979 27 199.679 27C199.412 27 199.195 26.9167 199.029 26.75C198.562 26.25 198.462 25.6667 198.729 25C198.995 24.3667 199.379 23.7834 199.879 23.25C200.245 22.95 200.579 22.95 200.879 23.25C201.045 23.4167 201.129 23.5834 201.129 23.75C201.129 23.9167 201.045 24.0834 200.879 24.25C200.345 24.8167 200.062 25.2667 200.029 25.6C200.262 25.5667 200.745 25.4334 201.479 25.2C202.212 24.9667 202.945 24.7167 203.679 24.45C203.812 24.4167 204.178 24.2834 204.779 24.05C205.379 23.8167 205.862 23.6334 206.229 23.5C206.595 23.3667 207.079 23.1834 207.679 22.95C208.279 22.7167 208.645 22.5834 208.779 22.55C209.545 22.25 211.245 21.6334 213.879 20.7C215.112 20.2334 216.062 19.9334 216.729 19.8C217.395 19.6667 217.845 19.6167 218.079 19.65C218.312 19.6834 218.512 19.7834 218.679 19.95C219.045 20.3834 218.995 20.8834 218.529 21.45C218.062 22.0167 217.312 22.8167 216.279 23.85C216.012 24.0834 215.545 24.5334 214.879 25.2C214.312 25.7334 213.812 26.2834 213.379 26.85C212.845 27.5167 212.462 28.0167 212.229 28.35C211.929 28.7834 211.829 29.1334 211.929 29.4C212.162 29.7 213.079 29.75 214.679 29.55C216.112 29.3834 218.112 29 220.679 28.4C222.845 27.9 225.545 27.1667 228.779 26.2C231.479 25.4 234.495 24.3667 237.829 23.1C238.262 22.9667 238.562 23.1 238.729 23.5C238.795 23.7334 238.779 23.9334 238.679 24.1C238.579 24.3 238.462 24.4167 238.329 24.45C237.029 24.95 235.678 25.45 234.279 25.95C233.345 26.2834 231.912 26.75 229.979 27.35C229.412 27.5167 227.979 27.9334 225.679 28.6C224.379 28.9667 223.045 29.3167 221.679 29.65C219.612 30.15 217.945 30.5 216.679 30.7C215.379 30.9 214.345 31 213.579 31Z" fill="#D2C7B7"/>
<path d="M269.674 23.55L269.274 23.9C269.44 24.3667 269.29 24.6667 268.824 24.8C268.79 24.8 268.741 24.8167 268.674 24.85C268.607 24.8834 268.524 24.9167 268.424 24.95C268.357 24.95 268.29 24.9667 268.224 25C267.824 25.1334 267.274 25.3334 266.574 25.6L265.074 26.2C264.84 26.3 263.991 26.6167 262.524 27.15C261.257 27.6167 260.29 27.9834 259.624 28.25C258.624 28.65 257.774 29 257.074 29.3C256.074 29.7 254.924 30.2 253.624 30.8C252.357 31.3667 251.074 31.8667 249.774 32.3C248.54 32.7 247.39 32.9 246.324 32.9C245.257 32.9 244.474 32.5167 243.974 31.75C243.707 31.3834 243.624 30.95 243.724 30.45C243.824 29.8834 243.99 29.3834 244.224 28.95C244.49 28.4167 244.79 27.9334 245.124 27.5C245.657 26.8 245.957 26.4167 246.024 26.35C246.757 25.45 247.107 24.7834 247.074 24.35C247.074 24.1834 247.024 24.05 246.924 23.95C246.39 24.25 245.54 24.7167 244.374 25.35C243.607 25.75 242.674 26.1667 241.574 26.6C240.674 26.9334 239.874 27.1834 239.174 27.35C238.507 27.4834 238.007 27.45 237.674 27.25C237.34 27.05 237.14 26.7667 237.074 26.4C237.04 26.0667 237.04 25.7167 237.074 25.35C237.14 24.9834 237.24 24.65 237.374 24.35C237.407 24.2834 237.457 24.1834 237.524 24.05C237.557 23.9834 237.59 23.9334 237.624 23.9C237.624 23.8667 237.64 23.8334 237.674 23.8C237.674 23.7334 237.69 23.6834 237.724 23.65C237.957 23.2167 238.274 23.1167 238.674 23.35C239.107 23.5834 239.207 23.9 238.974 24.3C238.774 24.7667 238.64 25.1167 238.574 25.35C238.474 25.7167 238.44 25.9667 238.474 26.1C238.707 26.1 239.124 26 239.724 25.8C240.324 25.6 240.974 25.35 241.674 25.05C242.14 24.85 242.874 24.5167 243.874 24.05C244.507 23.75 245.207 23.3667 245.974 22.9V22.85C245.54 22.5167 245.274 22.2 245.174 21.9C245.074 21.6334 245.057 21.3667 245.124 21.1C245.257 20.1334 246.257 19.3167 248.124 18.65C249.224 18.2167 249.974 18.3 250.374 18.9C250.54 19.1667 250.59 19.45 250.524 19.75C250.457 20.0834 250.34 20.4 250.174 20.7C249.974 21.0667 249.757 21.3834 249.524 21.65C249.357 21.85 249.074 22.15 248.674 22.55C248.44 22.7834 248.274 22.9334 248.174 23C248.44 23.3667 248.574 23.7167 248.574 24.05C248.674 24.85 248.224 25.8667 247.224 27.1C246.524 27.9334 246.007 28.7167 245.674 29.45C245.374 30.0834 245.307 30.5334 245.474 30.8C245.64 31.1 246.19 31.2 247.124 31.1C248.124 31 249.507 30.6167 251.274 29.95C253.174 29.2167 255.057 28.4667 256.924 27.7C259.624 26.6 261.057 26.0167 261.224 25.95C262.49 25.45 264.007 24.8834 265.774 24.25C266.074 24.15 266.557 23.9667 267.224 23.7C267.89 23.4334 268.407 23.2334 268.774 23.1C269.207 22.9667 269.507 23.1167 269.674 23.55ZM246.274 21.5H246.324C246.324 21.6334 246.39 21.75 246.524 21.85C246.624 21.9167 246.774 22.05 246.974 22.25C247.074 22.1834 247.24 22.0334 247.474 21.8C247.874 21.4 248.174 21.05 248.374 20.75C248.44 20.65 248.524 20.5167 248.624 20.35C248.724 20.1834 248.79 20.0834 248.824 20.05C248.69 20.0834 248.524 20.1334 248.324 20.2C247.557 20.5 247.04 20.7667 246.774 21C246.474 21.2334 246.307 21.4 246.274 21.5Z" fill="#D2C7B7"/>
<path d="M308.333 23.5L308.233 23.6C308.4 24.0667 308.25 24.3667 307.783 24.5L306.533 24.95C305.7 25.25 304.6 25.65 303.233 26.15C301.533 26.7834 300.017 27.3334 298.683 27.8C297.283 28.3 295.567 28.8667 293.533 29.5C292.867 29.7 292.383 29.85 292.083 29.95L290.733 30.4C289.167 30.9334 287.933 31.3167 287.033 31.55C285.933 31.85 284.983 32 284.183 32C283.183 32 282.483 31.7 282.083 31.1C281.617 30.5334 281.583 29.85 281.983 29.05C282.383 28.25 282.933 27.45 283.633 26.65C284.267 25.95 285 25.2 285.833 24.4C286.6 23.7 287.133 23.1667 287.433 22.8C287.267 22.8 286.783 22.9334 285.983 23.2C285.117 23.5 284.283 23.8 283.483 24.1C282.583 24.4334 281.733 24.7834 280.933 25.15C280.133 25.5167 279.583 25.7667 279.283 25.9C278.85 26.1334 278.233 26.4834 277.433 26.95C276.833 27.3167 276.183 27.6167 275.483 27.85C275.15 27.9834 274.833 27.9334 274.533 27.7C274.233 27.4667 274.167 27.1667 274.333 26.8C274.467 26.2334 274.7 25.65 275.033 25.05L275.933 23.35C275.2 23.55 274.517 23.8 273.883 24.1C273.45 24.3 272.8 24.6334 271.933 25.1C271.067 25.5667 270.417 25.9 269.983 26.1C269.45 26.3667 268.783 26.6334 267.983 26.9C267.717 26.9 267.517 26.85 267.383 26.75C267.25 26.65 267.15 26.5 267.083 26.3C267.017 26.1 267.017 25.9 267.083 25.7C267.15 25.4667 267.25 25.2834 267.383 25.15C267.95 24.25 268.583 23.3167 269.283 22.35C269.95 21.4167 270.7 20.5834 271.533 19.85C271.633 19.6834 271.767 19.6 271.933 19.6C272.1 19.6 272.25 19.65 272.383 19.75C272.517 19.85 272.633 19.9667 272.733 20.1C272.833 20.2667 272.817 20.4334 272.683 20.6L270.883 22.7C270.383 23.3 269.817 24.05 269.183 24.95C270.583 24.2167 271.617 23.6667 272.283 23.3C273.283 22.7667 274.367 22.3667 275.533 22.1C275.933 21.9667 276.333 21.9667 276.733 22.1C277.1 22.2334 277.367 22.5334 277.533 23C277.433 23.5667 277.233 24.1 276.933 24.6C276.533 25.2667 276.25 25.7834 276.083 26.15C278.283 24.8834 280.467 23.8 282.633 22.9C282.7 22.8667 282.8 22.8334 282.933 22.8C283.067 22.7334 283.217 22.6667 283.383 22.6C283.583 22.5 283.783 22.4167 283.983 22.35C284.617 22.1167 285.3 21.9167 286.033 21.75C286.733 21.5834 287.383 21.5334 287.983 21.6C288.617 21.6667 288.95 21.9667 288.983 22.5C289.017 22.7334 288.917 23.05 288.683 23.45C288.45 23.85 288.117 24.2834 287.683 24.75C287.417 25.05 286.933 25.55 286.233 26.25L284.583 27.9C284.117 28.4334 283.767 28.9334 283.533 29.4C283.3 29.8667 283.25 30.1667 283.383 30.3C283.583 30.5667 284.017 30.6667 284.683 30.6C285.35 30.5334 286.1 30.3834 286.933 30.15C287.5 29.9834 288.383 29.7 289.583 29.3C289.783 29.2334 290.583 28.95 291.983 28.45C294.35 27.6834 296.733 26.8834 299.133 26.05C300.067 25.7167 301.467 25.2167 303.333 24.55C305.233 23.8834 306.583 23.4 307.383 23.1C307.55 23.0334 307.733 23.05 307.933 23.15C308.167 23.25 308.3 23.3667 308.333 23.5Z" fill="#D2C7B7"/>
<path d="M334.505 23.55L334.555 23.85C334.688 24.2834 334.538 24.5834 334.105 24.75L333.405 25C332.972 25.2 332.472 25.4 331.905 25.6C331.005 25.9334 330.488 26.1167 330.355 26.15C330.222 26.1834 330.088 26.2334 329.955 26.3C329.822 26.3334 329.722 26.3667 329.655 26.4H329.555C327.255 27.1667 325.188 27.6667 323.355 27.9C321.388 28.1667 319.738 28.3 318.405 28.3C317.238 28.3 316.122 28.2167 315.055 28.05C314.222 27.9167 313.455 27.7334 312.755 27.5L312.705 27.55C311.705 28.55 310.605 29.3834 309.405 30.05C308.172 30.75 306.822 31.05 305.355 30.95C304.722 30.95 304.205 30.6667 303.805 30.1C303.405 29.5667 303.338 29.0167 303.605 28.45C304.038 27.4834 304.622 26.5834 305.355 25.75C305.822 25.2167 306.555 24.45 307.555 23.45C307.322 22.75 307.172 22.0167 307.105 21.25C307.072 20.4834 307.272 19.7834 307.705 19.15C308.005 18.6167 308.405 18.2 308.905 17.9C309.405 17.6 309.955 17.4 310.555 17.3C311.155 17.2 311.738 17.25 312.305 17.45C312.872 17.65 313.355 17.9834 313.755 18.45C314.222 19.0167 314.555 19.6167 314.755 20.25C314.955 20.8834 315.055 21.5667 315.055 22.3C315.055 23.0667 314.938 23.75 314.705 24.35C314.438 25.05 314.122 25.65 313.755 26.15C314.522 26.3167 315.355 26.45 316.255 26.55C317.122 26.65 318.322 26.6667 319.855 26.6C321.222 26.5667 322.788 26.3667 324.555 26C326.288 25.6667 328.238 25.1167 330.405 24.35C330.438 24.3167 330.622 24.25 330.955 24.15C331.522 23.95 331.855 23.8334 331.955 23.8C332.422 23.6 332.755 23.4667 332.955 23.4C333.155 23.3334 333.355 23.25 333.555 23.15C333.722 23.0834 333.905 23.1 334.105 23.2C334.338 23.3 334.472 23.4167 334.505 23.55ZM313.705 21.45L313.805 21.5C313.638 20.5 313.272 19.8 312.705 19.4C312.105 19 311.488 18.8667 310.855 19C310.188 19.1334 309.638 19.5334 309.205 20.2C308.772 20.8334 308.622 21.7 308.755 22.8C309.288 22.5 309.688 22.45 309.955 22.65C310.222 22.85 310.072 23.2834 309.505 23.95C309.805 24.2834 310.205 24.65 310.705 25.05C311.138 25.4167 311.688 25.7167 312.355 25.95C312.822 25.3167 313.222 24.6167 313.555 23.85C313.888 23.0834 313.938 22.2834 313.705 21.45ZM304.955 29.5C306.188 29.7334 307.338 29.5834 308.405 29.05C309.505 28.4834 310.505 27.8334 311.405 27.1C310.272 26.4334 309.288 25.6834 308.455 24.85C307.788 25.55 307.122 26.2667 306.455 27C305.822 27.7334 305.322 28.5667 304.955 29.5Z" fill="#D2C7B7"/>
<path d="M362.327 23.55L362.127 24.05C362.26 24.4834 362.11 24.7834 361.677 24.95L359.477 25.75C359.11 25.8834 358.594 26.0834 357.927 26.35C357.427 26.55 357.16 26.65 357.127 26.65V26.6C354.927 27.3334 352.86 27.85 350.927 28.15C349.06 28.45 347.444 28.6 346.077 28.6C344.844 28.6 343.844 28.5334 343.077 28.4C342.277 28.2667 341.56 28.1167 340.927 27.95L340.577 28.2C339.777 28.6334 338.544 29.2834 336.877 30.15C335.644 30.7834 334.294 31.1334 332.827 31.2C332.427 31.2667 332.06 31.2 331.727 31C331.26 30.7334 330.91 30.55 330.677 30.45C329.444 31.8167 328.327 33.2834 327.327 34.85C326.66 35.8834 325.694 37.4334 324.427 39.5C324.294 39.6334 324.194 39.75 324.127 39.85L323.827 40.3C323.727 40.4667 323.61 40.5667 323.477 40.6C323.31 40.6667 323.16 40.6667 323.027 40.6C322.76 40.4 322.627 40.1667 322.627 39.9C322.627 39.6334 322.677 39.3834 322.777 39.15C322.844 38.9834 322.977 38.7334 323.177 38.4C323.377 38.0667 323.51 37.8334 323.577 37.7C325.744 34.4 327.944 31.15 330.177 27.95C332.344 24.85 334.777 21.75 337.477 18.65C337.944 18.1834 338.377 17.7 338.777 17.2C339.177 16.7 339.61 16.2167 340.077 15.75C340.31 15.5834 340.51 15.5 340.677 15.5C340.944 15.5 341.127 15.5167 341.227 15.55C341.394 15.6167 341.477 15.7167 341.477 15.85C341.477 16.05 341.41 16.2334 341.277 16.4C340.11 17.8334 339.01 19.1167 337.977 20.25C336.944 21.35 335.877 22.6834 334.777 24.25C335.31 23.85 336.06 23.3667 337.027 22.8C338.294 22.0667 339.41 21.4834 340.377 21.05C341.577 20.5167 342.76 20.1167 343.927 19.85C345.094 19.5834 346.027 19.6334 346.727 20C346.86 20.1 346.96 20.25 347.027 20.45C347.094 20.7167 347.127 20.9334 347.127 21.1C347.127 21.2667 347.094 21.5167 347.027 21.85C346.56 22.7834 345.944 23.5834 345.177 24.25C344.41 24.9167 343.544 25.6334 342.577 26.4C343.344 26.5667 344.21 26.6667 345.177 26.7C346.177 26.7667 347.327 26.7167 348.627 26.55C349.927 26.3834 351.377 26.1334 352.977 25.8C354.577 25.4667 356.327 24.9667 358.227 24.3C358.294 24.3 358.477 24.25 358.777 24.15C358.81 24.1167 359.127 23.9834 359.727 23.75C360.194 23.55 360.544 23.4167 360.777 23.35C361.01 23.2834 361.227 23.2 361.427 23.1C361.894 22.9667 362.194 23.1167 362.327 23.55ZM345.627 21.5C343.694 21.6667 341.81 22.15 339.977 22.95C338.077 23.75 336.377 24.8167 334.877 26.15C335.844 26.1167 336.794 26.1167 337.727 26.15C338.994 26.2167 339.944 26.2834 340.577 26.35C341.21 25.8834 342.16 25.15 343.427 24.15C344.36 23.4167 345.094 22.5334 345.627 21.5ZM331.927 29.8L331.777 29.9C333.01 30 334.194 29.8167 335.327 29.35C336.394 28.9167 337.477 28.3834 338.577 27.75C337.777 27.6834 337.144 27.65 336.677 27.65C336.01 27.65 335.377 27.7 334.777 27.8C334.177 27.9 333.627 28.1 333.127 28.4C332.627 28.7 332.227 29.1667 331.927 29.8Z" fill="#D2C7B7"/>
<path d="M429.302 23.55L429.202 24.2C429.369 24.6667 429.219 24.9667 428.752 25.1C428.686 25.1 428.236 25.25 427.402 25.55C425.702 26.15 424.602 26.5334 424.102 26.7C421.602 27.5334 420.069 28.05 419.502 28.25C417.602 28.9167 415.836 29.5167 414.202 30.05C414.036 30.1167 413.136 30.3834 411.502 30.85C411.002 31.0167 410.219 31.2334 409.152 31.5C408.886 31.5667 408.502 31.6667 408.002 31.8C407.536 31.9 407.219 31.9667 407.052 32C406.586 32.0667 405.886 32.1334 404.952 32.2C404.219 32.2334 403.569 32 403.002 31.5C402.669 31.1667 402.552 30.7667 402.652 30.3C402.719 29.9334 402.852 29.5334 403.052 29.1C403.586 28.0667 404.269 27.0834 405.102 26.15L407.502 23.45C403.669 24.2167 400.036 25.5167 396.602 27.35C396.436 27.45 396.236 27.55 396.002 27.65C395.769 27.75 395.552 27.7667 395.352 27.7C395.186 27.6667 395.019 27.5667 394.852 27.4C394.719 27.2667 394.669 27.05 394.702 26.75C395.469 25.1834 396.452 23.8 397.652 22.6C398.719 21.5334 399.952 20.3834 401.352 19.15C401.652 18.8834 401.952 18.8 402.252 18.9C402.586 19 402.769 19.25 402.802 19.65C402.169 20.2834 401.219 21.2 399.952 22.4C398.952 23.3667 398.052 24.3334 397.252 25.3C399.052 24.4334 400.819 23.6834 402.552 23.05C404.352 22.4167 406.202 21.9667 408.102 21.7C408.402 21.6334 408.636 21.65 408.802 21.75C409.002 21.85 409.152 22 409.252 22.2C409.352 22.4 409.402 22.6167 409.402 22.85C409.402 23.0834 409.302 23.3 409.102 23.5C408.502 24.2334 408.036 24.7667 407.702 25.1C407.369 25.4334 406.902 25.9667 406.302 26.7C405.869 27.2 405.452 27.7667 405.052 28.4C404.586 29.0667 404.252 29.6834 404.052 30.25C405.352 30.35 406.669 30.2167 408.002 29.85C409.736 29.3834 411.019 29.0334 411.852 28.8C412.319 28.6667 412.652 28.5667 412.852 28.5C413.419 28.3 413.752 28.1834 413.852 28.15C415.952 27.5167 418.202 26.7667 420.602 25.9C425.402 24.2 427.986 23.2834 428.352 23.15C428.519 23.0834 428.702 23.1 428.902 23.2C429.136 23.3 429.269 23.4167 429.302 23.55Z" fill="#D2C7B7"/>
<path d="M457.102 23.55L456.902 24.05C457.036 24.4834 456.886 24.7834 456.452 24.95L454.252 25.75C453.886 25.8834 453.369 26.0834 452.702 26.35C452.202 26.55 451.936 26.65 451.902 26.65V26.6C449.702 27.3334 447.636 27.85 445.702 28.15C443.836 28.45 442.219 28.6 440.852 28.6C439.619 28.6 438.619 28.5334 437.852 28.4C437.052 28.2667 436.336 28.1167 435.702 27.95L435.352 28.2C434.552 28.6334 433.319 29.2834 431.652 30.15C430.419 30.7834 429.069 31.1334 427.602 31.2C427.202 31.2667 426.836 31.2 426.502 31C426.036 30.7334 425.686 30.55 425.452 30.45C424.219 31.8167 423.102 33.2834 422.102 34.85C421.436 35.8834 420.469 37.4334 419.202 39.5C419.069 39.6334 418.969 39.75 418.902 39.85L418.602 40.3C418.502 40.4667 418.386 40.5667 418.252 40.6C418.086 40.6667 417.936 40.6667 417.802 40.6C417.536 40.4 417.402 40.1667 417.402 39.9C417.402 39.6334 417.452 39.3834 417.552 39.15C417.619 38.9834 417.752 38.7334 417.952 38.4C418.152 38.0667 418.286 37.8334 418.352 37.7C420.519 34.4 422.719 31.15 424.952 27.95C427.119 24.85 429.552 21.75 432.252 18.65C432.719 18.1834 433.152 17.7 433.552 17.2C433.952 16.7 434.386 16.2167 434.852 15.75C435.086 15.5834 435.286 15.5 435.452 15.5C435.719 15.5 435.902 15.5167 436.002 15.55C436.169 15.6167 436.252 15.7167 436.252 15.85C436.252 16.05 436.186 16.2334 436.052 16.4C434.886 17.8334 433.786 19.1167 432.752 20.25C431.719 21.35 430.652 22.6834 429.552 24.25C430.086 23.85 430.836 23.3667 431.802 22.8C433.069 22.0667 434.186 21.4834 435.152 21.05C436.352 20.5167 437.536 20.1167 438.702 19.85C439.869 19.5834 440.802 19.6334 441.502 20C441.636 20.1 441.736 20.25 441.802 20.45C441.869 20.7167 441.902 20.9334 441.902 21.1C441.902 21.2667 441.869 21.5167 441.802 21.85C441.336 22.7834 440.719 23.5834 439.952 24.25C439.186 24.9167 438.319 25.6334 437.352 26.4C438.119 26.5667 438.986 26.6667 439.952 26.7C440.952 26.7667 442.102 26.7167 443.402 26.55C444.702 26.3834 446.152 26.1334 447.752 25.8C449.352 25.4667 451.102 24.9667 453.002 24.3C453.069 24.3 453.252 24.25 453.552 24.15C453.586 24.1167 453.902 23.9834 454.502 23.75C454.969 23.55 455.319 23.4167 455.552 23.35C455.786 23.2834 456.002 23.2 456.202 23.1C456.669 22.9667 456.969 23.1167 457.102 23.55ZM440.402 21.5C438.469 21.6667 436.586 22.15 434.752 22.95C432.852 23.75 431.152 24.8167 429.652 26.15C430.619 26.1167 431.569 26.1167 432.502 26.15C433.769 26.2167 434.719 26.2834 435.352 26.35C435.986 25.8834 436.936 25.15 438.202 24.15C439.136 23.4167 439.869 22.5334 440.402 21.5ZM426.702 29.8L426.552 29.9C427.786 30 428.969 29.8167 430.102 29.35C431.169 28.9167 432.252 28.3834 433.352 27.75C432.552 27.6834 431.919 27.65 431.452 27.65C430.786 27.65 430.152 27.7 429.552 27.8C428.952 27.9 428.402 28.1 427.902 28.4C427.402 28.7 427.002 29.1667 426.702 29.8Z" fill="#D2C7B7"/>
<path d="M491.586 23.5L491.336 24.2C491.402 24.3667 491.386 24.5334 491.286 24.7C491.186 24.8667 491.036 24.9834 490.836 25.05L490.036 25.35C489.302 25.6167 488.586 25.8667 487.886 26.1L484.736 27.15C484.336 27.2834 483.702 27.4834 482.836 27.75C482.002 28.0167 481.352 28.2334 480.886 28.4C480.352 28.5667 479.519 28.8167 478.386 29.15C478.152 29.2167 477.352 29.4334 475.986 29.8C475.786 29.8667 475.452 29.9667 474.986 30.1C474.552 30.2 474.219 30.2834 473.986 30.35L472.786 30.65C471.119 31.05 469.569 31.3667 468.136 31.6C466.936 31.8 465.986 31.9 465.286 31.9C464.586 31.9 464.102 31.8334 463.836 31.7C463.502 31.5334 463.269 31.3667 463.136 31.2C463.102 31.1 463.052 30.95 462.986 30.75C462.919 30.5167 462.986 30.1667 463.186 29.7C463.386 29.1667 463.752 28.5 464.286 27.7C464.886 26.7667 465.736 25.6334 466.836 24.3C464.802 24.9 462.802 25.65 460.836 26.55C458.802 27.4834 456.802 28.2167 454.836 28.75L453.486 28.95C453.019 29.05 452.652 28.8667 452.386 28.4C452.186 28.0334 452.219 27.6667 452.486 27.3C452.752 26.9667 453.002 26.6667 453.236 26.4C454.302 25.2334 455.302 24.2 456.236 23.3C457.236 22.3334 458.369 21.4334 459.636 20.6C459.769 20.4667 459.952 20.3667 460.186 20.3C460.386 20.2334 460.569 20.2334 460.736 20.3C460.902 20.3667 461.002 20.4667 461.036 20.6C461.102 20.7667 461.086 20.9667 460.986 21.2C459.719 22.1 458.519 23.05 457.386 24.05C456.352 24.95 455.286 26.0334 454.186 27.3C455.352 27 456.436 26.65 457.436 26.25C458.136 25.9834 459.186 25.55 460.586 24.95C461.286 24.65 462.336 24.2334 463.736 23.7C464.869 23.2667 465.952 22.9334 466.986 22.7C467.386 22.5667 467.836 22.5167 468.336 22.55C468.836 22.5834 469.086 22.8834 469.086 23.45C469.086 23.6167 468.986 23.8167 468.786 24.05C468.586 24.2834 468.469 24.4 468.436 24.4L467.086 26.05C466.619 26.6167 466.219 27.1667 465.886 27.7C465.786 27.8667 465.636 28.1167 465.436 28.45C465.236 28.75 465.086 28.9667 464.986 29.1C464.719 29.5 464.569 29.8 464.536 30C464.902 30.1667 465.636 30.1667 466.736 30C467.569 29.9 468.869 29.6667 470.636 29.3C471.769 29.0667 473.386 28.6834 475.486 28.15C477.219 27.7167 478.919 27.2167 480.586 26.65L481.686 26.25C482.386 26.0167 483.236 25.7167 484.236 25.35C484.536 25.25 485.036 25.0667 485.736 24.8C486.469 24.5334 487.052 24.3334 487.486 24.2C489.186 23.6 490.219 23.2334 490.586 23.1C490.819 23.0334 491.019 23.05 491.186 23.15C491.419 23.25 491.552 23.3667 491.586 23.5Z" fill="#D2C7B7"/>
<path d="M524.158 23.5L523.808 23.95C523.975 24.3834 523.825 24.6834 523.358 24.85L518.908 26.35C517.442 26.75 516.125 27.05 514.958 27.25C513.758 27.45 512.658 27.6 511.658 27.7C510.758 27.8 509.842 27.8167 508.908 27.75C508.075 27.7167 507.275 27.6667 506.508 27.6C504.842 27.5334 503.642 27.5 502.908 27.5C501.808 27.5 500.458 27.7334 498.858 28.2L497.508 30.15C497.042 30.8167 496.575 31.4334 496.108 32C495.608 32.6 495.058 33.15 494.458 33.65C493.892 34.1167 493.225 34.4834 492.458 34.75C492.125 34.8834 491.808 34.9 491.508 34.8C491.208 34.7 490.992 34.5334 490.858 34.3C490.725 34.0667 490.625 33.7834 490.558 33.45C490.492 33.15 490.542 32.85 490.708 32.55C491.008 31.75 491.442 31.0667 492.008 30.5C492.575 29.9667 493.175 29.4667 493.808 29C494.442 28.5334 495.142 28.1334 495.908 27.8C496.408 27.5667 497.125 27.2167 498.058 26.75C498.558 25.9167 498.942 25.1167 499.208 24.35C499.508 23.45 499.642 22.55 499.608 21.65L498.408 21.8C497.975 21.8667 497.592 21.9667 497.258 22.1C495.425 22.9667 493.842 24.1167 492.508 25.55C491.142 26.9834 489.942 28.5334 488.908 30.2C488.542 30.3334 488.292 30.2334 488.158 29.9C487.992 29.5334 488.008 29.1834 488.208 28.85C488.642 27.75 489.325 26.0667 490.258 23.8C490.992 22.0334 491.758 20.3667 492.558 18.8C493.425 17.1334 494.375 15.5834 495.408 14.15C496.475 12.65 497.725 11.3167 499.158 10.15C500.025 9.41671 500.942 8.80005 501.908 8.30005C502.808 7.83338 503.775 7.41671 504.808 7.05004C506.142 6.58338 507.158 6.25004 507.858 6.05004C508.792 5.78338 509.842 5.40004 511.008 4.90004C512.008 4.50004 512.925 4.03338 513.758 3.50004C514.692 2.93338 515.425 2.23338 515.958 1.40004C516.025 1.30004 516.125 1.16671 516.258 1.00004C516.392 0.800044 516.475 0.666711 516.508 0.600043C516.708 0.26671 516.992 0.233377 517.358 0.500044C517.725 1.06671 517.675 1.60004 517.208 2.10004C516.575 3.03338 515.775 3.83338 514.808 4.50004C513.841 5.16671 512.842 5.71671 511.808 6.15004C510.742 6.61671 509.625 7.03338 508.458 7.40004C506.992 7.86671 505.908 8.23338 505.208 8.50004C504.008 8.96671 502.975 9.43338 502.108 9.90004C501.108 10.4334 500.158 11.1334 499.258 12C497.392 13.8 495.908 15.7667 494.808 17.9C493.642 20.1 492.592 22.35 491.658 24.65C492.558 23.7167 493.608 22.8 494.808 21.9C495.942 21.0667 497.225 20.4667 498.658 20.1C499.192 19.9334 499.725 19.95 500.258 20.15C500.792 20.35 501.142 20.7334 501.308 21.3C501.475 22.2 501.408 23.0334 501.108 23.8C500.708 24.8667 500.408 25.6834 500.208 26.25C501.575 25.95 502.775 25.8 503.808 25.8C504.508 25.8 505.558 25.8334 506.958 25.9C508.692 25.9667 510.642 25.9 512.808 25.7C515.175 25.5 517.675 24.9834 520.308 24.15C520.608 24.05 521.091 23.8667 521.758 23.6C522.425 23.3334 522.925 23.15 523.258 23.05C523.725 22.8834 524.025 23.0334 524.158 23.5ZM491.908 33.55C492.975 33.15 493.875 32.55 494.608 31.75C495.242 31.0834 495.908 30.25 496.608 29.25L495.108 30C494.608 30.2667 494.158 30.5667 493.758 30.9C493.425 31.2 493.058 31.6 492.658 32.1C492.325 32.5334 492.075 33.0167 491.908 33.55Z" fill="#D2C7B7"/>
<path d="M561.227 23.5L560.877 23.85C560.943 24.0167 560.927 24.1834 560.827 24.35C560.727 24.55 560.61 24.6667 560.477 24.7C560.443 24.7 559.993 24.85 559.127 25.15C558.26 25.45 557.16 25.85 555.827 26.35C554.493 26.85 552.943 27.4 551.177 28C549.41 28.6 547.61 29.2 545.777 29.8C543.91 30.4 541.893 31.0167 539.727 31.65C538.227 32.0834 536.777 32.45 535.377 32.75C533.977 33.05 532.993 33.2334 532.427 33.3C531.693 33.4 531.093 33.45 530.627 33.45C530.027 33.45 529.627 33.4 529.427 33.3C529.227 33.2 529.077 33.0667 528.977 32.9C528.61 32.5 528.46 32.05 528.527 31.55C528.593 31.0167 528.793 30.4834 529.127 29.95C529.527 29.35 529.977 28.7667 530.477 28.2C530.843 27.8 531.427 27.2 532.227 26.4V26.35L535.027 23.55L523.577 26.5C523.477 26.9334 523.41 27.2334 523.377 27.4C523.277 27.8 523.127 28.1834 522.927 28.55C522.66 29.0834 522.443 29.4834 522.277 29.75C522.043 30.1167 521.743 30.4334 521.377 30.7C521.043 30.9 520.777 31.0334 520.577 31.1C520.277 31.2 519.977 31.25 519.677 31.25C519.377 31.25 519.093 31.1667 518.827 31C518.56 30.8667 518.36 30.6167 518.227 30.25C518.093 29.8167 518.243 29.2167 518.677 28.45C519.077 27.7834 519.66 26.9834 520.427 26.05C521.06 25.2834 521.843 24.4334 522.777 23.5C523.41 22.8667 524.193 22.1167 525.127 21.25C525.293 21.0834 525.477 21 525.677 21C525.843 21 526.01 21.0834 526.177 21.25C526.31 21.3834 526.377 21.55 526.377 21.75C526.377 21.9167 526.293 22.0834 526.127 22.25C525.793 22.55 525.327 23 524.727 23.6L523.427 24.9L537.327 21.3C537.727 21.2667 537.993 21.3834 538.127 21.65C538.293 21.9167 538.243 22.2 537.977 22.5C536.977 23.5667 535.977 24.5667 534.977 25.5C533.677 26.7334 532.793 27.6 532.327 28.1C531.527 28.9667 530.943 29.6667 530.577 30.2C530.177 30.8 530.06 31.2834 530.227 31.65C530.527 31.85 531.46 31.8 533.027 31.5C534.627 31.2 536.71 30.7 539.277 30C541.677 29.3667 544.76 28.4334 548.527 27.2C551.86 26.1334 555.793 24.75 560.327 23.05C560.793 22.8834 561.093 23.0334 561.227 23.5ZM520.477 29.65H520.427C520.893 29.2834 521.243 28.7667 521.477 28.1C521.777 27.3 521.96 26.7167 522.027 26.35C521.293 27.1834 520.693 27.9334 520.227 28.6C519.76 29.2667 519.51 29.7167 519.477 29.95C519.877 30.0167 520.21 29.9167 520.477 29.65Z" fill="#D2C7B7"/>
<path d="M573.686 31L573.236 31.05C572.703 31.05 572.253 31 571.886 30.9C571.586 30.8 571.319 30.7 571.086 30.6C570.853 30.5 570.703 30.3834 570.636 30.25C570.569 30.15 570.503 30.0334 570.436 29.9C570.069 29 570.369 27.9667 571.336 26.8C572.269 25.6667 573.569 24.3167 575.236 22.75L575.986 22C576.319 21.6667 576.569 21.4334 576.736 21.3C576.603 21.3334 576.353 21.4167 575.986 21.55C575.653 21.65 575.386 21.7334 575.186 21.8C574.386 22.0667 573.769 22.2834 573.336 22.45C572.469 22.7834 571.803 23.0334 571.336 23.2C570.636 23.4667 569.986 23.7167 569.386 23.95C568.786 24.15 567.903 24.4667 566.736 24.9C565.603 25.3 564.803 25.5834 564.336 25.75C563.269 26.15 562.269 26.4667 561.336 26.7C560.603 26.9 560.086 27 559.786 27C559.519 27 559.303 26.9167 559.136 26.75C558.669 26.25 558.569 25.6667 558.836 25C559.103 24.3667 559.486 23.7834 559.986 23.25C560.353 22.95 560.686 22.95 560.986 23.25C561.153 23.4167 561.236 23.5834 561.236 23.75C561.236 23.9167 561.153 24.0834 560.986 24.25C560.453 24.8167 560.169 25.2667 560.136 25.6C560.369 25.5667 560.853 25.4334 561.586 25.2C562.319 24.9667 563.053 24.7167 563.786 24.45C563.919 24.4167 564.286 24.2834 564.886 24.05C565.486 23.8167 565.969 23.6334 566.336 23.5C566.703 23.3667 567.186 23.1834 567.786 22.95C568.386 22.7167 568.753 22.5834 568.886 22.55C569.653 22.25 571.353 21.6334 573.986 20.7C575.219 20.2334 576.169 19.9334 576.836 19.8C577.503 19.6667 577.953 19.6167 578.186 19.65C578.419 19.6834 578.619 19.7834 578.786 19.95C579.153 20.3834 579.103 20.8834 578.636 21.45C578.169 22.0167 577.419 22.8167 576.386 23.85C576.119 24.0834 575.653 24.5334 574.986 25.2C574.419 25.7334 573.919 26.2834 573.486 26.85C572.953 27.5167 572.569 28.0167 572.336 28.35C572.036 28.7834 571.936 29.1334 572.036 29.4C572.269 29.7 573.186 29.75 574.786 29.55C576.219 29.3834 578.219 29 580.786 28.4C582.953 27.9 585.653 27.1667 588.886 26.2C591.586 25.4 594.603 24.3667 597.936 23.1C598.369 22.9667 598.669 23.1 598.836 23.5C598.903 23.7334 598.886 23.9334 598.786 24.1C598.686 24.3 598.569 24.4167 598.436 24.45C597.136 24.95 595.786 25.45 594.386 25.95C593.453 26.2834 592.019 26.75 590.086 27.35C589.519 27.5167 588.086 27.9334 585.786 28.6C584.486 28.9667 583.153 29.3167 581.786 29.65C579.719 30.15 578.053 30.5 576.786 30.7C575.486 30.9 574.453 31 573.686 31Z" fill="#D2C7B7"/>
<path d="M633.431 23.5L633.181 24.2C633.248 24.3667 633.231 24.5334 633.131 24.7C633.031 24.8667 632.881 24.9834 632.681 25.05L631.881 25.35C631.148 25.6167 630.431 25.8667 629.731 26.1L626.581 27.15C626.181 27.2834 625.548 27.4834 624.681 27.75C623.848 28.0167 623.198 28.2334 622.731 28.4C622.198 28.5667 621.365 28.8167 620.231 29.15C619.998 29.2167 619.198 29.4334 617.831 29.8C617.631 29.8667 617.298 29.9667 616.831 30.1C616.398 30.2 616.065 30.2834 615.831 30.35L614.631 30.65C612.965 31.05 611.415 31.3667 609.981 31.6C608.781 31.8 607.831 31.9 607.131 31.9C606.431 31.9 605.948 31.8334 605.681 31.7C605.348 31.5334 605.115 31.3667 604.981 31.2C604.948 31.1 604.898 30.95 604.831 30.75C604.765 30.5167 604.831 30.1667 605.031 29.7C605.231 29.1667 605.598 28.5 606.131 27.7C606.731 26.7667 607.581 25.6334 608.681 24.3C606.648 24.9 604.648 25.65 602.681 26.55C600.648 27.4834 598.648 28.2167 596.681 28.75L595.331 28.95C594.865 29.05 594.498 28.8667 594.231 28.4C594.031 28.0334 594.065 27.6667 594.331 27.3C594.598 26.9667 594.848 26.6667 595.081 26.4C596.148 25.2334 597.148 24.2 598.081 23.3C599.081 22.3334 600.215 21.4334 601.481 20.6C601.615 20.4667 601.798 20.3667 602.031 20.3C602.231 20.2334 602.415 20.2334 602.581 20.3C602.748 20.3667 602.848 20.4667 602.881 20.6C602.948 20.7667 602.931 20.9667 602.831 21.2C601.565 22.1 600.365 23.05 599.231 24.05C598.198 24.95 597.131 26.0334 596.031 27.3C597.198 27 598.281 26.65 599.281 26.25C599.981 25.9834 601.031 25.55 602.431 24.95C603.131 24.65 604.181 24.2334 605.581 23.7C606.715 23.2667 607.798 22.9334 608.831 22.7C609.231 22.5667 609.681 22.5167 610.181 22.55C610.681 22.5834 610.931 22.8834 610.931 23.45C610.931 23.6167 610.831 23.8167 610.631 24.05C610.431 24.2834 610.315 24.4 610.281 24.4L608.931 26.05C608.465 26.6167 608.065 27.1667 607.731 27.7C607.631 27.8667 607.481 28.1167 607.281 28.45C607.081 28.75 606.931 28.9667 606.831 29.1C606.565 29.5 606.415 29.8 606.381 30C606.748 30.1667 607.481 30.1667 608.581 30C609.415 29.9 610.715 29.6667 612.481 29.3C613.615 29.0667 615.231 28.6834 617.331 28.15C619.065 27.7167 620.765 27.2167 622.431 26.65L623.531 26.25C624.231 26.0167 625.081 25.7167 626.081 25.35C626.381 25.25 626.881 25.0667 627.581 24.8C628.315 24.5334 628.898 24.3334 629.331 24.2C631.031 23.6 632.065 23.2334 632.431 23.1C632.665 23.0334 632.865 23.05 633.031 23.15C633.265 23.25 633.398 23.3667 633.431 23.5Z" fill="#D2C7B7"/>
</svg>
