<svg width="439" height="36" viewBox="0 0 439 36" fill="none" xmlns="http://www.w3.org/2000/svg">
<path d="M46.45 18.4998L46.05 18.6998C46.0833 18.8332 46.0833 18.9998 46.05 19.1998C46.0167 19.3665 45.8833 19.4832 45.65 19.5498C42.95 20.6165 40.4167 21.5165 38.05 22.2498C35.75 22.9498 33.65 23.4998 31.75 23.8998C29.6833 24.3332 27.9833 24.6165 26.65 24.7498C24.9833 24.9165 23.65 24.9998 22.65 24.9998C20.7167 24.9998 19.2 24.8498 18.1 24.5498C17.0333 24.2498 16.25 23.9665 15.75 23.6998L14.35 24.7498C12.1167 26.3832 9.86666 27.6165 7.59999 28.4498C6.99999 28.6498 6.23333 28.8665 5.29999 29.0998C4.43333 29.2998 3.63333 29.2998 2.89999 29.0998C2.03333 28.8998 1.34999 28.4665 0.849994 27.7998C0.349994 27.1332 0.266661 26.2832 0.599994 25.2498C0.866661 24.3498 1.23333 23.5165 1.69999 22.7498C2.33333 21.5498 3.11666 20.3665 4.04999 19.1998C4.94999 18.0332 6.08333 16.8498 7.44999 15.6498C7.81666 15.3165 8.51666 14.6998 9.54999 13.7998C9.91666 13.5332 10.1167 13.1832 10.15 12.7498C10.1833 10.3498 10.7833 8.14984 11.95 6.14984C13.35 3.58317 15.25 1.98317 17.65 1.34984C19.5833 0.816507 21.3833 1.19984 23.05 2.49984C24.3167 3.53317 25.1833 4.86651 25.65 6.49984C26.1167 8.09984 26.0667 9.78317 25.5 11.5498C24.8333 13.7165 23.7333 15.7165 22.2 17.5498C21.6333 18.2498 21.0833 18.8832 20.55 19.4498C20.1167 19.9165 19.1167 20.9332 17.55 22.4998L17.3 22.6998C18.0333 22.9665 19.0333 23.1998 20.3 23.3998C21.6333 23.5998 23.4333 23.5998 25.7 23.3998C27.9667 23.1998 30.7167 22.6998 33.95 21.8998C37.3167 21.0665 41.1667 19.7998 45.5 18.0998C45.6667 18.0332 45.85 18.0332 46.05 18.0998C46.25 18.1665 46.3833 18.2998 46.45 18.4998ZM14.3 23.0498H14.05C13.0167 22.0832 12.1667 20.9832 11.5 19.7498C10.8667 18.5165 10.3667 17.0332 9.99999 15.2998C8.96666 16.1332 7.81666 17.1665 6.54999 18.3998C5.44999 19.4665 4.43333 20.7165 3.49999 22.1498C3.09999 22.7498 2.79999 23.2665 2.59999 23.6998C2.56666 23.7665 2.34999 24.2498 1.94999 25.1498C1.58333 25.9165 1.54999 26.5498 1.84999 27.0498C2.14999 27.5498 2.76666 27.8165 3.69999 27.8498C4.26666 28.0165 4.89999 27.9665 5.59999 27.6998C6.53333 27.3665 7.21666 27.1165 7.64999 26.9498C8.71666 26.4498 9.69999 25.9498 10.6 25.4498C11.5667 24.9165 12.65 24.2332 13.85 23.3998C14.1167 23.1998 14.2667 23.0832 14.3 23.0498ZM13.6 20.3998L13.45 20.6498C13.65 20.9498 13.9 21.2498 14.2 21.5498C14.4 21.7498 14.7333 22.0165 15.2 22.3498L15.55 21.9998C18.2833 19.7665 20.4 17.3665 21.9 14.7998C22.2667 14.1665 22.6167 13.4832 22.95 12.7498C23.2833 12.0498 23.5167 11.4165 23.65 10.8498C24.2167 8.64984 23.8667 6.69984 22.6 4.99984C21.8 3.93317 20.85 3.28317 19.75 3.04984C18.65 2.78317 17.5167 2.98317 16.35 3.64984C14.75 4.48317 13.5333 5.71651 12.7 7.34984C11.8667 8.98317 11.3333 10.7332 11.1 12.5998C11.2 12.5665 11.3167 12.5165 11.45 12.4498L11.75 12.2498C12.9833 11.3165 14.0833 10.5832 15.05 10.0498C16.0167 9.48317 17.0333 8.96651 18.1 8.49984C18.7 8.29984 19.35 8.14984 20.05 8.04984C20.4167 8.04984 20.7 8.14984 20.9 8.34984C21.0333 8.54984 21.0833 8.79984 21.05 9.09984C20.95 9.43317 20.7 9.68317 20.3 9.84984C20 9.88317 19.7833 9.83317 19.65 9.69984C19.4167 9.46651 18.9167 9.49984 18.15 9.79984C17.4833 10.0665 16.6833 10.4998 15.75 11.0998C15.1833 11.4665 14.3667 12.0165 13.3 12.7498C12.9333 12.9832 12.3667 13.3832 11.6 13.9498C11.4333 14.1165 11.3333 14.2332 11.3 14.2998C11.2333 14.3998 11.2333 14.5498 11.3 14.7498C11.6 16.8498 12.3667 18.7332 13.6 20.3998Z" fill="#FFFCF8"/>
<path d="M76.7066 18.4498L76.5566 18.6498C76.6233 18.8832 76.6066 19.0832 76.5066 19.2498C76.4066 19.4498 76.29 19.5665 76.1566 19.5998C76.09 19.5998 75.64 19.7498 74.8066 20.0498C73.1066 20.6498 72.0066 21.0332 71.5066 21.1998C69.0066 22.0332 67.4733 22.5498 66.9066 22.7498C65.0066 23.4165 63.24 24.0165 61.6066 24.5498C61.44 24.6165 60.54 24.8832 58.9066 25.3498C58.4066 25.5165 57.6233 25.7332 56.5566 25.9998C56.29 26.0665 55.9233 26.1665 55.4566 26.2998C54.99 26.3998 54.6566 26.4665 54.4566 26.4998C53.6233 26.6332 52.9233 26.7165 52.3566 26.7498C51.6233 26.7832 50.9733 26.5332 50.4066 25.9998C50.0733 25.6665 49.9566 25.2665 50.0566 24.7998C50.1233 24.4332 50.2566 24.0332 50.4566 23.5998C50.79 22.9332 51.19 22.3332 51.6566 21.7998L53.0066 20.1498C52.34 20.3498 51.4733 20.5665 50.4066 20.7998C49.5066 20.9998 48.6566 21.1498 47.8566 21.2498C46.6566 21.4165 45.9566 21.4998 45.7566 21.4998C45.1566 21.5665 44.7066 21.6165 44.4066 21.6498C43.8066 22.3498 43.29 22.9665 42.8566 23.4998C42.4566 23.9998 42.24 24.2665 42.2066 24.2998C42.04 24.4665 41.8566 24.5498 41.6566 24.5498C41.5233 24.5498 41.3733 24.4998 41.2066 24.3998C40.84 24.0998 40.79 23.7665 41.0566 23.3998L41.1566 23.2998C41.2233 23.1998 41.3233 23.0665 41.4566 22.8998C41.59 22.7332 41.7233 22.5665 41.8566 22.3998C42.3566 21.7998 42.9566 21.0998 43.6566 20.2998C43.8566 20.0665 44.2066 19.6665 44.7066 19.0998C45.1733 18.5332 45.54 18.0998 45.8066 17.7998C46.4733 17.0332 47.1233 16.3665 47.7566 15.7998C48.1233 15.4998 48.4566 15.5165 48.7566 15.8498C49.0566 16.2165 49.04 16.5498 48.7066 16.8498C48.3066 17.2165 47.8566 17.6665 47.3566 18.1998C46.6233 18.9998 46.09 19.5998 45.7566 19.9998C45.99 19.9665 46.74 19.8832 48.0066 19.7498C48.9066 19.6498 49.79 19.4998 50.6566 19.2998C51.39 19.1332 52.2733 18.8998 53.3066 18.5998C54.14 18.3665 54.8733 18.0332 55.5066 17.5998L56.1066 16.9998C56.2733 16.8332 56.5233 16.5498 56.8566 16.1498C57.19 15.7498 57.44 15.4665 57.6066 15.2998C57.7733 15.1332 57.94 15.0498 58.1066 15.0498C58.34 15.0498 58.5233 15.1165 58.6566 15.2498C58.8233 15.4165 58.9066 15.5832 58.9066 15.7498C58.9066 15.9498 58.84 16.1165 58.7066 16.2498C57.2066 17.8165 55.8566 19.2665 54.6566 20.5998C53.49 21.9332 52.4233 23.4498 51.4566 25.1498C52.7566 25.2498 54.0733 25.1165 55.4066 24.7498C57.14 24.2832 58.4233 23.9332 59.2566 23.6998C59.5566 23.6665 59.89 23.5832 60.2566 23.4498C60.4566 23.3832 60.79 23.2832 61.2566 23.1498C63.3566 22.5165 65.6066 21.7665 68.0066 20.8998C70.64 19.9665 73.2233 19.0165 75.7566 18.0498C75.9233 17.9832 76.1066 17.9998 76.3066 18.0998C76.54 18.1998 76.6733 18.3165 76.7066 18.4498Z" fill="#FFFCF8"/>
<path d="M89.1801 25.9998L88.7301 26.0498C88.1967 26.0498 87.7467 25.9998 87.3801 25.8998C87.0801 25.7998 86.8134 25.6998 86.5801 25.5998C86.3467 25.4998 86.1967 25.3832 86.1301 25.2498C86.0634 25.1498 85.9967 25.0332 85.9301 24.8998C85.5634 23.9998 85.8634 22.9665 86.8301 21.7998C87.7634 20.6665 89.0634 19.3165 90.7301 17.7498L91.4801 16.9998C91.8134 16.6665 92.0634 16.4332 92.2301 16.2998C92.0967 16.3332 91.8467 16.4165 91.4801 16.5498C91.1467 16.6498 90.8801 16.7332 90.6801 16.7998C89.8801 17.0665 89.2634 17.2832 88.8301 17.4498C87.9634 17.7832 87.2967 18.0332 86.8301 18.1998C86.1301 18.4665 85.4801 18.7165 84.8801 18.9498C84.2801 19.1498 83.3967 19.4665 82.2301 19.8998C81.0967 20.2998 80.2967 20.5832 79.8301 20.7498C78.7634 21.1498 77.7634 21.4665 76.8301 21.6998C76.0967 21.8998 75.5801 21.9998 75.2801 21.9998C75.0134 21.9998 74.7967 21.9165 74.6301 21.7498C74.1634 21.2498 74.0634 20.6665 74.3301 19.9998C74.5967 19.3665 74.9801 18.7832 75.4801 18.2498C75.8467 17.9498 76.1801 17.9498 76.4801 18.2498C76.6467 18.4165 76.7301 18.5832 76.7301 18.7498C76.7301 18.9165 76.6467 19.0832 76.4801 19.2498C75.9467 19.8165 75.6634 20.2665 75.6301 20.5998C75.8634 20.5665 76.3467 20.4332 77.0801 20.1998C77.8134 19.9665 78.5467 19.7165 79.2801 19.4498C79.4134 19.4165 79.7801 19.2832 80.3801 19.0498C80.9801 18.8165 81.4634 18.6332 81.8301 18.4998C82.1967 18.3665 82.6801 18.1832 83.2801 17.9498C83.8801 17.7165 84.2467 17.5832 84.3801 17.5498C85.1467 17.2498 86.8467 16.6332 89.4801 15.6998C90.7134 15.2332 91.6634 14.9332 92.3301 14.7998C92.9967 14.6665 93.4467 14.6165 93.6801 14.6498C93.9134 14.6832 94.1134 14.7832 94.2801 14.9498C94.6467 15.3832 94.5967 15.8832 94.1301 16.4498C93.6634 17.0165 92.9134 17.8165 91.8801 18.8498C91.6134 19.0832 91.1467 19.5332 90.4801 20.1998C89.9134 20.7332 89.4134 21.2832 88.9801 21.8498C88.4467 22.5165 88.0634 23.0165 87.8301 23.3498C87.5301 23.7832 87.4301 24.1332 87.5301 24.3998C87.7634 24.6998 88.6801 24.7498 90.2801 24.5498C91.7134 24.3832 93.7134 23.9998 96.2801 23.3998C98.4467 22.8998 101.147 22.1665 104.38 21.1998C107.08 20.3998 110.097 19.3665 113.43 18.0998C113.863 17.9665 114.163 18.0998 114.33 18.4998C114.397 18.7332 114.38 18.9332 114.28 19.0998C114.18 19.2998 114.063 19.4165 113.93 19.4498C112.63 19.9498 111.28 20.4498 109.88 20.9498C108.947 21.2832 107.513 21.7498 105.58 22.3498C105.013 22.5165 103.58 22.9332 101.28 23.5998C99.9801 23.9665 98.6467 24.3165 97.2801 24.6498C95.2134 25.1498 93.5467 25.4998 92.2801 25.6998C90.9801 25.8998 89.9467 25.9998 89.1801 25.9998Z" fill="#FFFCF8"/>
<path d="M144.375 18.5498L144.275 18.4498C144.309 18.4832 144.325 18.5832 144.325 18.7498C144.259 19.0165 144.109 19.1998 143.875 19.2998C143.775 19.2998 143.425 19.4165 142.825 19.6498C142.159 19.8832 141.309 20.1832 140.275 20.5498C139.442 20.8498 138.342 21.2498 136.975 21.7498C135.909 22.1498 134.509 22.6165 132.775 23.1498C131.509 23.5498 130.109 23.9165 128.575 24.2498C127.209 24.5498 126.059 24.6998 125.125 24.6998C124.592 24.6998 124.125 24.6165 123.725 24.4498C123.192 24.1832 122.909 23.7832 122.875 23.2498C122.842 22.8498 122.942 22.3832 123.175 21.8498C123.442 21.2498 123.759 20.6998 124.125 20.1998L125.025 19.0998C125.192 18.8998 125.475 18.5998 125.875 18.1998L126.625 17.4498C124.659 17.9498 122.542 18.5832 120.275 19.3498C118.375 19.9832 116.309 20.5998 114.075 21.1998C113.842 21.2998 113.575 21.3498 113.275 21.3498C112.975 21.3498 112.709 21.2998 112.475 21.1998C112.242 21.0998 112.042 20.9498 111.875 20.7498C111.742 20.5498 111.725 20.2998 111.825 19.9998C112.225 19.1332 112.809 18.3832 113.575 17.7498L115.825 15.9498C116.692 15.3498 117.359 14.8998 117.825 14.5998C118.492 14.1665 119.209 13.7998 119.975 13.4998C120.742 13.1998 121.509 12.9998 122.275 12.8998C123.075 12.7998 123.875 12.8498 124.675 13.0498C125.309 13.1832 125.859 13.5165 126.325 14.0498C126.792 14.5498 126.992 15.1498 126.925 15.8498H127.625C127.792 15.8498 127.942 15.8665 128.075 15.8998C128.342 15.9665 128.525 16.0165 128.625 16.0498C128.759 16.0832 128.892 16.1665 129.025 16.2998C129.125 16.3998 129.142 16.5332 129.075 16.6998C128.575 17.3665 128.259 17.7665 128.125 17.8998C127.725 18.3665 127.459 18.6665 127.325 18.7998C127.159 18.9665 126.942 19.2165 126.675 19.5498C126.542 19.7165 126.309 19.9665 125.975 20.2998C125.442 20.9998 125.042 21.5665 124.775 21.9998C124.475 22.4665 124.359 22.8498 124.425 23.1498C124.425 23.1832 124.459 23.2332 124.525 23.2998C124.892 23.4998 125.675 23.4998 126.875 23.2998C127.942 23.1332 129.342 22.7998 131.075 22.2998C132.509 21.8998 134.192 21.3665 136.125 20.6998C137.425 20.2665 139.025 19.6832 140.925 18.9498C141.259 18.9165 141.575 18.8165 141.875 18.6498L142.675 18.3498L143.425 18.0498C143.592 17.9832 143.775 17.9998 143.975 18.0998C144.209 18.1998 144.342 18.3498 144.375 18.5498ZM125.425 16.2998L125.225 16.2498C125.425 15.6498 125.392 15.1998 125.125 14.8998C124.859 14.5998 124.509 14.3998 124.075 14.2998C123.575 14.1998 123.075 14.1665 122.575 14.1998C122.009 14.2665 121.559 14.3665 121.225 14.4998C119.725 15.0332 118.325 15.7832 117.025 16.7498C115.725 17.7165 114.525 18.7665 113.425 19.8998C115.359 19.4665 117.359 18.8832 119.425 18.1498C121.192 17.5165 123.192 16.8998 125.425 16.2998Z" fill="#FFFCF8"/>
<path d="M154.007 13.4498L153.807 13.5998C153.474 13.5998 153.224 13.5832 153.057 13.5498C152.79 13.5165 152.59 13.4165 152.457 13.2498C152.024 12.9498 151.807 12.5165 151.807 11.9498C151.807 11.3832 151.957 10.8498 152.257 10.3498C152.524 9.94984 152.84 9.86651 153.207 10.0998C153.374 10.1998 153.474 10.3498 153.507 10.5498C153.574 10.7498 153.557 10.9165 153.457 11.0498C153.324 11.2498 153.24 11.4498 153.207 11.6498C153.174 11.8832 153.174 12.0332 153.207 12.0998C153.374 12.1998 153.64 12.2332 154.007 12.1998C154.64 12.1332 155.09 12.0665 155.357 11.9998C155.557 11.9665 156.074 11.8332 156.907 11.5998C157.374 11.4665 157.907 11.2832 158.507 11.0498C158.674 10.9832 158.857 10.9832 159.057 11.0498C159.257 11.1165 159.39 11.2498 159.457 11.4498C159.524 11.6165 159.507 11.7832 159.407 11.9498C159.307 12.1498 159.19 12.2665 159.057 12.2998C158.957 12.3332 158.79 12.3998 158.557 12.4998C158.357 12.5665 158.207 12.6165 158.107 12.6498C157.807 12.7832 157.39 12.8998 156.857 12.9998C156.557 13.0665 156.074 13.1665 155.407 13.2998C154.907 13.3998 154.44 13.4498 154.007 13.4498ZM178.657 18.6498C178.724 18.8165 178.707 18.9998 178.607 19.1998C178.507 19.4332 178.357 19.5665 178.157 19.5998L177.357 19.9498C176.624 20.2165 175.907 20.4665 175.207 20.6998L172.057 21.7498C171.657 21.8832 171.024 22.0998 170.157 22.3998C169.324 22.6665 168.674 22.8832 168.207 23.0498C167.674 23.2165 166.84 23.4665 165.707 23.7998C164.24 24.2332 163.44 24.4665 163.307 24.4998C163.174 24.5332 162.857 24.6165 162.357 24.7498C161.857 24.8832 161.49 24.9832 161.257 25.0498L160.057 25.3498C157.924 25.8498 156.374 26.1832 155.407 26.3498C154.207 26.5498 153.257 26.6498 152.557 26.6498C151.857 26.6498 151.374 26.5832 151.107 26.4498C150.774 26.2832 150.54 26.1165 150.407 25.9498C150.374 25.8498 150.324 25.6998 150.257 25.4998C150.19 25.2665 150.257 24.9165 150.457 24.4498C150.657 23.9165 151.024 23.2498 151.557 22.4498C152.057 21.6832 152.907 20.5665 154.107 19.0998C152.074 19.6998 150.074 20.4498 148.107 21.3498C146.074 22.2832 144.074 23.0165 142.107 23.5498L140.757 23.7998C140.29 23.8998 139.924 23.7165 139.657 23.2498C139.457 22.8498 139.474 22.4832 139.707 22.1498C139.94 21.7832 140.19 21.4832 140.457 21.2498C141.524 20.0832 142.524 19.0498 143.457 18.1498C144.457 17.1832 145.59 16.2832 146.857 15.4498C147.024 15.2832 147.19 15.1832 147.357 15.1498C147.557 15.0832 147.74 15.0832 147.907 15.1498C148.074 15.1832 148.174 15.2832 148.207 15.4498C148.274 15.6165 148.257 15.8165 148.157 16.0498C146.89 16.9498 145.69 17.8998 144.557 18.8998C143.524 19.7998 142.457 20.8832 141.357 22.1498C142.39 21.8498 143.457 21.4998 144.557 21.0998C145.957 20.5665 147.007 20.1498 147.707 19.8498C148.407 19.5498 149.457 19.1332 150.857 18.5998C151.99 18.1665 153.074 17.8332 154.107 17.5998C154.507 17.4665 154.957 17.4165 155.457 17.4498C155.957 17.4832 156.207 17.7832 156.207 18.3498C156.207 18.5165 156.107 18.7165 155.907 18.9498C155.707 19.2165 155.59 19.3498 155.557 19.3498L154.207 20.9998C153.774 21.5332 153.374 22.0832 153.007 22.6498C152.874 22.8498 152.69 23.1332 152.457 23.4998C152.257 23.8332 152.14 24.0332 152.107 24.0998C151.874 24.4998 151.724 24.7998 151.657 24.9998C151.99 25.1332 152.707 25.1332 153.807 24.9998C155.174 24.7998 156.474 24.5832 157.707 24.3498C158.84 24.1165 160.457 23.7332 162.557 23.1998C164.29 22.7332 165.99 22.2332 167.657 21.6998L168.707 21.3498C169.407 21.1165 170.257 20.8165 171.257 20.4498C171.59 20.3165 172.124 20.1332 172.857 19.8998C173.59 19.6665 174.14 19.4832 174.507 19.3498C175.907 18.8498 176.924 18.4832 177.557 18.2498C177.79 18.1832 177.99 18.1998 178.157 18.2998C178.324 18.3998 178.44 18.5332 178.507 18.6998L178.657 18.6498Z" fill="#FFFCF8"/>
<path d="M209.08 18.4498L208.93 18.6498C208.996 18.8832 208.98 19.0832 208.88 19.2498C208.78 19.4498 208.663 19.5665 208.53 19.5998C208.463 19.5998 208.013 19.7498 207.18 20.0498C205.48 20.6498 204.38 21.0332 203.88 21.1998C201.38 22.0332 199.846 22.5498 199.28 22.7498C197.38 23.4165 195.613 24.0165 193.98 24.5498C193.813 24.6165 192.913 24.8832 191.28 25.3498C190.78 25.5165 189.996 25.7332 188.93 25.9998C188.663 26.0665 188.296 26.1665 187.83 26.2998C187.363 26.3998 187.03 26.4665 186.83 26.4998C185.996 26.6332 185.296 26.7165 184.73 26.7498C183.996 26.7832 183.346 26.5332 182.78 25.9998C182.446 25.6665 182.33 25.2665 182.43 24.7998C182.496 24.4332 182.63 24.0332 182.83 23.5998C183.163 22.9332 183.563 22.3332 184.03 21.7998L185.38 20.1498C184.713 20.3498 183.846 20.5665 182.78 20.7998C181.88 20.9998 181.03 21.1498 180.23 21.2498C179.03 21.4165 178.33 21.4998 178.13 21.4998C177.53 21.5665 177.08 21.6165 176.78 21.6498C176.18 22.3498 175.663 22.9665 175.23 23.4998C174.83 23.9998 174.613 24.2665 174.58 24.2998C174.413 24.4665 174.23 24.5498 174.03 24.5498C173.896 24.5498 173.746 24.4998 173.58 24.3998C173.213 24.0998 173.163 23.7665 173.43 23.3998L173.53 23.2998C173.596 23.1998 173.696 23.0665 173.83 22.8998C173.963 22.7332 174.096 22.5665 174.23 22.3998C174.73 21.7998 175.33 21.0998 176.03 20.2998C176.23 20.0665 176.58 19.6665 177.08 19.0998C177.546 18.5332 177.913 18.0998 178.18 17.7998C178.846 17.0332 179.496 16.3665 180.13 15.7998C180.496 15.4998 180.83 15.5165 181.13 15.8498C181.43 16.2165 181.413 16.5498 181.08 16.8498C180.68 17.2165 180.23 17.6665 179.73 18.1998C178.996 18.9998 178.463 19.5998 178.13 19.9998C178.363 19.9665 179.113 19.8832 180.38 19.7498C181.28 19.6498 182.163 19.4998 183.03 19.2998C183.763 19.1332 184.646 18.8998 185.68 18.5998C186.513 18.3665 187.246 18.0332 187.88 17.5998L188.48 16.9998C188.646 16.8332 188.896 16.5498 189.23 16.1498C189.563 15.7498 189.813 15.4665 189.98 15.2998C190.146 15.1332 190.313 15.0498 190.48 15.0498C190.713 15.0498 190.896 15.1165 191.03 15.2498C191.196 15.4165 191.28 15.5832 191.28 15.7498C191.28 15.9498 191.213 16.1165 191.08 16.2498C189.58 17.8165 188.23 19.2665 187.03 20.5998C185.863 21.9332 184.796 23.4498 183.83 25.1498C185.13 25.2498 186.446 25.1165 187.78 24.7498C189.513 24.2832 190.796 23.9332 191.63 23.6998C191.93 23.6665 192.263 23.5832 192.63 23.4498C192.83 23.3832 193.163 23.2832 193.63 23.1498C195.73 22.5165 197.98 21.7665 200.38 20.8998C203.013 19.9665 205.596 19.0165 208.13 18.0498C208.296 17.9832 208.48 17.9998 208.68 18.0998C208.913 18.1998 209.046 18.3165 209.08 18.4498Z" fill="#FFFCF8"/>
<path d="M211.103 19.9998H211.153C211.42 19.7332 211.703 19.6332 212.003 19.6998C212.303 19.7665 212.586 19.7665 212.853 19.6998C214.553 19.7332 216.22 19.7332 217.853 19.6998C219.486 19.6665 221.153 19.7165 222.853 19.8498C223.086 20.0165 223.186 20.2665 223.153 20.5998L223.003 21.6498C221.303 21.4498 219.52 21.3832 217.653 21.4498C215.886 21.5165 214.103 21.5165 212.303 21.4498C212.036 21.4498 211.736 21.3665 211.403 21.1998C211.103 21.0665 211.003 20.6665 211.103 19.9998Z" fill="#FFFCF8"/>
<path d="M258.763 18.5498L258.613 18.6998C258.68 18.8665 258.663 19.0332 258.563 19.1998C258.463 19.3998 258.347 19.5165 258.213 19.5498C258.18 19.5498 257.913 19.6498 257.413 19.8498C257.247 19.9165 256.93 20.0498 256.463 20.2498C255.997 20.4165 255.613 20.5498 255.313 20.6498C254.713 20.8832 253.663 21.2498 252.163 21.7498C251.763 21.8832 251.147 22.0832 250.313 22.3498C249.48 22.6165 248.83 22.8332 248.363 22.9998L246.413 23.5998C244.88 23.9665 243.613 24.2165 242.613 24.3498C241.68 24.4832 240.73 24.5498 239.763 24.5498H239.313C239.113 24.5498 238.963 24.5332 238.863 24.4998C238.63 24.9665 238.28 25.4665 237.813 25.9998C237.347 26.5665 236.83 27.0665 236.263 27.4998C235.63 27.9665 235.03 28.2998 234.463 28.4998C233.897 28.6998 233.33 28.6665 232.763 28.3998C232.43 28.1332 232.247 27.8665 232.213 27.5998C232.147 27.2665 232.163 26.9498 232.263 26.6498C232.363 26.3165 232.513 25.9998 232.713 25.6998C232.98 25.2998 233.18 25.0165 233.313 24.8498C233.647 24.4832 234.047 24.1665 234.513 23.8998C234.98 23.6332 235.43 23.4332 235.863 23.2998C236.263 23.1998 236.78 23.0832 237.413 22.9498C238.08 22.7832 238.563 22.3998 238.863 21.7998C238.963 21.5998 239.113 21.3165 239.313 20.9498C239.513 20.5832 239.647 20.3165 239.713 20.1498C237.547 20.4165 235.63 21.1832 233.963 22.4498C232.33 23.6832 230.863 25.1665 229.563 26.8998C228.797 27.8332 228.097 28.8332 227.463 29.8998C227.03 30.5998 226.413 31.6498 225.613 33.0498C225.413 33.3165 225.263 33.4998 225.163 33.5998C224.963 33.7998 224.813 33.9332 224.713 33.9998C224.613 34.0665 224.43 34.1332 224.163 34.1998C223.797 34.2665 223.597 34.1165 223.563 33.7498C223.53 33.5165 223.513 33.2665 223.513 32.9998C223.98 29.4665 224.88 26.0165 226.213 22.6498C227.547 19.3165 229.43 16.3165 231.863 13.6498C233.43 11.8498 235.163 10.0498 237.063 8.24984C238.863 6.54984 240.813 4.99984 242.913 3.59984C244.28 2.79984 245.58 2.11651 246.813 1.54984C248.213 0.94984 249.647 0.716507 251.113 0.84984C251.747 0.883173 252.313 1.13317 252.813 1.59984C253.313 2.03317 253.53 2.58317 253.463 3.24984C253.43 4.01651 253.18 4.73317 252.713 5.39984C252.247 6.06651 251.747 6.66651 251.213 7.19984C250.313 8.06651 249.28 8.86651 248.113 9.59984C246.647 10.5332 245.547 11.2165 244.813 11.6498C242.513 12.9832 239.913 14.3998 237.013 15.8998C234.413 17.2332 231.763 18.5332 229.063 19.7998C228.23 21.4998 227.48 23.2498 226.813 25.0498C226.147 26.8498 225.647 28.6998 225.313 30.5998C226.013 29.4665 226.763 28.3165 227.563 27.1498C228.463 25.8832 229.33 24.7998 230.163 23.8998C231.063 22.9332 232.097 22.0332 233.263 21.1998C234.397 20.3665 235.63 19.7332 236.963 19.2998C237.563 19.0998 238.23 18.9498 238.963 18.8498C239.697 18.7498 240.313 18.9665 240.813 19.4998C241.08 20.1665 241.063 20.7832 240.763 21.3498C240.563 21.7498 240.263 22.3165 239.863 23.0498C240.83 23.0498 241.93 22.9498 243.163 22.7498C244.397 22.5498 246.047 22.1498 248.113 21.5498C249.613 20.9832 251.163 20.4332 252.763 19.8998C254.363 19.3665 256.063 18.7665 257.863 18.0998C258.297 17.9665 258.597 18.1165 258.763 18.5498ZM238.713 8.79984L238.563 8.69984C237.13 9.99984 235.663 11.4498 234.163 13.0498C232.83 14.4498 231.513 16.0498 230.213 17.8498C231.247 17.3165 232.83 16.5165 234.963 15.4498C237.097 14.3832 238.68 13.5665 239.713 12.9998C241.78 11.8665 243.313 10.9998 244.313 10.3998C246.047 9.36651 247.53 8.39984 248.763 7.49984C248.997 7.33317 249.347 7.04984 249.813 6.64984C250.18 6.34984 250.513 6.01651 250.813 5.64984C251.08 5.31651 251.33 4.93317 251.563 4.49984C251.763 4.09984 251.863 3.66651 251.863 3.19984C251.697 2.93317 251.497 2.74984 251.263 2.64984C251.03 2.54984 250.78 2.49984 250.513 2.49984C250.18 2.49984 249.93 2.51651 249.763 2.54984L249.013 2.69984C246.98 3.16651 245.147 3.96651 243.513 5.09984C241.98 6.16651 240.38 7.39984 238.713 8.79984ZM233.213 27.1998L233.113 27.2998C233.18 27.4665 233.28 27.5498 233.413 27.5498C233.547 27.5498 233.713 27.4998 233.913 27.3998C234.08 27.3332 234.297 27.1832 234.563 26.9498C234.897 26.6832 235.147 26.4665 235.313 26.2998C235.847 25.7665 236.447 25.1165 237.113 24.3498C236.313 24.5165 235.613 24.7165 235.013 24.9498C234.513 25.1832 234.047 25.4832 233.613 25.8498C233.213 26.2165 233.08 26.6665 233.213 27.1998Z" fill="#FFFCF8"/>
<path d="M283.062 18.5498V18.8498C283.129 19.0165 283.112 19.1832 283.012 19.3498C282.912 19.5498 282.796 19.6665 282.663 19.6998C282.596 19.7332 282.496 19.7665 282.362 19.7998C282.262 19.8332 282.096 19.8998 281.862 19.9998C281.629 20.0665 281.429 20.1332 281.262 20.1998C280.562 20.4665 279.712 20.7665 278.712 21.0998C277.712 21.4332 276.613 21.7832 275.413 22.1498L271.812 23.1998C270.612 23.5332 269.462 23.8332 268.362 24.0998C267.396 24.3332 266.429 24.4998 265.462 24.5998C265.062 24.6665 264.112 24.7832 262.612 24.9498C262.079 25.0165 261.279 25.0832 260.212 25.1498C259.346 25.1832 258.546 25.1332 257.812 24.9998C257.079 24.8665 256.429 24.5665 255.862 24.0998C255.496 23.7665 255.296 23.3165 255.262 22.7498C255.229 22.1832 255.329 21.6832 255.562 21.2498C256.129 19.9832 256.913 18.8998 257.913 17.9998C258.946 17.0665 259.979 16.1832 261.012 15.3498C261.912 14.6832 262.946 14.0332 264.112 13.3998C265.179 12.7998 266.363 12.5332 267.663 12.5998C268.096 12.6332 268.462 12.7832 268.762 13.0498C269.029 13.2832 269.246 13.5832 269.413 13.9498C269.579 14.3165 269.629 14.6998 269.562 15.0998C269.529 15.4998 269.379 15.8498 269.112 16.1498C268.746 16.2498 268.496 16.2332 268.362 16.0998C268.196 15.9665 268.096 15.7665 268.062 15.4998C268.029 15.2665 268.029 14.9998 268.062 14.6998C268.129 14.2998 268.163 14.0498 268.163 13.9498C267.729 13.7832 267.279 13.7332 266.812 13.7998C266.379 13.8332 265.962 13.9332 265.562 14.0998C265.296 14.1998 264.896 14.3832 264.362 14.6498C263.929 14.8498 263.562 15.0665 263.262 15.2998C262.129 16.0332 261.129 16.7998 260.262 17.5998C259.296 18.4665 258.446 19.4165 257.712 20.4498C257.246 21.0832 257.012 21.5665 257.012 21.8998C257.012 22.2665 257.112 22.5498 257.312 22.7498C257.513 22.9498 257.729 23.0998 257.962 23.1998L258.312 23.2998C259.179 23.4998 260.263 23.5498 261.562 23.4498C262.862 23.3498 264.212 23.1998 265.612 22.9998C267.046 22.7998 268.379 22.5498 269.612 22.2498C271.046 21.9165 272.046 21.6498 272.612 21.4498C273.046 21.3165 273.512 21.1665 274.012 20.9998C274.546 20.7998 275.129 20.5998 275.762 20.3998C276.396 20.1665 276.896 19.9832 277.262 19.8498C278.862 19.2832 280.512 18.6832 282.212 18.0498C282.446 17.9832 282.629 17.9998 282.762 18.0998C282.929 18.1998 283.029 18.3498 283.062 18.5498Z" fill="#FFFCF8"/>
<path d="M321.728 18.4998L321.628 18.5998C321.794 19.0665 321.644 19.3665 321.178 19.4998L319.928 19.9498C319.094 20.2498 317.994 20.6498 316.628 21.1498C314.928 21.7832 313.411 22.3332 312.078 22.7998C310.678 23.2998 308.961 23.8665 306.928 24.4998C306.261 24.6998 305.778 24.8498 305.478 24.9498L304.128 25.3998C302.561 25.9332 301.328 26.3165 300.428 26.5498C299.328 26.8498 298.378 26.9998 297.578 26.9998C296.578 26.9998 295.878 26.6998 295.478 26.0998C295.011 25.5332 294.978 24.8498 295.378 24.0498C295.778 23.2498 296.328 22.4498 297.028 21.6498C297.661 20.9498 298.394 20.1998 299.228 19.3998C299.994 18.6998 300.528 18.1665 300.828 17.7998C300.661 17.7998 300.178 17.9332 299.378 18.1998C298.511 18.4998 297.678 18.7998 296.878 19.0998C295.978 19.4332 295.128 19.7832 294.328 20.1498C293.528 20.5165 292.978 20.7665 292.678 20.8998C292.244 21.1332 291.628 21.4832 290.828 21.9498C290.228 22.3165 289.578 22.6165 288.878 22.8498C288.544 22.9832 288.228 22.9332 287.928 22.6998C287.628 22.4665 287.561 22.1665 287.728 21.7998C287.861 21.2332 288.094 20.6498 288.428 20.0498L289.328 18.3498C288.594 18.5498 287.911 18.7998 287.278 19.0998C286.844 19.2998 286.194 19.6332 285.328 20.0998C284.461 20.5665 283.811 20.8998 283.378 21.0998C282.844 21.3665 282.178 21.6332 281.378 21.8998C281.111 21.8998 280.911 21.8498 280.778 21.7498C280.644 21.6498 280.544 21.4998 280.478 21.2998C280.411 21.0998 280.411 20.8998 280.478 20.6998C280.544 20.4665 280.644 20.2832 280.778 20.1498C281.344 19.2498 281.978 18.3165 282.678 17.3498C283.344 16.4165 284.094 15.5832 284.928 14.8498C285.028 14.6832 285.161 14.5998 285.328 14.5998C285.494 14.5998 285.644 14.6498 285.778 14.7498C285.911 14.8498 286.028 14.9665 286.128 15.0998C286.228 15.2665 286.211 15.4332 286.078 15.5998L284.278 17.6998C283.778 18.2998 283.211 19.0498 282.578 19.9498C283.978 19.2165 285.011 18.6665 285.678 18.2998C286.678 17.7665 287.761 17.3665 288.928 17.0998C289.328 16.9665 289.728 16.9665 290.128 17.0998C290.494 17.2332 290.761 17.5332 290.928 17.9998C290.828 18.5665 290.628 19.0998 290.328 19.5998C289.928 20.2665 289.644 20.7832 289.478 21.1498C291.678 19.8832 293.861 18.7998 296.028 17.8998C296.094 17.8665 296.194 17.8332 296.328 17.7998C296.461 17.7332 296.611 17.6665 296.778 17.5998C296.978 17.4998 297.178 17.4165 297.378 17.3498C298.011 17.1165 298.694 16.9165 299.428 16.7498C300.128 16.5832 300.778 16.5332 301.378 16.5998C302.011 16.6665 302.344 16.9665 302.378 17.4998C302.411 17.7332 302.311 18.0498 302.078 18.4498C301.844 18.8498 301.511 19.2832 301.078 19.7498C300.811 20.0498 300.328 20.5498 299.628 21.2498L297.978 22.8998C297.511 23.4332 297.161 23.9332 296.928 24.3998C296.694 24.8665 296.644 25.1665 296.778 25.2998C296.978 25.5665 297.411 25.6665 298.078 25.5998C298.744 25.5332 299.494 25.3832 300.328 25.1498C300.894 24.9832 301.778 24.6998 302.978 24.2998C303.178 24.2332 303.978 23.9498 305.378 23.4498C307.744 22.6832 310.128 21.8832 312.528 21.0498C313.461 20.7165 314.861 20.2165 316.728 19.5498C318.628 18.8832 319.978 18.3998 320.778 18.0998C320.944 18.0332 321.128 18.0498 321.328 18.1498C321.561 18.2498 321.694 18.3665 321.728 18.4998Z" fill="#FFFCF8"/>
<path d="M349.55 18.5498L349.35 19.0498C349.483 19.4832 349.333 19.7832 348.9 19.9498L346.7 20.7498C346.333 20.8832 345.816 21.0832 345.15 21.3498C344.65 21.5498 344.383 21.6498 344.35 21.6498V21.5998C342.15 22.3332 340.083 22.8498 338.15 23.1498C336.283 23.4498 334.666 23.5998 333.3 23.5998C332.066 23.5998 331.066 23.5332 330.3 23.3998C329.5 23.2665 328.783 23.1165 328.15 22.9498L327.8 23.1998C327 23.6332 325.766 24.2832 324.1 25.1498C322.866 25.7832 321.516 26.1332 320.05 26.1998C319.65 26.2665 319.283 26.1998 318.95 25.9998C318.483 25.7332 318.133 25.5498 317.9 25.4498C316.666 26.8165 315.55 28.2832 314.55 29.8498C313.883 30.8832 312.916 32.4332 311.65 34.4998C311.516 34.6332 311.416 34.7498 311.35 34.8498L311.05 35.2998C310.95 35.4665 310.833 35.5665 310.7 35.5998C310.533 35.6665 310.383 35.6665 310.25 35.5998C309.983 35.3998 309.85 35.1665 309.85 34.8998C309.85 34.6332 309.9 34.3832 310 34.1498C310.066 33.9832 310.2 33.7332 310.4 33.3998C310.6 33.0665 310.733 32.8332 310.8 32.6998C312.966 29.3998 315.166 26.1498 317.4 22.9498C319.566 19.8498 322 16.7498 324.7 13.6498C325.166 13.1832 325.6 12.6998 326 12.1998C326.4 11.6998 326.833 11.2165 327.3 10.7498C327.533 10.5832 327.733 10.4998 327.9 10.4998C328.166 10.4998 328.35 10.5165 328.45 10.5498C328.616 10.6165 328.7 10.7165 328.7 10.8498C328.7 11.0498 328.633 11.2332 328.5 11.3998C327.333 12.8332 326.233 14.1165 325.2 15.2498C324.166 16.3498 323.1 17.6832 322 19.2498C322.533 18.8498 323.283 18.3665 324.25 17.7998C325.516 17.0665 326.633 16.4832 327.6 16.0498C328.8 15.5165 329.983 15.1165 331.15 14.8498C332.316 14.5832 333.25 14.6332 333.95 14.9998C334.083 15.0998 334.183 15.2498 334.25 15.4498C334.316 15.7165 334.35 15.9332 334.35 16.0998C334.35 16.2665 334.316 16.5165 334.25 16.8498C333.783 17.7832 333.166 18.5832 332.4 19.2498C331.633 19.9165 330.766 20.6332 329.8 21.3998C330.566 21.5665 331.433 21.6665 332.4 21.6998C333.4 21.7665 334.55 21.7165 335.85 21.5498C337.15 21.3832 338.6 21.1332 340.2 20.7998C341.8 20.4665 343.55 19.9665 345.45 19.2998C345.516 19.2998 345.7 19.2498 346 19.1498C346.033 19.1165 346.35 18.9832 346.95 18.7498C347.416 18.5498 347.766 18.4165 348 18.3498C348.233 18.2832 348.45 18.1998 348.65 18.0998C349.116 17.9665 349.416 18.1165 349.55 18.5498ZM332.85 16.4998C330.916 16.6665 329.033 17.1498 327.2 17.9498C325.3 18.7498 323.6 19.8165 322.1 21.1498C323.066 21.1165 324.016 21.1165 324.95 21.1498C326.216 21.2165 327.166 21.2832 327.8 21.3498C328.433 20.8832 329.383 20.1498 330.65 19.1498C331.583 18.4165 332.316 17.5332 332.85 16.4998ZM319.15 24.7998L319 24.8998C320.233 24.9998 321.416 24.8165 322.55 24.3498C323.616 23.9165 324.7 23.3832 325.8 22.7498C325 22.6832 324.366 22.6498 323.9 22.6498C323.233 22.6498 322.6 22.6998 322 22.7998C321.4 22.8998 320.85 23.0998 320.35 23.3998C319.85 23.6998 319.45 24.1665 319.15 24.7998Z" fill="#FFFCF8"/>
<path d="M374.683 18.5498L374.283 18.5998C374.349 18.7665 374.333 18.9332 374.233 19.0998C374.133 19.2998 374.016 19.4165 373.883 19.4498C373.816 19.5165 373.366 19.6998 372.533 19.9998C371.666 20.2998 370.666 20.6498 369.533 21.0498C368.766 21.3165 367.649 21.7165 366.183 22.2498C365.083 22.6498 364.283 22.9498 363.783 23.1498C362.149 23.6165 361.133 23.8998 360.733 23.9998C359.499 24.2998 358.466 24.5332 357.633 24.6998C357.133 24.7998 356.349 24.9498 355.283 25.1498C354.583 25.2832 353.783 25.3498 352.883 25.3498C352.083 25.3498 351.283 25.2498 350.483 25.0498C349.649 24.8498 348.899 24.4832 348.233 23.9498C347.733 23.5498 347.433 23.0665 347.333 22.4998C347.233 21.9998 347.266 21.3998 347.433 20.6998C347.566 20.1332 347.799 19.5165 348.133 18.8498C348.366 18.3832 348.649 17.8832 348.983 17.3498C349.649 16.2832 350.483 15.3498 351.483 14.5498C352.483 13.7498 353.566 13.1498 354.733 12.7498C355.233 12.5832 355.783 12.5332 356.383 12.5998C357.016 12.6665 357.449 12.9665 357.683 13.4998C357.816 13.9998 357.766 14.4665 357.533 14.8998C357.299 15.3332 356.999 15.6998 356.633 15.9998C355.633 16.8665 354.483 17.5832 353.183 18.1498C352.083 18.6498 350.833 19.1165 349.433 19.5498C349.366 19.7165 349.266 19.9832 349.133 20.3498C348.999 20.7165 348.916 20.9498 348.883 21.0498C348.683 21.5832 348.766 22.0832 349.133 22.5498C349.766 23.1498 350.549 23.4998 351.483 23.5998C352.483 23.6998 353.349 23.7332 354.083 23.6998C356.383 23.4998 358.733 23.0665 361.133 22.3998C363.499 21.7332 365.783 20.9832 367.983 20.1498C368.783 19.8498 369.283 19.6665 369.483 19.5998L371.283 18.9998C371.483 18.9332 371.766 18.8332 372.133 18.6998C372.499 18.5665 372.749 18.4832 372.883 18.4498C373.383 18.2832 373.666 18.1832 373.733 18.1498C373.899 18.0832 374.083 18.0998 374.283 18.1998C374.516 18.2998 374.649 18.4165 374.683 18.5498ZM356.233 13.8498C354.966 13.9165 353.816 14.3165 352.783 15.0498C351.749 15.7832 350.849 16.6332 350.083 17.5998C351.183 17.2332 352.316 16.7498 353.483 16.1498C354.583 15.6165 355.499 14.8498 356.233 13.8498Z" fill="#FFFCF8"/>
<path d="M408.729 18.4498L408.429 18.6998C408.496 18.9332 408.479 19.1165 408.379 19.2498C408.279 19.4165 408.129 19.5165 407.929 19.5498L406.679 19.9998C405.813 20.2998 404.713 20.6998 403.379 21.1998C402.046 21.6998 400.496 22.2498 398.729 22.8498C396.963 23.4498 395.163 24.0498 393.329 24.6498C391.463 25.2498 389.446 25.8665 387.279 26.4998C385.779 26.9332 384.329 27.2998 382.929 27.5998C381.529 27.8998 380.546 28.0832 379.979 28.1498C379.246 28.2498 378.646 28.2998 378.179 28.2998C377.613 28.2998 377.229 28.2498 377.029 28.1498C376.863 28.0498 376.713 27.9165 376.579 27.7498C376.179 27.2832 376.029 26.7498 376.129 26.1498C376.229 25.6165 376.513 24.9998 376.979 24.2998C377.379 23.6998 377.929 23.0332 378.629 22.2998C379.496 21.3665 380.146 20.6832 380.579 20.2498C380.779 20.1165 380.946 19.9498 381.079 19.7498C380.713 19.8832 380.163 20.0498 379.429 20.2498C378.929 20.3832 378.429 20.4498 377.929 20.4498C377.663 20.4498 377.379 20.3998 377.079 20.2998C376.779 20.1998 376.579 19.9832 376.479 19.6498C376.413 19.4498 376.379 19.2665 376.379 19.0998C376.379 18.9665 376.413 18.7665 376.479 18.4998C376.246 18.5998 375.863 18.7498 375.329 18.9498L374.129 19.3998C373.663 19.5665 373.363 19.4498 373.229 19.0498C373.063 18.5832 373.179 18.2832 373.579 18.1498C373.713 18.0832 373.913 17.9998 374.179 17.8998C374.446 17.7665 374.646 17.6665 374.779 17.5998C375.313 17.3665 375.813 17.1832 376.279 17.0498C376.479 17.0165 376.729 16.9665 377.029 16.8998C377.329 16.8332 377.579 16.8332 377.779 16.8998C377.979 16.9665 378.129 17.0832 378.229 17.2498C378.329 17.4498 378.279 17.7665 378.079 18.1998C378.013 18.2998 377.963 18.4498 377.929 18.6498C377.896 18.7832 377.846 18.9498 377.779 19.1498C377.946 19.1832 378.246 19.1498 378.679 19.0498C379.146 18.9498 379.629 18.7998 380.129 18.5998C381.129 18.2332 381.713 18.0165 381.879 17.9498C382.679 17.6165 383.263 17.3665 383.629 17.1998C384.029 17.0665 384.346 17.1832 384.579 17.5498C384.713 17.9498 384.613 18.2498 384.279 18.4498V18.4998C384.046 18.8332 383.729 19.1998 383.329 19.5998C383.229 19.6998 382.996 19.9332 382.629 20.2998C382.263 20.6332 381.963 20.9165 381.729 21.1498C381.463 21.3832 380.996 21.8332 380.329 22.4998C379.763 23.0332 379.263 23.5832 378.829 24.1498C378.396 24.7165 378.046 25.2165 377.779 25.6498C377.513 26.1165 377.479 26.4498 377.679 26.6498C377.979 26.8498 378.913 26.7998 380.479 26.4998C382.079 26.1998 384.163 25.6998 386.729 24.9998C389.129 24.3665 392.213 23.4332 395.979 22.1998C399.313 21.1332 403.246 19.7498 407.779 18.0498C407.946 17.9832 408.129 17.9998 408.329 18.0998C408.563 18.1998 408.696 18.3165 408.729 18.4498Z" fill="#FFFCF8"/>
<path d="M438.663 18.5498L438.562 18.4498C438.596 18.4832 438.612 18.5832 438.612 18.7498C438.546 19.0165 438.396 19.1998 438.163 19.2998C438.062 19.2998 437.712 19.4165 437.112 19.6498C436.446 19.8832 435.596 20.1832 434.562 20.5498C433.729 20.8498 432.629 21.2498 431.262 21.7498C430.196 22.1498 428.796 22.6165 427.062 23.1498C425.796 23.5498 424.396 23.9165 422.862 24.2498C421.496 24.5498 420.346 24.6998 419.413 24.6998C418.879 24.6998 418.412 24.6165 418.012 24.4498C417.479 24.1832 417.196 23.7832 417.163 23.2498C417.129 22.8498 417.229 22.3832 417.462 21.8498C417.729 21.2498 418.046 20.6998 418.413 20.1998L419.312 19.0998C419.479 18.8998 419.763 18.5998 420.163 18.1998L420.913 17.4498C418.946 17.9498 416.829 18.5832 414.562 19.3498C412.663 19.9832 410.596 20.5998 408.362 21.1998C408.129 21.2998 407.862 21.3498 407.562 21.3498C407.263 21.3498 406.996 21.2998 406.762 21.1998C406.529 21.0998 406.329 20.9498 406.163 20.7498C406.029 20.5498 406.012 20.2998 406.112 19.9998C406.512 19.1332 407.096 18.3832 407.862 17.7498L410.112 15.9498C410.979 15.3498 411.646 14.8998 412.112 14.5998C412.779 14.1665 413.496 13.7998 414.262 13.4998C415.029 13.1998 415.796 12.9998 416.562 12.8998C417.362 12.7998 418.163 12.8498 418.962 13.0498C419.596 13.1832 420.146 13.5165 420.612 14.0498C421.079 14.5498 421.279 15.1498 421.212 15.8498H421.913C422.079 15.8498 422.229 15.8665 422.362 15.8998C422.629 15.9665 422.812 16.0165 422.913 16.0498C423.046 16.0832 423.179 16.1665 423.312 16.2998C423.413 16.3998 423.429 16.5332 423.362 16.6998C422.862 17.3665 422.546 17.7665 422.413 17.8998C422.013 18.3665 421.746 18.6665 421.612 18.7998C421.446 18.9665 421.229 19.2165 420.962 19.5498C420.829 19.7165 420.596 19.9665 420.262 20.2998C419.729 20.9998 419.329 21.5665 419.062 21.9998C418.763 22.4665 418.646 22.8498 418.712 23.1498C418.712 23.1832 418.746 23.2332 418.812 23.2998C419.179 23.4998 419.962 23.4998 421.163 23.2998C422.229 23.1332 423.629 22.7998 425.362 22.2998C426.796 21.8998 428.479 21.3665 430.413 20.6998C431.712 20.2665 433.312 19.6832 435.212 18.9498C435.546 18.9165 435.863 18.8165 436.163 18.6498L436.962 18.3498L437.712 18.0498C437.879 17.9832 438.062 17.9998 438.262 18.0998C438.496 18.1998 438.629 18.3498 438.663 18.5498ZM419.712 16.2998L419.512 16.2498C419.712 15.6498 419.679 15.1998 419.413 14.8998C419.146 14.5998 418.796 14.3998 418.362 14.2998C417.862 14.1998 417.362 14.1665 416.862 14.1998C416.296 14.2665 415.846 14.3665 415.512 14.4998C414.012 15.0332 412.612 15.7832 411.312 16.7498C410.013 17.7165 408.812 18.7665 407.712 19.8998C409.646 19.4665 411.646 18.8832 413.712 18.1498C415.479 17.5165 417.479 16.8998 419.712 16.2998Z" fill="#FFFCF8"/>
</svg>
