<svg width="1538" height="394" viewBox="0 0 1538 394" fill="none" xmlns="http://www.w3.org/2000/svg">
<g opacity="0.2">
<path d="M145.239 172.655C146.103 172.655 146.103 175.249 145.239 175.249C138.325 175.249 129.251 174.816 119.745 174.816C109.591 174.816 100.733 175.249 93.8194 175.249C92.9552 175.249 92.9552 172.655 93.8194 172.655C110.023 172.655 112.4 170.277 112.4 157.74V58.5234C112.4 45.1217 112.184 45.1217 95.5477 45.1217H51.2577C33.7577 45.1217 33.3256 45.554 33.3256 58.5234V157.74C33.3256 170.277 35.9182 172.655 52.1219 172.655C52.77 172.655 52.77 175.249 52.1219 175.249C44.9922 175.249 36.3503 174.816 25.9799 174.816C16.4738 174.816 7.39968 175.249 0.48611 175.249C-0.162037 175.249 -0.162037 172.655 0.48611 172.655C16.4737 172.655 19.4984 170.277 19.4984 157.74V60.2527C19.4984 47.9317 16.6898 42.7439 0.70216 42.7439C0.054012 42.7439 0.054012 40.1501 0.70216 40.1501C8.04783 40.1501 40.4552 40.7985 73.7268 40.7985C108.943 40.7985 141.782 40.1501 145.239 40.1501C146.103 40.1501 146.103 42.7439 145.239 42.7439C129.251 42.7439 126.443 47.9317 126.443 60.2527V157.74C126.443 170.277 129.251 172.655 145.239 172.655Z" fill="white"/>
<path d="M255.897 143.041C256.113 142.393 258.489 142.609 258.489 143.473C257.409 151.039 256.545 162.928 256.545 172.006C256.545 174.384 255.681 175.249 253.304 175.249H162.78C161.915 175.249 161.915 172.655 162.78 172.655C178.551 172.655 181.144 170.277 181.144 157.74V57.6588C181.144 45.3378 178.551 42.7439 162.78 42.7439C161.915 42.7439 161.915 40.1501 162.78 40.1501H249.415C250.928 40.1501 251.36 40.7985 251.36 42.0955L252.008 68.899C252.008 69.5475 249.415 69.5475 249.415 68.899C248.335 53.5518 239.477 44.6894 225.65 44.6894H212.471C197.996 44.6894 195.187 47.2833 195.187 58.7396V102.836H221.545C235.372 102.836 240.773 98.2964 240.773 87.4886C240.773 86.8401 243.366 86.8401 243.366 87.4886C243.366 96.1349 243.15 99.8095 243.15 104.997C243.15 111.698 243.582 117.751 243.582 124.884C243.582 125.748 240.989 125.748 240.989 124.884C240.989 112.347 235.372 107.159 220.897 107.159H195.187V156.875C195.187 168.115 197.996 170.709 212.039 170.709H229.323C242.934 170.709 252.872 160.118 255.897 143.041Z" fill="white"/>
<path d="M310.797 156.875C310.797 169.845 314.254 172.655 336.507 172.655C337.371 172.655 337.371 175.249 336.507 175.249C327.217 175.249 316.63 174.816 303.883 174.816C294.377 174.816 285.519 175.249 278.389 175.249C277.741 175.249 277.741 172.655 278.389 172.655C294.161 172.655 296.97 170.277 296.97 157.74V57.6588C296.97 45.3378 294.161 42.7439 278.389 42.7439C277.741 42.7439 277.741 40.1501 278.389 40.1501C285.519 40.1501 294.161 40.7985 303.667 40.7985C311.013 40.7985 322.68 39.5016 333.914 39.5016C358.328 39.5016 377.34 49.8771 377.556 74.9514C377.772 105.213 351.846 118.615 330.025 118.615C326.352 118.615 322.68 118.399 319.439 117.534C318.359 117.318 319.007 114.508 319.871 114.724C322.464 115.373 325.272 115.589 327.649 115.589C345.365 115.589 361.568 104.133 361.568 79.2746C361.568 55.9295 347.093 42.7439 328.513 42.7439C314.254 42.7439 310.797 43.6086 310.797 58.0911V156.875Z" fill="white"/>
<path d="M458.352 99.1611C481.685 100.89 496.376 115.805 496.376 135.476C496.376 158.821 477.796 176.113 453.383 176.113C444.308 176.113 431.346 174.816 421.623 174.816C412.117 174.816 403.043 175.249 396.13 175.249C395.265 175.249 395.265 172.655 396.13 172.655C411.685 172.655 414.71 170.277 414.71 157.74V57.6588C414.71 45.3378 411.901 42.7439 396.346 42.7439C395.481 42.7439 395.481 40.1501 396.346 40.1501C403.259 40.1501 412.117 40.7985 421.623 40.7985C429.185 40.7985 439.987 39.5016 447.117 39.5016C472.611 39.5016 483.197 52.0387 483.197 68.0344C483.197 82.3008 473.259 93.3248 458.352 99.1611ZM442.364 42.7439C432.21 42.7439 428.753 43.8247 428.753 58.0911V99.1611C434.37 99.3772 438.043 99.3772 438.475 99.3772C460.728 99.3772 469.154 86.4078 469.154 69.7636C469.154 54.6326 461.808 42.7439 442.364 42.7439ZM450.142 172.222C471.747 172.222 481.253 160.55 481.253 140.663C481.253 119.264 468.074 104.133 445.173 103.917C439.988 103.7 434.37 103.917 428.753 104.133V157.74C428.753 168.115 431.994 172.222 450.142 172.222Z" fill="white"/>
<path d="M566.726 98.9449C595.46 98.9449 616.849 107.591 616.849 134.611C616.849 159.253 599.133 176.113 573.207 176.113C566.078 176.113 551.602 174.816 542.096 174.816C532.59 174.816 523.516 175.249 516.602 175.249C515.738 175.249 515.738 172.655 516.602 172.655C532.374 172.655 535.182 170.277 535.182 157.74V57.6588C535.182 45.3378 532.59 42.7439 516.818 42.7439C515.954 42.7439 515.954 40.1501 516.818 40.1501C523.732 40.1501 532.158 40.7985 541.664 40.7985C552.466 40.7985 561.324 40.1501 568.022 40.1501C568.886 40.1501 568.886 42.7439 568.022 42.7439C552.034 42.7439 549.226 45.7701 549.226 58.0911V99.8095C555.275 99.3772 561.108 98.9449 566.726 98.9449ZM680.584 172.655C681.448 172.655 681.448 175.249 680.584 175.249C673.67 175.249 665.244 174.816 654.874 174.816C645.368 174.816 636.294 175.249 629.38 175.249C628.516 175.249 628.516 172.655 629.38 172.655C645.152 172.655 647.96 170.277 647.96 157.74V57.6588C647.96 45.3378 645.152 42.7439 629.38 42.7439C628.516 42.7439 628.516 40.1501 629.38 40.1501C636.294 40.1501 645.368 40.7985 654.874 40.7985C665.244 40.7985 673.886 40.1501 680.584 40.1501C681.448 40.1501 681.448 42.7439 680.584 42.7439C664.812 42.7439 662.219 45.7701 662.219 58.0911V157.74C662.219 170.277 664.596 172.655 680.584 172.655ZM568.886 172.222C592.219 172.222 601.726 161.631 601.726 140.447C601.726 112.563 585.954 103.268 561.757 103.268C557.652 103.268 553.547 103.484 549.226 104.133V157.74C549.226 166.818 552.034 172.222 568.886 172.222Z" fill="white"/>
<path d="M771.667 30.8553C755.463 30.8553 746.389 19.1828 746.389 0.809365C746.389 -0.0552673 748.766 -0.271422 748.766 0.377055C748.766 10.9688 758.488 20.0474 771.667 20.0474C784.63 20.0474 794.352 10.9688 794.352 0.377055C794.352 -0.271422 796.729 -0.0552673 796.729 0.809365C796.729 19.1828 788.087 30.8553 771.667 30.8553ZM844.475 172.655C845.34 172.655 845.34 175.249 844.475 175.249C837.562 175.249 828.272 174.816 818.766 174.816C808.179 174.816 799.537 175.249 792.624 175.249C791.975 175.249 791.975 172.655 792.624 172.655C809.043 172.655 811.636 170.277 811.636 157.74V68.2505L731.266 154.281V157.74C731.266 170.277 733.858 172.655 750.278 172.655C751.142 172.655 751.142 175.249 750.278 175.249C743.148 175.249 734.506 174.816 724.136 174.816C714.414 174.816 705.34 175.249 698.426 175.249C697.778 175.249 697.778 172.655 698.426 172.655C714.414 172.655 717.439 170.277 717.439 157.74V57.6588C717.439 45.3378 714.63 42.7439 698.642 42.7439C697.994 42.7439 697.994 40.1501 698.642 40.1501C705.772 40.1501 714.414 40.7985 724.136 40.7985C734.506 40.7985 743.364 40.1501 750.278 40.1501C751.142 40.1501 751.142 42.7439 750.278 42.7439C734.074 42.7439 731.266 45.7701 731.266 58.0911V147.364L811.636 61.5496V58.0911C811.636 45.7701 809.043 42.7439 792.624 42.7439C791.975 42.7439 791.975 40.1501 792.624 40.1501C799.537 40.1501 808.179 40.7985 818.766 40.7985C828.272 40.7985 837.562 40.1501 844.475 40.1501C845.34 40.1501 845.34 42.7439 844.475 42.7439C828.488 42.7439 825.679 45.3378 825.679 57.6588V157.74C825.679 170.277 828.488 172.655 844.475 172.655Z" fill="white"/>
<path d="M412.492 394C406.226 394 401.905 391.622 401.905 386.002C401.905 380.598 406.01 379.085 410.98 379.085H415.517C440.578 379.085 446.196 329.369 446.196 293.487C446.196 269.926 443.603 258.902 421.782 258.902C421.134 258.902 421.134 256.308 421.782 256.308H534.56C535.424 256.308 535.424 258.902 534.56 258.902C518.572 258.902 515.547 261.495 515.547 273.816V373.897C515.547 386.435 518.572 388.812 534.56 388.812C535.424 388.812 535.424 391.406 534.56 391.406C527.646 391.406 518.572 390.974 509.066 390.974C498.695 390.974 490.054 391.406 482.924 391.406C482.276 391.406 482.276 388.812 482.924 388.812C499.128 388.812 501.72 386.435 501.72 373.897V274.681C501.72 261.279 501.504 261.279 484.868 261.279H464.56C452.677 261.279 451.597 263.225 451.597 274.249C451.597 318.777 450.949 394 412.492 394Z" fill="white"/>
<path d="M693.133 388.812C694.429 388.812 694.429 391.406 693.133 391.406C685.139 391.406 676.065 390.542 668.287 390.542C659.213 390.542 653.38 391.406 645.386 391.406C644.09 391.406 644.09 388.812 645.386 388.812C660.726 388.812 663.75 385.354 657.917 372.817L632.855 319.858H592.238L573.658 363.954C566.096 381.679 572.794 388.812 591.806 388.812C593.102 388.812 593.102 391.406 591.806 391.406C583.38 391.406 577.547 390.542 566.312 390.542C555.942 390.542 551.405 391.406 542.547 391.406C541.25 391.406 541.25 388.812 542.547 388.812C554.213 388.812 560.047 383.408 569.121 362.009L614.707 254.362C614.923 253.714 617.3 253.498 617.516 254.362L668.503 361.793C678.658 383.408 684.059 388.812 693.133 388.812ZM594.182 315.319H630.695L611.466 274.465L594.182 315.319Z" fill="white"/>
<path d="M757.98 318.777C777.856 320.29 791.899 333.476 791.899 352.714C791.899 376.924 770.079 394 742.64 394C731.406 394 718.443 391.19 711.961 385.786C709.369 384.273 709.153 383.841 708.937 380.814L706.344 356.821C706.344 355.956 708.721 355.524 708.937 356.389C713.474 381.895 732.054 390.542 747.177 390.542C767.702 390.542 775.696 374.114 775.696 356.605C775.696 333.044 761.653 321.155 737.455 321.155C736.375 321.155 736.375 318.561 737.455 318.561C760.788 318.561 771.375 306.24 771.375 287.867C771.375 268.845 760.788 256.74 745.233 256.74C730.974 256.74 718.227 267.116 712.177 289.596C711.961 290.677 709.801 290.028 709.801 289.38L712.826 264.738C713.258 261.279 713.474 260.631 716.066 259.766C727.733 255.659 738.751 253.93 748.042 253.93C773.751 253.93 786.066 267.764 786.066 283.327C786.066 300.404 771.159 314.022 757.98 318.777Z" fill="white"/>
<path d="M905.31 359.199C905.526 358.55 907.903 358.766 907.903 359.631C906.823 367.196 905.958 379.085 905.958 388.164C905.958 390.542 905.094 391.406 902.718 391.406H812.193C811.329 391.406 811.329 388.812 812.193 388.812C827.965 388.812 830.557 386.435 830.557 373.897V273.816C830.557 261.495 827.965 258.902 812.193 258.902C811.329 258.902 811.329 256.308 812.193 256.308H898.829C900.341 256.308 900.773 256.956 900.773 258.253L901.421 285.057C901.421 285.705 898.829 285.705 898.829 285.057C897.748 269.709 888.89 260.847 875.063 260.847H861.884C847.409 260.847 844.6 263.441 844.6 274.897V318.993H870.958C884.785 318.993 890.187 314.454 890.187 303.646C890.187 302.998 892.779 302.998 892.779 303.646C892.779 312.292 892.563 315.967 892.563 321.155C892.563 327.856 892.995 333.908 892.995 341.041C892.995 341.906 890.403 341.906 890.403 341.041C890.403 328.504 884.785 323.316 870.31 323.316H844.6V373.033C844.6 384.273 847.409 386.867 861.452 386.867H878.736C892.347 386.867 902.285 376.275 905.31 359.199Z" fill="white"/>
<path d="M960.21 373.033C960.21 386.002 963.667 388.812 985.92 388.812C986.784 388.812 986.784 391.406 985.92 391.406C976.63 391.406 966.044 390.974 953.297 390.974C943.791 390.974 934.932 391.406 927.803 391.406C927.155 391.406 927.155 388.812 927.803 388.812C943.574 388.812 946.383 386.435 946.383 373.897V273.816C946.383 261.495 943.574 258.902 927.803 258.902C927.155 258.902 927.155 256.308 927.803 256.308C934.932 256.308 943.574 256.956 953.081 256.956C960.426 256.956 972.093 255.659 983.328 255.659C1007.74 255.659 1026.75 266.035 1026.97 291.109C1027.19 321.371 1001.26 334.773 979.439 334.773C975.766 334.773 972.093 334.557 968.852 333.692C967.772 333.476 968.42 330.666 969.284 330.882C971.877 331.53 974.686 331.747 977.062 331.747C994.778 331.747 1010.98 320.29 1010.98 295.432C1010.98 272.087 996.507 258.902 977.926 258.902C963.667 258.902 960.21 259.766 960.21 274.249V373.033Z" fill="white"/>
<path d="M1192.24 388.812C1192.89 388.812 1192.89 391.406 1192.24 391.406C1185.33 391.406 1176.04 390.974 1166.31 390.974C1155.94 390.974 1147.3 391.406 1140.39 391.406C1139.52 391.406 1139.52 388.812 1140.39 388.812C1156.81 388.812 1159.4 386.435 1159.4 373.897V323.316H1076.44V373.897C1076.44 386.435 1079.03 388.812 1095.45 388.812C1096.31 388.812 1096.31 391.406 1095.45 391.406C1088.32 391.406 1079.68 390.974 1069.31 390.974C1059.59 390.974 1050.51 391.406 1043.6 391.406C1042.95 391.406 1042.95 388.812 1043.6 388.812C1059.59 388.812 1062.61 386.435 1062.61 373.897V273.816C1062.61 261.495 1059.8 258.902 1043.81 258.902C1043.17 258.902 1043.17 256.308 1043.81 256.308C1050.94 256.308 1059.59 256.956 1069.31 256.956C1079.68 256.956 1088.54 256.308 1095.45 256.308C1096.31 256.308 1096.31 258.902 1095.45 258.902C1079.25 258.902 1076.44 261.928 1076.44 274.249V318.993H1159.4V274.249C1159.4 261.928 1156.81 258.902 1140.39 258.902C1139.52 258.902 1139.52 256.308 1140.39 256.308C1147.3 256.308 1155.94 256.956 1166.31 256.956C1176.04 256.956 1185.33 256.308 1192.24 256.308C1192.89 256.308 1192.89 258.902 1192.24 258.902C1176.25 258.902 1173.23 261.495 1173.23 273.816V373.897C1173.23 386.435 1176.25 388.812 1192.24 388.812Z" fill="white"/>
<path d="M1259.6 315.102C1288.34 315.102 1309.73 323.749 1309.73 350.768C1309.73 375.41 1292.01 392.271 1266.08 392.271C1258.95 392.271 1244.48 390.974 1234.97 390.974C1225.47 390.974 1216.39 391.406 1209.48 391.406C1208.61 391.406 1208.61 388.812 1209.48 388.812C1225.25 388.812 1228.06 386.435 1228.06 373.897V273.816C1228.06 261.495 1225.47 258.902 1209.69 258.902C1208.83 258.902 1208.83 256.308 1209.69 256.308C1216.61 256.308 1225.03 256.956 1234.54 256.956C1245.34 256.956 1254.2 256.308 1260.9 256.308C1261.76 256.308 1261.76 258.902 1260.9 258.902C1244.91 258.902 1242.1 261.928 1242.1 274.249V315.967C1248.15 315.535 1253.98 315.102 1259.6 315.102ZM1373.46 388.812C1374.32 388.812 1374.32 391.406 1373.46 391.406C1366.55 391.406 1358.12 390.974 1347.75 390.974C1338.24 390.974 1329.17 391.406 1322.26 391.406C1321.39 391.406 1321.39 388.812 1322.26 388.812C1338.03 388.812 1340.84 386.435 1340.84 373.897V273.816C1340.84 261.495 1338.03 258.902 1322.26 258.902C1321.39 258.902 1321.39 256.308 1322.26 256.308C1329.17 256.308 1338.24 256.956 1347.75 256.956C1358.12 256.956 1366.76 256.308 1373.46 256.308C1374.32 256.308 1374.32 258.902 1373.46 258.902C1357.69 258.902 1355.1 261.928 1355.1 274.249V373.897C1355.1 386.435 1357.47 388.812 1373.46 388.812ZM1261.76 388.38C1285.1 388.38 1294.6 377.788 1294.6 356.605C1294.6 328.72 1278.83 319.426 1254.63 319.426C1250.53 319.426 1246.42 319.642 1242.1 320.29V373.897C1242.1 382.976 1244.91 388.38 1261.76 388.38Z" fill="white"/>
<path d="M1464.54 247.013C1448.34 247.013 1439.27 235.34 1439.27 216.967C1439.27 216.102 1441.64 215.886 1441.64 216.535C1441.64 227.126 1451.36 236.205 1464.54 236.205C1477.51 236.205 1487.23 227.126 1487.23 216.535C1487.23 215.886 1489.6 216.102 1489.6 216.967C1489.6 235.34 1480.96 247.013 1464.54 247.013ZM1537.35 388.812C1538.22 388.812 1538.22 391.406 1537.35 391.406C1530.44 391.406 1521.15 390.974 1511.64 390.974C1501.06 390.974 1492.41 391.406 1485.5 391.406C1484.85 391.406 1484.85 388.812 1485.5 388.812C1501.92 388.812 1504.51 386.435 1504.51 373.897V284.408L1424.14 370.439V373.897C1424.14 386.435 1426.73 388.812 1443.15 388.812C1444.02 388.812 1444.02 391.406 1443.15 391.406C1436.02 391.406 1427.38 390.974 1417.01 390.974C1407.29 390.974 1398.22 391.406 1391.3 391.406C1390.65 391.406 1390.65 388.812 1391.3 388.812C1407.29 388.812 1410.31 386.435 1410.31 373.897V273.816C1410.31 261.495 1407.51 258.902 1391.52 258.902C1390.87 258.902 1390.87 256.308 1391.52 256.308C1398.65 256.308 1407.29 256.956 1417.01 256.956C1427.38 256.956 1436.24 256.308 1443.15 256.308C1444.02 256.308 1444.02 258.902 1443.15 258.902C1426.95 258.902 1424.14 261.928 1424.14 274.249V363.522L1504.51 277.707V274.249C1504.51 261.928 1501.92 258.902 1485.5 258.902C1484.85 258.902 1484.85 256.308 1485.5 256.308C1492.41 256.308 1501.06 256.956 1511.64 256.956C1521.15 256.956 1530.44 256.308 1537.35 256.308C1538.22 256.308 1538.22 258.902 1537.35 258.902C1521.36 258.902 1518.56 261.495 1518.56 273.816V373.897C1518.56 386.435 1521.36 388.812 1537.35 388.812Z" fill="white"/>
</g>
</svg>
