<svg width="188" height="40" viewBox="0 0 188 40" fill="none" xmlns="http://www.w3.org/2000/svg">
<path d="M45.2 18.5L44.85 19.15C44.8833 19.2833 44.8833 19.45 44.85 19.65C44.8167 19.8167 44.6833 19.9333 44.45 20C41.8167 21.0667 39.1667 21.8667 36.5 22.4C34 22.9333 31.4667 23.4333 28.9 23.9C27 24.2333 24.8 24.6667 22.3 25.2C20.2333 25.6333 18.3167 26.2333 16.55 27C16.1833 28.6667 15.6333 30.0167 14.9 31.05C14.5667 31.6167 14.1667 32.0667 13.7 32.4C13.3667 32.7 12.9667 32.85 12.5 32.85C12.1667 32.85 11.8833 32.7667 11.65 32.6C10.9833 32.1333 10.7833 31.5 11.05 30.7C11.15 30.3 11.2667 29.9833 11.4 29.75C11.5333 29.4833 11.7333 29.2167 12 28.95C12.2 28.75 12.4667 28.4833 12.8 28.15C13.1333 27.7833 13.3833 27.5167 13.55 27.35C14.05 26.85 14.5333 26.4167 15 26.05C15.2667 25.7833 15.45 25.5333 15.55 25.3C15.65 25 15.6833 24.6 15.65 24.1C15.4833 23.1 15.5 22.25 15.7 21.55C15.9 20.85 16.1833 20.15 16.55 19.45C17.05 18.5167 17.6833 17.55 18.45 16.55C18.9167 15.95 19.6167 15.0833 20.55 13.95L22.95 11.25C23.2167 10.9167 23.4167 10.6833 23.55 10.55C23.6167 10.4833 23.7167 10.3833 23.85 10.25C23.9833 10.0833 24.1 9.94999 24.2 9.84999L23.9 10.15C22.6 11.1167 21.3167 12.1667 20.05 13.3C18.05 15.0667 16.6333 16.3167 15.8 17.05C13.8 18.7833 12.2833 20.0833 11.25 20.95C9.58333 22.35 8.06666 23.55 6.7 24.55C6.16666 24.95 5.63333 25.2833 5.1 25.55C4.56666 25.85 4.01666 26.1 3.45 26.3C2.48333 26.6667 1.73333 26.65 1.2 26.25C0.63333 25.85 0.33333 25.1333 0.299996 24.1C0.266663 22.2 0.849996 20.1667 2.05 18C2.65 16.9333 3.35 15.8833 4.15 14.85C4.85 13.9167 5.78333 12.8167 6.95 11.55C8.68333 9.61665 10.5667 7.76665 12.6 5.99999C14.4 4.43332 16.2833 2.88332 18.25 1.34999L18.3 1.29999C18.3667 1.26665 18.4667 1.18332 18.6 1.04999C18.6667 0.949987 18.7833 0.88332 18.95 0.849987C19.05 0.783321 19.1833 0.783321 19.35 0.849987C19.5167 0.916653 19.6167 0.98332 19.65 1.04999C19.7167 1.18332 19.75 1.31665 19.75 1.44999C19.75 1.58332 19.7167 1.71665 19.65 1.84999C19.5833 1.88332 19.4833 1.96665 19.35 2.09999C19.2167 2.23332 19.1167 2.31665 19.05 2.34999C19.0167 2.38332 18.9667 2.39999 18.9 2.39999C18.8333 2.39999 18.7833 2.41665 18.75 2.44999C16.55 4.21665 14.5 5.91665 12.6 7.54999C10.6333 9.24999 8.85 11.05 7.25 12.95C6.21666 14.1833 5.01666 15.7833 3.65 17.75C2.48333 19.5167 1.8 21.3667 1.6 23.3C1.5 24.2 1.61666 24.7667 1.95 25C2.28333 25.2333 2.83333 25.15 3.6 24.75C4.73333 24.1833 5.68333 23.5833 6.45 22.95C7.95 21.7833 9.4 20.6333 10.8 19.5C12.2333 18.3333 13.6 17.1667 14.9 16C15.8 15.2 17.1833 14 19.05 12.4C20.6833 11 22.1833 9.76665 23.55 8.69999C23.7167 8.53332 24 8.31665 24.4 8.04999C24.8 7.78332 25.1 7.59999 25.3 7.49999C25.5 7.33332 25.6667 7.23332 25.8 7.19999C25.8667 7.13332 25.9667 7.08332 26.1 7.04999C26.2333 7.01665 26.3833 7.01665 26.55 7.04999C26.7167 7.11665 26.85 7.21665 26.95 7.34999C27.05 7.51665 27.1 7.69999 27.1 7.89999C27.1 8.06665 27.0667 8.24999 27 8.44999C26.8667 8.71665 26.75 8.89999 26.65 8.99999L26.25 9.49999C25.9167 9.83332 25.6833 10.0833 25.55 10.25C25.4167 10.4167 25.1833 10.6667 24.85 11C24.6167 11.2333 24.2667 11.6167 23.8 12.15L22.75 13.35C21.95 14.35 21.3333 15.1 20.9 15.6C20.2333 16.3333 19.5833 17.1333 18.95 18C18.6167 18.4667 18.3833 18.8167 18.25 19.05C18.2167 19.1167 18.1167 19.3 17.95 19.6C17.7833 19.8667 17.65 20.0833 17.55 20.25C17.2167 20.8833 17.0333 21.4333 17 21.9C16.9333 22.4667 16.95 22.9667 17.05 23.4C17.1167 23.7333 17.15 23.9333 17.15 24V24.45C17.15 24.65 17.1333 24.8 17.1 24.9C18.7 24.2333 20.55 23.6667 22.65 23.2C24.6167 22.7667 26.7 22.3667 28.9 22C31.5 21.5333 34.0333 21.0333 36.5 20.5C39.1 19.9333 41.6833 19.1333 44.25 18.1C44.4167 18.0333 44.6 18.05 44.8 18.15C45.0333 18.25 45.1667 18.3667 45.2 18.5ZM12.45 31.55C13.05 31.1167 13.5333 30.6 13.9 30C14.2667 29.3667 14.6 28.6333 14.9 27.8C14.1 28.3333 13.4833 28.95 13.05 29.65C12.6167 30.3167 12.4167 30.95 12.45 31.55Z" fill="#FFFCF8"/>
<path d="M79.6871 18.5L79.4371 19.2C79.5038 19.3667 79.4871 19.5333 79.3871 19.7C79.2871 19.8667 79.1371 19.9833 78.9371 20.05L78.1371 20.35C77.4038 20.6167 76.6871 20.8667 75.9871 21.1L72.8371 22.15C72.4371 22.2833 71.8038 22.4833 70.9371 22.75C70.1038 23.0167 69.4538 23.2333 68.9871 23.4C68.4538 23.5667 67.6204 23.8167 66.4871 24.15C66.2538 24.2167 65.4538 24.4333 64.0871 24.8C63.8871 24.8667 63.5538 24.9667 63.0871 25.1C62.6538 25.2 62.3204 25.2833 62.0871 25.35L60.8871 25.65C59.2204 26.05 57.6704 26.3667 56.2371 26.6C55.0371 26.8 54.0871 26.9 53.3871 26.9C52.6871 26.9 52.2038 26.8333 51.9371 26.7C51.6038 26.5333 51.3704 26.3667 51.2371 26.2C51.2038 26.1 51.1538 25.95 51.0871 25.75C51.0204 25.5167 51.0871 25.1667 51.2871 24.7C51.4871 24.1667 51.8538 23.5 52.3871 22.7C52.9871 21.7667 53.8371 20.6333 54.9371 19.3C52.9038 19.9 50.9038 20.65 48.9371 21.55C46.9038 22.4833 44.9038 23.2167 42.9371 23.75L41.5871 23.95C41.1204 24.05 40.7538 23.8667 40.4871 23.4C40.2871 23.0333 40.3204 22.6667 40.5871 22.3C40.8538 21.9667 41.1038 21.6667 41.3371 21.4C42.4038 20.2333 43.4038 19.2 44.3371 18.3C45.3371 17.3333 46.4704 16.4333 47.7371 15.6C47.8704 15.4667 48.0538 15.3667 48.2871 15.3C48.4871 15.2333 48.6704 15.2333 48.8371 15.3C49.0038 15.3667 49.1038 15.4667 49.1371 15.6C49.2038 15.7667 49.1871 15.9667 49.0871 16.2C47.8204 17.1 46.6204 18.05 45.4871 19.05C44.4538 19.95 43.3871 21.0333 42.2871 22.3C43.4538 22 44.5371 21.65 45.5371 21.25C46.2371 20.9833 47.2871 20.55 48.6871 19.95C49.3871 19.65 50.4371 19.2333 51.8371 18.7C52.9704 18.2667 54.0538 17.9333 55.0871 17.7C55.4871 17.5667 55.9371 17.5167 56.4371 17.55C56.9371 17.5833 57.1871 17.8833 57.1871 18.45C57.1871 18.6167 57.0871 18.8167 56.8871 19.05C56.6871 19.2833 56.5704 19.4 56.5371 19.4L55.1871 21.05C54.7204 21.6167 54.3204 22.1667 53.9871 22.7C53.8871 22.8667 53.7371 23.1167 53.5371 23.45C53.3371 23.75 53.1871 23.9667 53.0871 24.1C52.8204 24.5 52.6704 24.8 52.6371 25C53.0038 25.1667 53.7371 25.1667 54.8371 25C55.6704 24.9 56.9704 24.6667 58.7371 24.3C59.8704 24.0667 61.4871 23.6833 63.5871 23.15C65.3204 22.7167 67.0204 22.2167 68.6871 21.65L69.7871 21.25C70.4871 21.0167 71.3371 20.7167 72.3371 20.35C72.6371 20.25 73.1371 20.0667 73.8371 19.8C74.5704 19.5333 75.1538 19.3333 75.5871 19.2C77.2871 18.6 78.3204 18.2333 78.6871 18.1C78.9204 18.0333 79.1204 18.05 79.2871 18.15C79.5204 18.25 79.6538 18.3667 79.6871 18.5Z" fill="#FFFCF8"/>
<path d="M122.66 18.5L122.61 19.1C122.676 19.3333 122.66 19.5167 122.56 19.65C122.46 19.8167 122.343 19.9167 122.21 19.95C120.643 20.8167 118.926 21.5167 117.06 22.05C115.26 22.5833 113.343 23 111.31 23.3C109.143 23.6333 107.243 23.8667 105.61 24C103.976 24.1333 102.326 24.2 100.66 24.2C99.1931 24.2 98.0431 24.15 97.2098 24.05C96.3764 23.95 95.9764 23.85 96.0098 23.75C95.1098 24.25 94.3098 24.6333 93.6098 24.9C92.7431 25.2333 92.0764 25.4167 91.6098 25.45C91.3098 25.4833 91.0098 25.4333 90.7098 25.3C90.4431 25.1667 90.1931 24.9833 89.9598 24.75C89.7931 24.5833 89.6764 24.3333 89.6098 24C89.5764 23.7 89.6764 23.3833 89.9098 23.05C90.2431 22.6167 90.8764 22.3667 91.8098 22.3C92.7098 22.2333 93.9598 22.2333 95.5598 22.3L96.4598 21.7C97.4264 21.0333 98.0598 20.4833 98.3598 20.05C98.6598 19.5833 98.7931 19.2833 98.7598 19.15C98.7598 19.05 98.5764 18.95 98.2098 18.85C96.4764 18.4167 94.2764 19 91.6098 20.6C89.0098 22.1667 85.9931 24.7667 82.5598 28.4C81.9264 29.1 81.0098 30.1167 79.8098 31.45C79.1431 32.1833 78.3264 33.1333 77.3598 34.3C77.1264 34.5667 76.8931 34.8333 76.6598 35.1C76.4264 35.4 76.1931 35.7167 75.9598 36.05C75.6931 36.3833 75.4931 36.6333 75.3598 36.8C74.7931 37.5 74.3264 38.1167 73.9598 38.65C73.7264 38.8833 73.5264 39.0667 73.3598 39.2C73.1264 39.4 72.8764 39.4167 72.6098 39.25C72.4764 39.2167 72.4098 39.1333 72.4098 39V38.7C72.4098 38.6 72.4431 38.4833 72.5098 38.35L72.8098 37.9C72.8764 37.8 73.0098 37.6167 73.2098 37.35L79.6598 28.5C80.7598 26.9333 82.0098 25.35 83.4098 23.75C84.7764 22.2167 86.3598 20.5667 88.1598 18.8H88.0598C86.3931 19.4 84.9764 19.9 83.8098 20.3C82.4431 20.7667 81.3431 21.0167 80.5098 21.05H80.1098C79.8764 21.05 79.6931 21.0333 79.5598 21C79.3598 20.9667 79.1764 20.8833 79.0098 20.75C78.8431 20.65 78.7098 20.5 78.6098 20.3C78.1098 19.2333 78.6264 17.9 80.1598 16.3C80.5264 15.9333 81.0098 15.5333 81.6098 15.1C82.1764 14.7 82.7764 14.35 83.4098 14.05C84.1431 13.7167 84.7598 13.4833 85.2598 13.35C85.8598 13.1833 86.4098 13.2333 86.9098 13.5C87.7431 13.8667 88.2764 14.3667 88.5098 15C88.7431 15.6667 88.8431 16.3167 88.8098 16.95C89.0431 16.85 89.4264 16.7 89.9598 16.5C90.2264 16.4 90.6264 16.2167 91.1598 15.95C91.4931 15.6833 91.7264 15.4833 91.8598 15.35C91.9264 15.2833 92.0264 15.1833 92.1598 15.05C92.3264 14.9167 92.4598 14.8 92.5598 14.7C93.4598 13.9 94.4098 13.1 95.4098 12.3C96.4098 11.5 97.3598 10.8 98.2598 10.2C99.1598 9.59999 99.9598 9.14999 100.66 8.84999C101.393 8.54999 101.926 8.46665 102.26 8.59999C102.326 8.63332 102.476 8.76665 102.71 8.99999C102.943 9.19999 102.976 9.53332 102.81 9.99999C102.643 10.5333 102.226 11.0833 101.56 11.65C100.893 12.2167 100.06 12.8167 99.0598 13.45C98.1598 14.0167 97.1431 14.5833 96.0098 15.15C95.2098 15.55 94.2431 16.0167 93.1098 16.55L92.6098 16.8C92.2764 16.9667 92.1098 17.05 92.1098 17.05C91.1431 17.8833 90.1931 18.7833 89.2598 19.75L86.4098 22.6C87.4098 21.7 88.4931 20.85 89.6598 20.05C90.8931 19.2167 91.9598 18.5833 92.8598 18.15C93.8931 17.65 94.9264 17.3 95.9598 17.1C96.9931 16.9 97.9431 16.9167 98.8098 17.15C99.5431 17.2833 99.9931 17.5667 100.16 18C100.293 18.4 100.343 18.7167 100.31 18.95C100.243 19.45 100.026 19.9333 99.6598 20.4C99.3264 20.8 98.7931 21.3167 98.0598 21.95C98.8598 21.9833 100.176 22 102.01 22C103.61 22 105.126 21.9333 106.56 21.8C107.993 21.6667 109.676 21.4333 111.61 21.1C113.243 20.8333 115.043 20.4 117.01 19.8C117.51 19.6333 118.293 19.35 119.36 18.95L121.76 18.05C122.226 17.8833 122.526 18.0333 122.66 18.5ZM101.26 10.65H101.21C100.676 10.95 100.043 11.35 99.3098 11.85C98.1098 12.6833 97.1764 13.35 96.5098 13.85C97.8764 13.1167 98.9598 12.4833 99.7598 11.95C100.493 11.45 100.993 11.0167 101.26 10.65ZM87.2598 18.1L87.2098 18C87.2764 17.8 87.3098 17.6 87.3098 17.4C87.3098 17.0667 87.2931 16.8167 87.2598 16.65C87.1931 16.4167 87.0931 16.1667 86.9598 15.9C86.8264 15.6333 86.5764 15.4333 86.2098 15.3C85.9764 15.2 85.6598 15.2 85.2598 15.3C84.7598 15.4333 84.3264 15.6 83.9598 15.8C83.4264 16.1 82.9431 16.4 82.5098 16.7C82.0764 17 81.6098 17.4 81.1098 17.9C80.5764 18.4333 80.2098 18.9 80.0098 19.3C79.8098 19.6667 79.7431 19.9667 79.8098 20.2C80.1764 20.2667 81.0098 20.1167 82.3098 19.75C83.6098 19.3833 85.2598 18.8333 87.2598 18.1ZM91.1098 24.05V24C91.3431 24.1333 91.9431 24.0333 92.9098 23.7C91.8764 23.7 91.2598 23.8 91.0598 24L91.1098 24.05Z" fill="#FFFCF8"/>
<path d="M150.477 18.55L150.277 19.05C150.411 19.4833 150.261 19.7833 149.827 19.95L147.627 20.75C147.261 20.8833 146.744 21.0833 146.077 21.35C145.577 21.55 145.311 21.65 145.277 21.65V21.6C143.077 22.3333 141.011 22.85 139.077 23.15C137.211 23.45 135.594 23.6 134.227 23.6C132.994 23.6 131.994 23.5333 131.227 23.4C130.427 23.2667 129.711 23.1167 129.077 22.95L128.727 23.2C127.927 23.6333 126.694 24.2833 125.027 25.15C123.794 25.7833 122.444 26.1333 120.977 26.2C120.577 26.2667 120.211 26.2 119.877 26C119.411 25.7333 119.061 25.55 118.827 25.45C117.594 26.8167 116.477 28.2833 115.477 29.85C114.811 30.8833 113.844 32.4333 112.577 34.5C112.444 34.6333 112.344 34.75 112.277 34.85L111.977 35.3C111.877 35.4667 111.761 35.5667 111.627 35.6C111.461 35.6667 111.311 35.6667 111.177 35.6C110.911 35.4 110.777 35.1667 110.777 34.9C110.777 34.6333 110.827 34.3833 110.927 34.15C110.994 33.9833 111.127 33.7333 111.327 33.4C111.527 33.0667 111.661 32.8333 111.727 32.7C113.894 29.4 116.094 26.15 118.327 22.95C120.494 19.85 122.927 16.75 125.627 13.65C126.094 13.1833 126.527 12.7 126.927 12.2C127.327 11.7 127.761 11.2167 128.227 10.75C128.461 10.5833 128.661 10.5 128.827 10.5C129.094 10.5 129.277 10.5167 129.377 10.55C129.544 10.6167 129.627 10.7167 129.627 10.85C129.627 11.05 129.561 11.2333 129.427 11.4C128.261 12.8333 127.161 14.1167 126.127 15.25C125.094 16.35 124.027 17.6833 122.927 19.25C123.461 18.85 124.211 18.3667 125.177 17.8C126.444 17.0667 127.561 16.4833 128.527 16.05C129.727 15.5167 130.911 15.1167 132.077 14.85C133.244 14.5833 134.177 14.6333 134.877 15C135.011 15.1 135.111 15.25 135.177 15.45C135.244 15.7167 135.277 15.9333 135.277 16.1C135.277 16.2667 135.244 16.5167 135.177 16.85C134.711 17.7833 134.094 18.5833 133.327 19.25C132.561 19.9167 131.694 20.6333 130.727 21.4C131.494 21.5667 132.361 21.6667 133.327 21.7C134.327 21.7667 135.477 21.7167 136.777 21.55C138.077 21.3833 139.527 21.1333 141.127 20.8C142.727 20.4667 144.477 19.9667 146.377 19.3C146.444 19.3 146.627 19.25 146.927 19.15C146.961 19.1167 147.277 18.9833 147.877 18.75C148.344 18.55 148.694 18.4167 148.927 18.35C149.161 18.2833 149.377 18.2 149.577 18.1C150.044 17.9667 150.344 18.1167 150.477 18.55ZM133.777 16.5C131.844 16.6667 129.961 17.15 128.127 17.95C126.227 18.75 124.527 19.8167 123.027 21.15C123.994 21.1167 124.944 21.1167 125.877 21.15C127.144 21.2167 128.094 21.2833 128.727 21.35C129.361 20.8833 130.311 20.15 131.577 19.15C132.511 18.4167 133.244 17.5333 133.777 16.5ZM120.077 24.8L119.927 24.9C121.161 25 122.344 24.8167 123.477 24.35C124.544 23.9167 125.627 23.3833 126.727 22.75C125.927 22.6833 125.294 22.65 124.827 22.65C124.161 22.65 123.527 22.7 122.927 22.8C122.327 22.9 121.777 23.1 121.277 23.4C120.777 23.7 120.377 24.1667 120.077 24.8Z" fill="#FFFCF8"/>
<path d="M187.561 18.5L187.211 18.85C187.277 19.0167 187.261 19.1833 187.161 19.35C187.061 19.55 186.944 19.6667 186.811 19.7C186.777 19.7 186.327 19.85 185.461 20.15C184.594 20.45 183.494 20.85 182.161 21.35C180.827 21.85 179.277 22.4 177.511 23C175.744 23.6 173.944 24.2 172.111 24.8C170.244 25.4 168.227 26.0167 166.061 26.65C164.561 27.0833 163.111 27.45 161.711 27.75C160.311 28.05 159.327 28.2333 158.761 28.3C158.027 28.4 157.427 28.45 156.961 28.45C156.361 28.45 155.961 28.4 155.761 28.3C155.561 28.2 155.411 28.0667 155.311 27.9C154.944 27.5 154.794 27.05 154.861 26.55C154.927 26.0167 155.127 25.4833 155.461 24.95C155.861 24.35 156.311 23.7667 156.811 23.2C157.177 22.8 157.761 22.2 158.561 21.4V21.35L161.361 18.55L149.911 21.5C149.811 21.9333 149.744 22.2333 149.711 22.4C149.611 22.8 149.461 23.1833 149.261 23.55C148.994 24.0833 148.777 24.4833 148.611 24.75C148.377 25.1167 148.077 25.4333 147.711 25.7C147.377 25.9 147.111 26.0333 146.911 26.1C146.611 26.2 146.311 26.25 146.011 26.25C145.711 26.25 145.427 26.1667 145.161 26C144.894 25.8667 144.694 25.6167 144.561 25.25C144.427 24.8167 144.577 24.2167 145.011 23.45C145.411 22.7833 145.994 21.9833 146.761 21.05C147.394 20.2833 148.177 19.4333 149.111 18.5C149.744 17.8667 150.527 17.1167 151.461 16.25C151.627 16.0833 151.811 16 152.011 16C152.177 16 152.344 16.0833 152.511 16.25C152.644 16.3833 152.711 16.55 152.711 16.75C152.711 16.9167 152.627 17.0833 152.461 17.25C152.127 17.55 151.661 18 151.061 18.6L149.761 19.9L163.661 16.3C164.061 16.2667 164.327 16.3833 164.461 16.65C164.627 16.9167 164.577 17.2 164.311 17.5C163.311 18.5667 162.311 19.5667 161.311 20.5C160.011 21.7333 159.127 22.6 158.661 23.1C157.861 23.9667 157.277 24.6667 156.911 25.2C156.511 25.8 156.394 26.2833 156.561 26.65C156.861 26.85 157.794 26.8 159.361 26.5C160.961 26.2 163.044 25.7 165.611 25C168.011 24.3667 171.094 23.4333 174.861 22.2C178.194 21.1333 182.127 19.75 186.661 18.05C187.127 17.8833 187.427 18.0333 187.561 18.5ZM146.811 24.65H146.761C147.227 24.2833 147.577 23.7667 147.811 23.1C148.111 22.3 148.294 21.7167 148.361 21.35C147.627 22.1833 147.027 22.9333 146.561 23.6C146.094 24.2667 145.844 24.7167 145.811 24.95C146.211 25.0167 146.544 24.9167 146.811 24.65Z" fill="#FFFCF8"/>
</svg>
