<svg width="475" height="68" viewBox="0 0 475 68" fill="none" xmlns="http://www.w3.org/2000/svg">
<path d="M28.25 9.55002V9.85002C28.3167 10.0167 28.3 10.1833 28.2 10.35C28.1 10.55 27.9834 10.6667 27.85 10.7C27.7834 10.7334 27.6834 10.7667 27.55 10.8C27.45 10.8334 27.2834 10.9 27.05 11C26.8167 11.0667 26.6167 11.1334 26.45 11.2C25.75 11.4667 24.9 11.7667 23.9 12.1C22.9 12.4334 21.8 12.7834 20.6 13.15L17 14.2C15.8 14.5334 14.65 14.8334 13.55 15.1C12.5834 15.3334 11.6167 15.5 10.65 15.6C10.25 15.6667 9.30003 15.7834 7.80003 15.95C7.2667 16.0167 6.4667 16.0834 5.40003 16.15C4.53336 16.1834 3.73336 16.1334 3.00003 16C2.2667 15.8667 1.6167 15.5667 1.05003 15.1C0.683365 14.7667 0.483365 14.3167 0.450031 13.75C0.416698 13.1834 0.516698 12.6834 0.750031 12.25C1.3167 10.9834 2.10003 9.90002 3.10003 9.00002C4.13336 8.06668 5.1667 7.18335 6.20003 6.35002C7.10003 5.68335 8.13337 5.03335 9.30003 4.40002C10.3667 3.80002 11.55 3.53335 12.85 3.60002C13.2834 3.63335 13.65 3.78335 13.95 4.05002C14.2167 4.28335 14.4334 4.58335 14.6 4.95002C14.7667 5.31668 14.8167 5.70002 14.75 6.10002C14.7167 6.50002 14.5667 6.85002 14.3 7.15002C13.9334 7.25002 13.6834 7.23335 13.55 7.10002C13.3834 6.96668 13.2834 6.76668 13.25 6.50002C13.2167 6.26668 13.2167 6.00002 13.25 5.70002C13.3167 5.30002 13.35 5.05002 13.35 4.95002C12.9167 4.78335 12.4667 4.73335 12 4.80002C11.5667 4.83335 11.15 4.93335 10.75 5.10002C10.4834 5.20002 10.0834 5.38335 9.55003 5.65002C9.1167 5.85002 8.75003 6.06668 8.45003 6.30002C7.3167 7.03335 6.3167 7.80002 5.45003 8.60002C4.48337 9.46668 3.63336 10.4167 2.90003 11.45C2.43336 12.0834 2.20003 12.5667 2.20003 12.9C2.20003 13.2667 2.30003 13.55 2.50003 13.75C2.70003 13.95 2.9167 14.1 3.15003 14.2L3.50003 14.3C4.3667 14.5 5.45003 14.55 6.75003 14.45C8.05003 14.35 9.40003 14.2 10.8 14C12.2334 13.8 13.5667 13.55 14.8 13.25C16.2334 12.9167 17.2334 12.65 17.8 12.45C18.2334 12.3167 18.7 12.1667 19.2 12C19.7334 11.8 20.3167 11.6 20.95 11.4C21.5834 11.1667 22.0834 10.9834 22.45 10.85C24.05 10.2834 25.7 9.68335 27.4 9.05002C27.6334 8.98335 27.8167 9.00002 27.95 9.10002C28.1167 9.20002 28.2167 9.35002 28.25 9.55002Z" fill="white"/>
<path d="M66.9153 9.50002L66.8153 9.60002C66.9819 10.0667 66.8319 10.3667 66.3653 10.5L65.1153 10.95C64.2819 11.25 63.1819 11.65 61.8153 12.15C60.1153 12.7834 58.5986 13.3334 57.2653 13.8C55.8653 14.3 54.1486 14.8667 52.1153 15.5C51.4486 15.7 50.9653 15.85 50.6653 15.95L49.3153 16.4C47.7486 16.9334 46.5153 17.3167 45.6153 17.55C44.5153 17.85 43.5653 18 42.7653 18C41.7653 18 41.0653 17.7 40.6653 17.1C40.1986 16.5334 40.1653 15.85 40.5653 15.05C40.9653 14.25 41.5153 13.45 42.2153 12.65C42.8486 11.95 43.5819 11.2 44.4153 10.4C45.1819 9.70002 45.7153 9.16668 46.0153 8.80002C45.8486 8.80002 45.3653 8.93335 44.5653 9.20002C43.6986 9.50002 42.8653 9.80002 42.0653 10.1C41.1653 10.4334 40.3153 10.7833 39.5153 11.15C38.7153 11.5167 38.1653 11.7667 37.8653 11.9C37.4319 12.1334 36.8153 12.4834 36.0153 12.95C35.4153 13.3167 34.7653 13.6167 34.0653 13.85C33.7319 13.9834 33.4153 13.9334 33.1153 13.7C32.8153 13.4667 32.7486 13.1667 32.9153 12.8C33.0486 12.2334 33.2819 11.65 33.6153 11.05L34.5153 9.35002C33.7819 9.55002 33.0986 9.80002 32.4653 10.1C32.0319 10.3 31.3819 10.6334 30.5153 11.1C29.6486 11.5667 28.9986 11.9 28.5653 12.1C28.0319 12.3667 27.3653 12.6334 26.5653 12.9C26.2986 12.9 26.0986 12.85 25.9653 12.75C25.8319 12.65 25.7319 12.5 25.6653 12.3C25.5986 12.1 25.5986 11.9 25.6653 11.7C25.7319 11.4667 25.8319 11.2833 25.9653 11.15C26.5319 10.25 27.1653 9.31668 27.8653 8.35002C28.5319 7.41668 29.2819 6.58335 30.1153 5.85002C30.2153 5.68335 30.3486 5.60002 30.5153 5.60002C30.6819 5.60002 30.8319 5.65002 30.9653 5.75002C31.0986 5.85002 31.2153 5.96668 31.3153 6.10002C31.4153 6.26668 31.3986 6.43335 31.2653 6.60002L29.4653 8.70002C28.9653 9.30002 28.3986 10.05 27.7653 10.95C29.1653 10.2167 30.1986 9.66668 30.8653 9.30002C31.8653 8.76668 32.9486 8.36668 34.1153 8.10002C34.5153 7.96668 34.9153 7.96668 35.3153 8.10002C35.6819 8.23335 35.9486 8.53335 36.1153 9.00002C36.0153 9.56668 35.8153 10.1 35.5153 10.6C35.1153 11.2667 34.8319 11.7834 34.6653 12.15C36.8653 10.8834 39.0486 9.80002 41.2153 8.90002C41.2819 8.86668 41.3819 8.83335 41.5153 8.80002C41.6486 8.73335 41.7986 8.66668 41.9653 8.60002C42.1653 8.50002 42.3653 8.41668 42.5653 8.35002C43.1986 8.11668 43.8819 7.91668 44.6153 7.75002C45.3153 7.58335 45.9653 7.53335 46.5653 7.60002C47.1986 7.66668 47.5319 7.96668 47.5653 8.50002C47.5986 8.73335 47.4986 9.05002 47.2653 9.45002C47.0319 9.85002 46.6986 10.2834 46.2653 10.75C45.9986 11.05 45.5153 11.55 44.8153 12.25L43.1653 13.9C42.6986 14.4334 42.3486 14.9334 42.1153 15.4C41.8819 15.8667 41.8319 16.1667 41.9653 16.3C42.1653 16.5667 42.5986 16.6667 43.2653 16.6C43.9319 16.5334 44.6819 16.3834 45.5153 16.15C46.0819 15.9834 46.9653 15.7 48.1653 15.3C48.3653 15.2334 49.1653 14.95 50.5653 14.45C52.9319 13.6834 55.3153 12.8834 57.7153 12.05C58.6486 11.7167 60.0486 11.2167 61.9153 10.55C63.8153 9.88335 65.1653 9.40002 65.9653 9.10002C66.1319 9.03335 66.3153 9.05002 66.5153 9.15002C66.7486 9.25002 66.8819 9.36668 66.9153 9.50002Z" fill="white"/>
<path d="M51.7871 31.15L51.2871 31.45C50.6871 31.3834 50.1705 31.2167 49.7371 30.95C49.2705 30.65 48.9205 30.2833 48.6871 29.85C48.4205 29.35 48.2371 28.8667 48.1371 28.4C48.0371 27.9 48.0371 27.4 48.1371 26.9C48.4371 25.7334 49.1538 24.6334 50.2871 23.6C51.4538 22.5333 52.7538 21.5834 54.1871 20.75C55.7538 19.8167 57.2205 19.0834 58.5871 18.55C60.0871 17.95 61.3371 17.5 62.3371 17.2C63.9705 16.7 65.4538 16.35 66.7871 16.15C67.6538 16.0167 68.9871 15.85 70.7871 15.65L74.0871 12.35C74.8538 11.5834 75.8038 10.6 76.9371 9.40002C75.6705 9.86668 74.1371 10.3834 72.3371 10.95C71.0705 11.35 70.0205 11.65 69.1871 11.85C68.4538 12.0167 67.7871 12.1334 67.1871 12.2C66.6871 12.2667 66.3038 12.2667 66.0371 12.2C65.7705 12.1334 65.5871 12.05 65.4871 11.95L65.2371 11.7C65.1371 11.5667 65.0871 11.3334 65.0871 11C65.0871 10.7 65.2038 10.3334 65.4371 9.90002C65.6705 9.50002 66.0705 8.98335 66.6371 8.35002C67.2038 7.75002 68.0371 7.06668 69.1371 6.30002C69.3038 6.13335 69.4871 6.08335 69.6871 6.15002C69.8871 6.18335 70.0371 6.28335 70.1371 6.45002C70.4038 6.81668 70.3538 7.15002 69.9871 7.45002C69.5205 7.75002 69.1038 8.06668 68.7371 8.40002C68.2038 8.86668 67.8538 9.18335 67.6871 9.35002C67.4538 9.58335 67.2038 9.86668 66.9371 10.2C66.7705 10.4 66.6538 10.6 66.5871 10.8C66.8871 10.8334 67.5205 10.75 68.4871 10.55C69.1538 10.4167 70.2038 10.1334 71.6371 9.70002C72.9705 9.30002 74.2538 8.90002 75.4871 8.50002C76.6205 8.10002 77.9538 7.61668 79.4871 7.05002C79.8205 6.91668 80.0705 7.00002 80.2371 7.30002C80.4038 7.63335 80.3871 7.91668 80.1871 8.15002L79.6371 8.70002C79.5038 8.83335 79.2705 9.08335 78.9371 9.45002C78.6038 9.81668 78.3538 10.0833 78.1871 10.25C77.9871 10.4833 77.6371 10.8667 77.1371 11.4C76.6371 11.9 76.2538 12.2834 75.9871 12.55C74.8538 13.75 73.9371 14.7 73.2371 15.4C74.6371 15.2667 75.6371 15.15 76.2371 15.05C76.6371 14.9834 77.2705 14.8834 78.1371 14.75C79.0371 14.6167 79.5871 14.5334 79.7871 14.5C80.9205 14.3334 82.3538 14.05 84.0871 13.65C85.6538 13.2834 87.4038 12.8334 89.3371 12.3C92.2038 11.5667 94.4538 10.8667 96.0871 10.2C97.7205 9.56668 98.5371 9.21668 98.5371 9.15002C98.7705 9.08335 98.9705 9.10002 99.1371 9.20002C99.3705 9.30002 99.5038 9.41668 99.5371 9.55002C99.7038 10.0167 99.5871 10.3167 99.1871 10.45C99.1538 10.4834 98.3038 10.8334 96.6371 11.5C94.9705 12.1667 92.7205 12.8667 89.8871 13.6C87.6538 14.2667 85.6538 14.7667 83.8871 15.1C81.8871 15.5 80.3038 15.7834 79.1371 15.95C77.7371 16.15 76.4371 16.3 75.2371 16.4C73.7371 16.5334 72.5705 16.65 71.7371 16.75L70.3371 18.05L68.9871 19.4C60.7538 27.1334 55.0538 31.05 51.8871 31.15H51.7871ZM68.7371 17.5C67.8038 17.6 66.8205 17.7667 65.7871 18C64.3871 18.3334 63.0705 18.7 61.8371 19.1C60.6371 19.5 59.2705 20.0334 57.7371 20.7C56.4038 21.3 55.1538 21.95 53.9871 22.65C52.8871 23.3167 51.9205 24.0667 51.0871 24.9C50.2871 25.7 49.7871 26.5167 49.5871 27.35C49.4538 27.95 49.5705 28.55 49.9371 29.15C50.2705 29.75 50.7538 30.05 51.3871 30.05C52.2538 30.0167 53.3538 29.6167 54.6871 28.85C56.1205 28.05 57.5705 27.0834 59.0371 25.95C60.7371 24.65 62.3705 23.3 63.9371 21.9C65.5371 20.5 67.1371 19.0333 68.7371 17.5Z" fill="white"/>
<path d="M129.852 9.55002L129.652 9.45002C129.719 9.61668 129.702 9.78335 129.602 9.95002C129.502 10.15 129.385 10.2667 129.252 10.3C129.185 10.3667 128.785 10.5167 128.052 10.75C127.319 10.9834 126.319 11.3334 125.052 11.8C124.519 12.0667 123.769 12.3667 122.802 12.7C121.802 13.0667 120.735 13.4167 119.602 13.75C119.435 13.7834 118.185 14.1667 115.852 14.9C114.119 15.4334 112.835 15.8167 112.002 16.05C110.902 16.35 109.735 16.7 108.502 17.1C107.402 17.4334 106.502 17.7334 105.802 18L104.502 20.05C103.469 21.6834 102.269 23.45 100.902 25.35C99.6353 27.1167 98.2687 28.7334 96.802 30.2C95.6353 31.4667 94.4687 32.3167 93.302 32.75C92.102 33.2167 91.1353 33.3 90.402 33C89.6353 32.7 89.2353 32.05 89.202 31.05C89.1686 30.05 89.7187 28.7 90.852 27C92.6187 24.5667 94.7187 22.5333 97.152 20.9C99.6187 19.2334 102.169 17.7833 104.802 16.55C105.835 15.2167 106.719 13.9167 107.452 12.65C107.985 11.75 108.785 10.3667 109.852 8.50002C108.152 9.23335 106.485 10.0834 104.852 11.05C103.385 11.9167 101.735 12.7834 99.902 13.65C99.402 13.85 99.1187 13.9667 99.052 14C98.752 14.1334 98.452 14.2334 98.152 14.3C97.852 14.3667 97.552 14.3667 97.252 14.3C96.9853 14.2667 96.7187 14.1167 96.452 13.85C96.052 13.3167 95.9853 12.7334 96.252 12.1C96.5187 11.4667 96.8186 10.9334 97.152 10.5C98.3853 8.96668 99.9353 7.70002 101.802 6.70002C103.635 5.70002 105.585 5.20002 107.652 5.20002C108.352 5.13335 108.985 5.28335 109.552 5.65002C109.919 5.88335 110.469 6.26668 111.202 6.80002L111.802 6.05002C112.069 5.71668 112.252 5.46668 112.352 5.30002L112.752 5.00002C112.952 4.86668 113.202 4.86668 113.502 5.00002C113.802 5.16668 113.885 5.41668 113.752 5.75002C113.685 5.91668 113.585 6.06668 113.452 6.20002V6.15002C112.052 8.28335 111.019 9.88335 110.352 10.95C109.019 13.0834 108.002 14.6834 107.302 15.75L107.102 16.05C108.702 15.5167 110.385 15.0167 112.152 14.55C113.685 14.15 115.452 13.65 117.452 13.05C118.985 12.55 120.802 11.95 122.902 11.25C124.802 10.6167 126.802 9.91668 128.902 9.15002C129.069 9.08335 129.252 9.10002 129.452 9.20002C129.685 9.30002 129.819 9.41668 129.852 9.55002ZM103.852 9.90002L103.802 9.95002C105.069 9.28335 106.019 8.80002 106.652 8.50002C107.519 8.10002 108.435 7.60002 109.402 7.00002C108.169 6.53335 106.969 6.45002 105.802 6.75002C104.635 7.05002 103.502 7.48335 102.402 8.05002C101.435 8.55002 100.469 9.23335 99.502 10.1C98.6353 10.8667 97.9186 11.8167 97.352 12.95C98.4853 12.7167 99.602 12.2833 100.702 11.65C102.102 10.85 103.152 10.2667 103.852 9.90002ZM94.052 30.65V30.4C96.052 28.8 97.7853 26.9667 99.252 24.9C100.785 22.7 102.219 20.6167 103.552 18.65C101.219 19.8167 99.0353 21.1667 97.002 22.7C94.9687 24.2334 93.2187 26.0834 91.752 28.25C91.2853 28.95 90.9853 29.6 90.852 30.2C90.7187 30.8 90.7187 31.25 90.852 31.55C91.0186 31.85 91.352 31.95 91.852 31.85C92.3853 31.75 93.1187 31.35 94.052 30.65Z" fill="white"/>
<path d="M164.23 9.50002L163.98 10.2C164.047 10.3667 164.03 10.5334 163.93 10.7C163.83 10.8667 163.68 10.9834 163.48 11.05L162.68 11.35C161.947 11.6167 161.23 11.8667 160.53 12.1L157.38 13.15C156.98 13.2834 156.347 13.4834 155.48 13.75C154.647 14.0167 153.997 14.2334 153.53 14.4C152.997 14.5667 152.163 14.8167 151.03 15.15C150.797 15.2167 149.997 15.4334 148.63 15.8C148.43 15.8667 148.097 15.9667 147.63 16.1C147.197 16.2 146.863 16.2834 146.63 16.35L145.43 16.65C143.763 17.05 142.213 17.3667 140.78 17.6C139.58 17.8 138.63 17.9 137.93 17.9C137.23 17.9 136.747 17.8334 136.48 17.7C136.147 17.5334 135.913 17.3667 135.78 17.2C135.747 17.1 135.697 16.95 135.63 16.75C135.563 16.5167 135.63 16.1667 135.83 15.7C136.03 15.1667 136.397 14.5 136.93 13.7C137.53 12.7667 138.38 11.6334 139.48 10.3C137.447 10.9 135.447 11.65 133.48 12.55C131.447 13.4834 129.447 14.2167 127.48 14.75L126.13 14.95C125.663 15.05 125.297 14.8667 125.03 14.4C124.83 14.0334 124.863 13.6667 125.13 13.3C125.397 12.9667 125.647 12.6667 125.88 12.4C126.947 11.2334 127.947 10.2 128.88 9.30002C129.88 8.33335 131.013 7.43335 132.28 6.60002C132.413 6.46668 132.597 6.36668 132.83 6.30002C133.03 6.23335 133.213 6.23335 133.38 6.30002C133.547 6.36668 133.647 6.46668 133.68 6.60002C133.747 6.76668 133.73 6.96668 133.63 7.20002C132.363 8.10002 131.163 9.05002 130.03 10.05C128.997 10.95 127.93 12.0334 126.83 13.3C127.997 13 129.08 12.65 130.08 12.25C130.78 11.9834 131.83 11.55 133.23 10.95C133.93 10.65 134.98 10.2334 136.38 9.70002C137.513 9.26668 138.597 8.93335 139.63 8.70002C140.03 8.56668 140.48 8.51668 140.98 8.55002C141.48 8.58335 141.73 8.88335 141.73 9.45002C141.73 9.61668 141.63 9.81668 141.43 10.05C141.23 10.2834 141.113 10.4 141.08 10.4L139.73 12.05C139.263 12.6167 138.863 13.1667 138.53 13.7C138.43 13.8667 138.28 14.1167 138.08 14.45C137.88 14.75 137.73 14.9667 137.63 15.1C137.363 15.5 137.213 15.8 137.18 16C137.547 16.1667 138.28 16.1667 139.38 16C140.213 15.9 141.513 15.6667 143.28 15.3C144.413 15.0667 146.03 14.6834 148.13 14.15C149.863 13.7167 151.563 13.2167 153.23 12.65L154.33 12.25C155.03 12.0167 155.88 11.7167 156.88 11.35C157.18 11.25 157.68 11.0667 158.38 10.8C159.113 10.5334 159.697 10.3334 160.13 10.2C161.83 9.60002 162.863 9.23335 163.23 9.10002C163.463 9.03335 163.663 9.05002 163.83 9.15002C164.063 9.25002 164.197 9.36668 164.23 9.50002Z" fill="white"/>
<path d="M195.053 9.55002L194.653 9.90002C194.819 10.3667 194.669 10.6667 194.203 10.8C194.169 10.8 194.119 10.8167 194.053 10.85C193.986 10.8834 193.903 10.9167 193.803 10.95C193.736 10.95 193.669 10.9667 193.603 11C193.203 11.1334 192.653 11.3334 191.953 11.6L190.453 12.2C190.219 12.3 189.369 12.6167 187.903 13.15C186.636 13.6167 185.669 13.9834 185.003 14.25C184.003 14.65 183.153 15 182.453 15.3C181.453 15.7 180.303 16.2 179.003 16.8C177.736 17.3667 176.453 17.8667 175.153 18.3C173.919 18.7 172.769 18.9 171.703 18.9C170.636 18.9 169.853 18.5167 169.353 17.75C169.086 17.3834 169.003 16.95 169.103 16.45C169.203 15.8834 169.369 15.3834 169.603 14.95C169.869 14.4167 170.169 13.9334 170.503 13.5C171.036 12.8 171.336 12.4167 171.403 12.35C172.136 11.45 172.486 10.7833 172.453 10.35C172.453 10.1833 172.403 10.05 172.303 9.95002C171.769 10.25 170.919 10.7167 169.753 11.35C168.986 11.75 168.053 12.1667 166.953 12.6C166.053 12.9334 165.253 13.1834 164.553 13.35C163.886 13.4834 163.386 13.45 163.053 13.25C162.719 13.05 162.519 12.7667 162.453 12.4C162.419 12.0667 162.419 11.7167 162.453 11.35C162.519 10.9834 162.619 10.65 162.753 10.35C162.786 10.2833 162.836 10.1833 162.903 10.05C162.936 9.98335 162.969 9.93335 163.003 9.90002C163.003 9.86668 163.019 9.83335 163.053 9.80002C163.053 9.73335 163.069 9.68335 163.103 9.65002C163.336 9.21668 163.653 9.11668 164.053 9.35002C164.486 9.58335 164.586 9.90002 164.353 10.3C164.153 10.7667 164.019 11.1167 163.953 11.35C163.853 11.7167 163.819 11.9667 163.853 12.1C164.086 12.1 164.503 12 165.103 11.8C165.703 11.6 166.353 11.35 167.053 11.05C167.519 10.85 168.253 10.5167 169.253 10.05C169.886 9.75002 170.586 9.36668 171.353 8.90002V8.85002C170.919 8.51668 170.653 8.20002 170.553 7.90002C170.453 7.63335 170.436 7.36668 170.503 7.10002C170.636 6.13335 171.636 5.31668 173.503 4.65002C174.603 4.21668 175.353 4.30002 175.753 4.90002C175.919 5.16668 175.969 5.45002 175.903 5.75002C175.836 6.08335 175.719 6.40002 175.553 6.70002C175.353 7.06668 175.136 7.38335 174.903 7.65002C174.736 7.85002 174.453 8.15002 174.053 8.55002C173.819 8.78335 173.653 8.93335 173.553 9.00002C173.819 9.36668 173.953 9.71668 173.953 10.05C174.053 10.85 173.603 11.8667 172.603 13.1C171.903 13.9334 171.386 14.7167 171.053 15.45C170.753 16.0834 170.686 16.5334 170.853 16.8C171.019 17.1 171.569 17.2 172.503 17.1C173.503 17 174.886 16.6167 176.653 15.95C178.553 15.2167 180.436 14.4667 182.303 13.7C185.003 12.6 186.436 12.0167 186.603 11.95C187.869 11.45 189.386 10.8833 191.153 10.25C191.453 10.15 191.936 9.96668 192.603 9.70002C193.269 9.43335 193.786 9.23335 194.153 9.10002C194.586 8.96668 194.886 9.11668 195.053 9.55002ZM171.653 7.50002H171.703C171.703 7.63335 171.769 7.75002 171.903 7.85002C172.003 7.91668 172.153 8.05002 172.353 8.25002C172.453 8.18335 172.619 8.03335 172.853 7.80002C173.253 7.40002 173.553 7.05002 173.753 6.75002C173.819 6.65002 173.903 6.51668 174.003 6.35002C174.103 6.18335 174.169 6.08335 174.203 6.05002C174.069 6.08335 173.903 6.13335 173.703 6.20002C172.936 6.50002 172.419 6.76668 172.153 7.00002C171.853 7.23335 171.686 7.40002 171.653 7.50002Z" fill="white"/>
<path d="M243.254 17L242.804 17.05C242.271 17.05 241.821 17 241.454 16.9C241.154 16.8 240.888 16.7 240.654 16.6C240.421 16.5 240.271 16.3834 240.204 16.25C240.138 16.15 240.071 16.0334 240.004 15.9C239.638 15 239.938 13.9667 240.904 12.8C241.838 11.6667 243.138 10.3167 244.804 8.75002L245.554 8.00002C245.888 7.66668 246.138 7.43335 246.304 7.30002C246.171 7.33335 245.921 7.41668 245.554 7.55002C245.221 7.65002 244.954 7.73335 244.754 7.80002C243.954 8.06668 243.338 8.28335 242.904 8.45002C242.038 8.78335 241.371 9.03335 240.904 9.20002C240.204 9.46668 239.554 9.71668 238.954 9.95002C238.354 10.15 237.471 10.4667 236.304 10.9C235.171 11.3 234.371 11.5834 233.904 11.75C232.838 12.15 231.838 12.4667 230.904 12.7C230.171 12.9 229.654 13 229.354 13C229.088 13 228.871 12.9167 228.704 12.75C228.238 12.25 228.138 11.6667 228.404 11C228.671 10.3667 229.054 9.78335 229.554 9.25002C229.921 8.95002 230.254 8.95002 230.554 9.25002C230.721 9.41668 230.804 9.58335 230.804 9.75002C230.804 9.91668 230.721 10.0833 230.554 10.25C230.021 10.8167 229.738 11.2667 229.704 11.6C229.938 11.5667 230.421 11.4334 231.154 11.2C231.888 10.9667 232.621 10.7167 233.354 10.45C233.488 10.4167 233.854 10.2834 234.454 10.05C235.054 9.81668 235.538 9.63335 235.904 9.50002C236.271 9.36668 236.754 9.18335 237.354 8.95002C237.954 8.71668 238.321 8.58335 238.454 8.55002C239.221 8.25002 240.921 7.63335 243.554 6.70002C244.788 6.23335 245.738 5.93335 246.404 5.80002C247.071 5.66668 247.521 5.61668 247.754 5.65002C247.988 5.68335 248.188 5.78335 248.354 5.95002C248.721 6.38335 248.671 6.88335 248.204 7.45002C247.738 8.01668 246.988 8.81668 245.954 9.85002C245.688 10.0834 245.221 10.5333 244.554 11.2C243.988 11.7334 243.488 12.2834 243.054 12.85C242.521 13.5167 242.138 14.0167 241.904 14.35C241.604 14.7834 241.504 15.1334 241.604 15.4C241.838 15.7 242.754 15.75 244.354 15.55C245.788 15.3834 247.788 15 250.354 14.4C252.521 13.9 255.221 13.1667 258.454 12.2C261.154 11.4 264.171 10.3667 267.504 9.10002C267.938 8.96668 268.238 9.10002 268.404 9.50002C268.471 9.73335 268.454 9.93335 268.354 10.1C268.254 10.3 268.138 10.4167 268.004 10.45C266.704 10.95 265.354 11.45 263.954 11.95C263.021 12.2834 261.588 12.75 259.654 13.35C259.088 13.5167 257.654 13.9334 255.354 14.6C254.054 14.9667 252.721 15.3167 251.354 15.65C249.288 16.15 247.621 16.5 246.354 16.7C245.054 16.9 244.021 17 243.254 17Z" fill="white"/>
<path d="M298.45 9.55002L298.35 9.45002C298.383 9.48335 298.4 9.58335 298.4 9.75002C298.333 10.0167 298.183 10.2 297.95 10.3C297.85 10.3 297.5 10.4167 296.9 10.65C296.233 10.8834 295.383 11.1834 294.35 11.55C293.516 11.85 292.416 12.25 291.05 12.75C289.983 13.15 288.583 13.6167 286.85 14.15C285.583 14.55 284.183 14.9167 282.65 15.25C281.283 15.55 280.133 15.7 279.2 15.7C278.666 15.7 278.2 15.6167 277.8 15.45C277.266 15.1834 276.983 14.7834 276.95 14.25C276.916 13.85 277.016 13.3834 277.25 12.85C277.516 12.25 277.833 11.7 278.2 11.2L279.1 10.1C279.266 9.90002 279.55 9.60002 279.95 9.20002L280.7 8.45002C278.733 8.95002 276.616 9.58335 274.35 10.35C272.45 10.9833 270.383 11.6 268.15 12.2C267.916 12.3 267.65 12.35 267.35 12.35C267.05 12.35 266.783 12.3 266.55 12.2C266.316 12.1 266.116 11.95 265.95 11.75C265.816 11.55 265.8 11.3 265.9 11C266.3 10.1334 266.883 9.38335 267.65 8.75002L269.9 6.95002C270.766 6.35002 271.433 5.90002 271.9 5.60002C272.566 5.16668 273.283 4.80002 274.05 4.50002C274.816 4.20002 275.583 4.00002 276.35 3.90002C277.15 3.80002 277.95 3.85002 278.75 4.05002C279.383 4.18335 279.933 4.51668 280.4 5.05002C280.866 5.55002 281.066 6.15002 281 6.85002H281.7C281.866 6.85002 282.016 6.86668 282.15 6.90002C282.416 6.96668 282.6 7.01668 282.7 7.05002C282.833 7.08335 282.966 7.16668 283.1 7.30002C283.2 7.40002 283.216 7.53335 283.15 7.70002C282.65 8.36668 282.333 8.76668 282.2 8.90002C281.8 9.36668 281.533 9.66669 281.4 9.80002C281.233 9.96668 281.016 10.2167 280.75 10.55C280.616 10.7167 280.383 10.9667 280.05 11.3C279.516 12 279.116 12.5667 278.85 13C278.55 13.4667 278.433 13.85 278.5 14.15C278.5 14.1834 278.533 14.2334 278.6 14.3C278.966 14.5 279.75 14.5 280.95 14.3C282.016 14.1334 283.416 13.8 285.15 13.3C286.583 12.9 288.266 12.3667 290.2 11.7C291.5 11.2667 293.1 10.6834 295 9.95002C295.333 9.91668 295.65 9.81668 295.95 9.65002L296.75 9.35002L297.5 9.05002C297.666 8.98335 297.85 9.00002 298.05 9.10002C298.283 9.20002 298.416 9.35002 298.45 9.55002ZM279.5 7.30002L279.3 7.25002C279.5 6.65002 279.466 6.20002 279.2 5.90002C278.933 5.60002 278.583 5.40002 278.15 5.30002C277.65 5.20002 277.15 5.16668 276.65 5.20002C276.083 5.26668 275.633 5.36668 275.3 5.50002C273.8 6.03335 272.4 6.78335 271.1 7.75002C269.8 8.71668 268.6 9.76668 267.5 10.9C269.433 10.4667 271.433 9.88335 273.5 9.15002C275.266 8.51668 277.266 7.90002 279.5 7.30002Z" fill="white"/>
<path d="M330.681 9.55002L330.081 9.70002C330.248 10.1667 330.098 10.4667 329.631 10.6C327.698 11.3667 325.781 12.0667 323.881 12.7C322.215 13.2334 320.115 13.85 317.581 14.55C314.981 15.2834 313.031 15.85 311.731 16.25C309.698 16.8834 307.831 17.55 306.131 18.25L304.831 20.3C303.831 21.8667 302.648 23.6167 301.281 25.55C300.048 27.3167 298.681 28.9167 297.181 30.35C296.815 30.7167 296.315 31.15 295.681 31.65C294.981 32.2167 294.231 32.6667 293.431 33C292.598 33.3667 291.848 33.5 291.181 33.4C290.448 33.3 289.965 32.75 289.731 31.75C289.631 31.3834 289.615 30.9834 289.681 30.55C289.715 30.15 289.815 29.75 289.981 29.35C290.148 28.9167 290.348 28.5334 290.581 28.2L291.331 27.15C292.165 25.9834 293.148 24.8834 294.281 23.85C295.448 22.7833 296.598 21.85 297.731 21.05C299.031 20.1167 300.281 19.3334 301.481 18.7C303.215 17.7667 304.515 17.0834 305.381 16.65C305.748 16.15 306.265 15.4 306.931 14.4C307.431 13.6667 307.831 12.8334 308.131 11.9C308.198 11.4334 308.031 11.15 307.631 11.05C307.265 10.95 306.898 10.9334 306.531 11C305.465 11.1 304.498 11.3667 303.631 11.8C302.431 12.4 301.548 12.8667 300.981 13.2C300.748 13.1334 300.598 13.0334 300.531 12.9C300.465 12.7667 300.465 12.6167 300.531 12.45C300.565 12.35 300.648 12.2 300.781 12C300.881 11.8334 301.015 11.7 301.181 11.6C301.948 10.8334 302.731 10.1 303.531 9.40002L305.931 7.30002C304.265 7.93335 303.098 8.38335 302.431 8.65002C301.631 8.95002 300.865 9.25002 300.131 9.55002C299.965 9.61668 299.781 9.70002 299.581 9.80002C299.415 9.86668 299.248 9.93335 299.081 10C298.915 10.0667 298.798 10.1167 298.731 10.15C298.265 10.35 297.998 10.4667 297.931 10.5C297.465 10.6667 297.165 10.55 297.031 10.15C296.965 9.98335 296.965 9.80002 297.031 9.60002C297.098 9.36668 297.198 9.23335 297.331 9.20002C297.831 9.00002 298.115 8.88335 298.181 8.85002C298.381 8.75002 298.715 8.60002 299.181 8.40002C300.948 7.66668 302.165 7.16668 302.831 6.90002C303.565 6.60002 304.248 6.31668 304.881 6.05002C305.381 5.81668 305.715 5.68335 305.881 5.65002C306.148 5.58335 306.331 5.53335 306.431 5.50002C307.565 5.16668 308.315 5.16668 308.681 5.50002C308.848 5.70002 308.848 5.95002 308.681 6.25002C308.515 6.55002 308.315 6.85002 308.081 7.15002C307.748 7.55002 307.481 7.83335 307.281 8.00002C307.081 8.16668 306.865 8.36668 306.631 8.60002C306.598 8.60002 306.581 8.61668 306.581 8.65002L305.831 9.25002C305.498 9.51668 305.248 9.73335 305.081 9.90002C305.448 9.83335 305.848 9.78335 306.281 9.75002C306.881 9.68335 307.315 9.65002 307.581 9.65002C307.948 9.65002 308.331 9.73335 308.731 9.90002C309.098 10.0667 309.398 10.3334 309.631 10.7C309.898 11.3667 309.931 12.0167 309.731 12.65C309.565 13.2167 309.331 13.7667 309.031 14.3L308.581 15.05C308.415 15.2834 308.215 15.5834 307.981 15.95C309.848 15.2834 311.448 14.75 312.781 14.35C314.981 13.6834 316.631 13.2 317.731 12.9C319.831 12.3334 321.815 11.7334 323.681 11.1C325.648 10.4334 327.648 9.78335 329.681 9.15002C329.915 9.08335 330.115 9.10002 330.281 9.20002C330.515 9.30002 330.648 9.41668 330.681 9.55002ZM294.481 30.85L294.381 30.7C296.381 29.1 298.115 27.2667 299.581 25.2C301.115 23 302.548 20.9167 303.881 18.95C301.548 20.1167 299.365 21.4667 297.331 23C295.265 24.5667 293.515 26.3834 292.081 28.45C291.715 29.0834 291.448 29.7334 291.281 30.4C291.115 31 291.115 31.45 291.281 31.75C291.448 32.05 291.781 32.15 292.281 32.05C292.815 31.95 293.548 31.55 294.481 30.85Z" fill="white"/>
<path d="M355.759 9.55002L355.359 9.60002C355.426 9.76668 355.409 9.93335 355.309 10.1C355.209 10.3 355.092 10.4167 354.959 10.45C354.892 10.5167 354.442 10.7 353.609 11C352.742 11.3 351.742 11.65 350.609 12.05C349.842 12.3167 348.726 12.7167 347.259 13.25C346.159 13.65 345.359 13.95 344.859 14.15C343.226 14.6167 342.209 14.9 341.809 15C340.576 15.3 339.542 15.5333 338.709 15.7C338.209 15.8 337.426 15.95 336.359 16.15C335.659 16.2834 334.859 16.35 333.959 16.35C333.159 16.35 332.359 16.25 331.559 16.05C330.726 15.85 329.976 15.4834 329.309 14.95C328.809 14.55 328.509 14.0667 328.409 13.5C328.309 13 328.342 12.4 328.509 11.7C328.642 11.1334 328.876 10.5167 329.209 9.85002C329.442 9.38335 329.726 8.88335 330.059 8.35002C330.726 7.28335 331.559 6.35002 332.559 5.55002C333.559 4.75002 334.642 4.15002 335.809 3.75002C336.309 3.58335 336.859 3.53335 337.459 3.60002C338.092 3.66668 338.526 3.96668 338.759 4.50002C338.892 5.00002 338.842 5.46668 338.609 5.90002C338.376 6.33335 338.076 6.70002 337.709 7.00002C336.709 7.86668 335.559 8.58335 334.259 9.15002C333.159 9.65002 331.909 10.1167 330.509 10.55C330.442 10.7167 330.342 10.9834 330.209 11.35C330.076 11.7167 329.992 11.95 329.959 12.05C329.759 12.5834 329.842 13.0834 330.209 13.55C330.842 14.15 331.626 14.5 332.559 14.6C333.559 14.7 334.426 14.7334 335.159 14.7C337.459 14.5 339.809 14.0667 342.209 13.4C344.576 12.7334 346.859 11.9834 349.059 11.15C349.859 10.85 350.359 10.6667 350.559 10.6L352.359 10C352.559 9.93335 352.842 9.83335 353.209 9.70002C353.576 9.56668 353.826 9.48335 353.959 9.45002C354.459 9.28335 354.742 9.18335 354.809 9.15002C354.976 9.08335 355.159 9.10002 355.359 9.20002C355.592 9.30002 355.726 9.41668 355.759 9.55002ZM337.309 4.85002C336.042 4.91668 334.892 5.31668 333.859 6.05002C332.826 6.78335 331.926 7.63335 331.159 8.60002C332.259 8.23335 333.392 7.75002 334.559 7.15002C335.659 6.61668 336.576 5.85002 337.309 4.85002Z" fill="white"/>
<path d="M383.556 9.55002L383.355 10.05C383.489 10.4834 383.339 10.7833 382.906 10.95L380.706 11.75C380.339 11.8834 379.822 12.0834 379.155 12.35C378.655 12.55 378.389 12.65 378.355 12.65V12.6C376.155 13.3334 374.089 13.85 372.155 14.15C370.289 14.45 368.672 14.6 367.306 14.6C366.072 14.6 365.072 14.5334 364.306 14.4C363.506 14.2667 362.789 14.1167 362.155 13.95L361.806 14.2C361.006 14.6334 359.772 15.2834 358.105 16.15C356.872 16.7834 355.522 17.1334 354.056 17.2C353.656 17.2667 353.289 17.2 352.956 17C352.489 16.7334 352.139 16.55 351.905 16.45C350.672 17.8167 349.556 19.2833 348.556 20.85C347.889 21.8834 346.922 23.4333 345.655 25.5C345.522 25.6334 345.422 25.75 345.355 25.85L345.056 26.3C344.956 26.4667 344.839 26.5667 344.706 26.6C344.539 26.6667 344.389 26.6667 344.255 26.6C343.989 26.4 343.855 26.1667 343.855 25.9C343.855 25.6334 343.905 25.3834 344.005 25.15C344.072 24.9834 344.205 24.7334 344.405 24.4C344.605 24.0667 344.739 23.8334 344.806 23.7C346.972 20.4 349.172 17.15 351.405 13.95C353.572 10.85 356.005 7.75002 358.706 4.65002C359.172 4.18335 359.605 3.70002 360.005 3.20002C360.405 2.70002 360.839 2.21668 361.306 1.75002C361.539 1.58335 361.739 1.50002 361.905 1.50002C362.172 1.50002 362.355 1.51668 362.456 1.55002C362.622 1.61668 362.706 1.71668 362.706 1.85002C362.706 2.05002 362.639 2.23335 362.505 2.40002C361.339 3.83335 360.239 5.11668 359.206 6.25002C358.172 7.35002 357.105 8.68335 356.005 10.25C356.539 9.85002 357.289 9.36668 358.255 8.80002C359.522 8.06668 360.639 7.48335 361.605 7.05002C362.806 6.51668 363.989 6.11668 365.155 5.85002C366.322 5.58335 367.255 5.63335 367.956 6.00002C368.089 6.10002 368.189 6.25002 368.255 6.45002C368.322 6.71668 368.355 6.93335 368.355 7.10002C368.355 7.26668 368.322 7.51668 368.255 7.85002C367.789 8.78335 367.172 9.58335 366.405 10.25C365.639 10.9167 364.772 11.6334 363.806 12.4C364.572 12.5667 365.439 12.6667 366.405 12.7C367.405 12.7667 368.556 12.7167 369.855 12.55C371.155 12.3834 372.605 12.1334 374.206 11.8C375.806 11.4667 377.556 10.9667 379.456 10.3C379.522 10.3 379.706 10.25 380.005 10.15C380.039 10.1167 380.355 9.98335 380.956 9.75002C381.422 9.55002 381.772 9.41668 382.005 9.35002C382.239 9.28335 382.456 9.20002 382.656 9.10002C383.122 8.96668 383.422 9.11668 383.556 9.55002ZM366.855 7.50002C364.922 7.66668 363.039 8.15002 361.206 8.95002C359.306 9.75002 357.605 10.8167 356.105 12.15C357.072 12.1167 358.022 12.1167 358.956 12.15C360.222 12.2167 361.172 12.2834 361.806 12.35C362.439 11.8834 363.389 11.15 364.655 10.15C365.589 9.41668 366.322 8.53335 366.855 7.50002ZM353.155 15.8L353.005 15.9C354.239 16 355.422 15.8167 356.556 15.35C357.622 14.9167 358.706 14.3834 359.806 13.75C359.006 13.6834 358.372 13.65 357.905 13.65C357.239 13.65 356.605 13.7 356.005 13.8C355.405 13.9 354.855 14.1 354.355 14.4C353.855 14.7 353.455 15.1667 353.155 15.8Z" fill="white"/>
<path d="M413.789 9.45002L413.639 9.65002C413.705 9.88335 413.689 10.0833 413.589 10.25C413.489 10.45 413.372 10.5667 413.239 10.6C413.172 10.6 412.722 10.75 411.889 11.05C410.189 11.65 409.089 12.0334 408.589 12.2C406.089 13.0334 404.555 13.55 403.989 13.75C402.089 14.4167 400.322 15.0167 398.689 15.55C398.522 15.6167 397.622 15.8834 395.989 16.35C395.489 16.5167 394.705 16.7334 393.639 17C393.372 17.0667 393.005 17.1667 392.539 17.3C392.072 17.4 391.739 17.4667 391.539 17.5C390.705 17.6334 390.005 17.7167 389.439 17.75C388.705 17.7833 388.055 17.5333 387.489 17C387.155 16.6667 387.039 16.2667 387.139 15.8C387.205 15.4334 387.339 15.0334 387.539 14.6C387.872 13.9334 388.272 13.3334 388.739 12.8L390.089 11.15C389.422 11.35 388.555 11.5667 387.489 11.8C386.589 12 385.739 12.15 384.939 12.25C383.739 12.4167 383.039 12.5 382.839 12.5C382.239 12.5667 381.789 12.6167 381.489 12.65C380.889 13.35 380.372 13.9667 379.939 14.5C379.539 15 379.322 15.2667 379.289 15.3C379.122 15.4667 378.939 15.55 378.739 15.55C378.605 15.55 378.455 15.5 378.289 15.4C377.922 15.1 377.872 14.7667 378.139 14.4L378.239 14.3C378.305 14.2 378.405 14.0667 378.539 13.9C378.672 13.7334 378.805 13.5667 378.939 13.4C379.439 12.8 380.039 12.1 380.739 11.3C380.939 11.0667 381.289 10.6667 381.789 10.1C382.255 9.53335 382.622 9.10002 382.889 8.80002C383.555 8.03335 384.205 7.36668 384.839 6.80002C385.205 6.50002 385.539 6.51668 385.839 6.85002C386.139 7.21668 386.122 7.55002 385.789 7.85002C385.389 8.21668 384.939 8.66668 384.439 9.20002C383.705 10 383.172 10.6 382.839 11C383.072 10.9667 383.822 10.8834 385.089 10.75C385.989 10.65 386.872 10.5 387.739 10.3C388.472 10.1334 389.355 9.90002 390.389 9.60002C391.222 9.36668 391.955 9.03335 392.589 8.60002L393.189 8.00002C393.355 7.83335 393.605 7.55002 393.939 7.15002C394.272 6.75002 394.522 6.46668 394.689 6.30002C394.855 6.13335 395.022 6.05002 395.189 6.05002C395.422 6.05002 395.605 6.11668 395.739 6.25002C395.905 6.41668 395.989 6.58335 395.989 6.75002C395.989 6.95002 395.922 7.11668 395.789 7.25002C394.289 8.81668 392.939 10.2667 391.739 11.6C390.572 12.9334 389.505 14.45 388.539 16.15C389.839 16.25 391.155 16.1167 392.489 15.75C394.222 15.2834 395.505 14.9334 396.339 14.7C396.639 14.6667 396.972 14.5834 397.339 14.45C397.539 14.3834 397.872 14.2834 398.339 14.15C400.439 13.5167 402.689 12.7667 405.089 11.9C407.722 10.9667 410.305 10.0167 412.839 9.05002C413.005 8.98335 413.189 9.00002 413.389 9.10002C413.622 9.20002 413.755 9.31668 413.789 9.45002Z" fill="white"/>
<path d="M439.962 9.55002L440.012 9.85002C440.145 10.2834 439.995 10.5834 439.562 10.75L438.862 11C438.429 11.2 437.929 11.4 437.362 11.6C436.462 11.9334 435.945 12.1167 435.812 12.15C435.679 12.1834 435.545 12.2334 435.412 12.3C435.279 12.3334 435.179 12.3667 435.112 12.4H435.012C432.712 13.1667 430.645 13.6667 428.812 13.9C426.845 14.1667 425.195 14.3 423.862 14.3C422.695 14.3 421.579 14.2167 420.512 14.05C419.679 13.9167 418.912 13.7334 418.212 13.5L418.162 13.55C417.162 14.55 416.062 15.3834 414.862 16.05C413.629 16.75 412.279 17.05 410.812 16.95C410.179 16.95 409.662 16.6667 409.262 16.1C408.862 15.5667 408.795 15.0167 409.062 14.45C409.495 13.4834 410.079 12.5834 410.812 11.75C411.279 11.2167 412.012 10.45 413.012 9.45002C412.779 8.75002 412.629 8.01668 412.562 7.25002C412.529 6.48335 412.729 5.78335 413.162 5.15002C413.462 4.61668 413.862 4.20002 414.362 3.90002C414.862 3.60002 415.412 3.40002 416.012 3.30002C416.612 3.20002 417.195 3.25002 417.762 3.45002C418.329 3.65002 418.812 3.98335 419.212 4.45002C419.679 5.01668 420.012 5.61668 420.212 6.25002C420.412 6.88335 420.512 7.56668 420.512 8.30002C420.512 9.06668 420.395 9.75002 420.162 10.35C419.895 11.05 419.579 11.65 419.212 12.15C419.979 12.3167 420.812 12.45 421.712 12.55C422.579 12.65 423.779 12.6667 425.312 12.6C426.679 12.5667 428.245 12.3667 430.012 12C431.745 11.6667 433.695 11.1167 435.862 10.35C435.895 10.3167 436.079 10.25 436.412 10.15C436.979 9.95002 437.312 9.83335 437.412 9.80002C437.879 9.60002 438.212 9.46668 438.412 9.40002C438.612 9.33335 438.812 9.25002 439.012 9.15002C439.179 9.08335 439.362 9.10002 439.562 9.20002C439.795 9.30002 439.929 9.41668 439.962 9.55002ZM419.162 7.45002L419.262 7.50002C419.095 6.50002 418.729 5.80002 418.162 5.40002C417.562 5.00002 416.945 4.86668 416.312 5.00002C415.645 5.13335 415.095 5.53335 414.662 6.20002C414.229 6.83335 414.079 7.70002 414.212 8.80002C414.745 8.50002 415.145 8.45002 415.412 8.65002C415.679 8.85002 415.529 9.28335 414.962 9.95002C415.262 10.2834 415.662 10.65 416.162 11.05C416.595 11.4167 417.145 11.7167 417.812 11.95C418.279 11.3167 418.679 10.6167 419.012 9.85002C419.345 9.08335 419.395 8.28335 419.162 7.45002ZM410.412 15.5C411.645 15.7334 412.795 15.5834 413.862 15.05C414.962 14.4834 415.962 13.8334 416.862 13.1C415.729 12.4334 414.745 11.6834 413.912 10.85C413.245 11.55 412.579 12.2667 411.912 13C411.279 13.7334 410.779 14.5667 410.412 15.5Z" fill="white"/>
<path d="M449.634 4.45002L449.434 4.60002C449.101 4.60002 448.851 4.58335 448.684 4.55002C448.417 4.51668 448.217 4.41668 448.084 4.25002C447.651 3.95002 447.434 3.51668 447.434 2.95002C447.434 2.38335 447.584 1.85002 447.884 1.35002C448.151 0.950017 448.467 0.866683 448.834 1.10002C449.001 1.20002 449.101 1.35002 449.134 1.55002C449.201 1.75002 449.184 1.91668 449.084 2.05002C448.951 2.25002 448.867 2.45002 448.834 2.65002C448.801 2.88335 448.801 3.03335 448.834 3.10002C449.001 3.20002 449.267 3.23335 449.634 3.20002C450.267 3.13335 450.717 3.06668 450.984 3.00002C451.184 2.96668 451.701 2.83335 452.534 2.60002C453.001 2.46668 453.534 2.28335 454.134 2.05002C454.301 1.98335 454.484 1.98335 454.684 2.05002C454.884 2.11668 455.017 2.25002 455.084 2.45002C455.151 2.61668 455.134 2.78335 455.034 2.95002C454.934 3.15002 454.817 3.26668 454.684 3.30002C454.584 3.33335 454.417 3.40002 454.184 3.50002C453.984 3.56668 453.834 3.61668 453.734 3.65002C453.434 3.78335 453.017 3.90002 452.484 4.00002C452.184 4.06668 451.701 4.16668 451.034 4.30002C450.534 4.40002 450.067 4.45002 449.634 4.45002ZM474.284 9.65002C474.351 9.81668 474.334 10 474.234 10.2C474.134 10.4334 473.984 10.5667 473.784 10.6L472.984 10.95C472.251 11.2167 471.534 11.4667 470.834 11.7L467.684 12.75C467.284 12.8834 466.651 13.1 465.784 13.4C464.951 13.6667 464.301 13.8834 463.834 14.05C463.301 14.2167 462.467 14.4667 461.334 14.8C459.867 15.2334 459.067 15.4667 458.934 15.5C458.801 15.5334 458.484 15.6167 457.984 15.75C457.484 15.8834 457.117 15.9834 456.884 16.05L455.684 16.35C453.551 16.85 452.001 17.1834 451.034 17.35C449.834 17.55 448.884 17.65 448.184 17.65C447.484 17.65 447.001 17.5834 446.734 17.45C446.401 17.2834 446.167 17.1167 446.034 16.95C446.001 16.85 445.951 16.7 445.884 16.5C445.817 16.2667 445.884 15.9167 446.084 15.45C446.284 14.9167 446.651 14.25 447.184 13.45C447.684 12.6834 448.534 11.5667 449.734 10.1C447.701 10.7 445.701 11.45 443.734 12.35C441.701 13.2834 439.701 14.0167 437.734 14.55L436.384 14.8C435.917 14.9 435.551 14.7167 435.284 14.25C435.084 13.85 435.101 13.4834 435.334 13.15C435.567 12.7834 435.817 12.4834 436.084 12.25C437.151 11.0834 438.151 10.05 439.084 9.15002C440.084 8.18335 441.217 7.28335 442.484 6.45002C442.651 6.28335 442.817 6.18335 442.984 6.15002C443.184 6.08335 443.367 6.08335 443.534 6.15002C443.701 6.18335 443.801 6.28335 443.834 6.45002C443.901 6.61668 443.884 6.81668 443.784 7.05002C442.517 7.95002 441.317 8.90002 440.184 9.90002C439.151 10.8 438.084 11.8834 436.984 13.15C438.017 12.85 439.084 12.5 440.184 12.1C441.584 11.5667 442.634 11.15 443.334 10.85C444.034 10.55 445.084 10.1334 446.484 9.60002C447.617 9.16668 448.701 8.83335 449.734 8.60002C450.134 8.46668 450.584 8.41668 451.084 8.45002C451.584 8.48335 451.834 8.78335 451.834 9.35002C451.834 9.51668 451.734 9.71668 451.534 9.95002C451.334 10.2167 451.217 10.35 451.184 10.35L449.834 12C449.401 12.5334 449.001 13.0834 448.634 13.65C448.501 13.85 448.317 14.1334 448.084 14.5C447.884 14.8334 447.767 15.0334 447.734 15.1C447.501 15.5 447.351 15.8 447.284 16C447.617 16.1334 448.334 16.1334 449.434 16C450.801 15.8 452.101 15.5834 453.334 15.35C454.467 15.1167 456.084 14.7334 458.184 14.2C459.917 13.7334 461.617 13.2334 463.284 12.7L464.334 12.35C465.034 12.1167 465.884 11.8167 466.884 11.45C467.217 11.3167 467.751 11.1334 468.484 10.9C469.217 10.6667 469.767 10.4833 470.134 10.35C471.534 9.85002 472.551 9.48335 473.184 9.25002C473.417 9.18335 473.617 9.20002 473.784 9.30002C473.951 9.40002 474.067 9.53335 474.134 9.70002L474.284 9.65002Z" fill="white"/>
<path d="M34.15 54.45L33.7 54.75C33.7667 54.9167 33.75 55.0833 33.65 55.25C33.55 55.45 33.4334 55.5667 33.3 55.6C29.9 56.9 26.2834 58.0167 22.45 58.95C18.85 59.8167 14.8334 60.5834 10.4 61.25C9.60003 61.3834 8.98337 61.4834 8.55003 61.55C7.78336 61.6834 7.1667 61.8 6.70003 61.9C5.9667 62.6 5.13336 63.2667 4.20003 63.9C3.40003 64.4333 2.7167 64.7334 2.15003 64.8C1.85003 64.8 1.55003 64.75 1.25003 64.65C0.916698 64.55 0.683365 64.3334 0.550031 64C0.383365 63.7334 0.333365 63.4834 0.400031 63.25C0.466698 63.0167 0.516698 62.8167 0.550031 62.65C0.783365 62.1167 1.3667 61.7 2.30003 61.4C3.10003 61.1334 4.4167 60.8167 6.25003 60.45C6.55003 60.15 6.9667 59.7 7.50003 59.1C8.03336 58.5 8.4167 58.05 8.65003 57.75L5.85003 58.25H5.75003C5.3167 58.25 5.08336 58.05 5.05003 57.65C5.0167 57.2167 5.2167 56.9667 5.65003 56.9L9.80003 56.2C9.8667 56.1334 9.9667 55.9834 10.1 55.75C10.3 55.4167 10.4334 55.1667 10.5 55L10.8 54.25C10.9 54.0167 10.9 53.85 10.8 53.75C10.5667 53.5833 10.1667 53.55 9.60003 53.65C8.80003 53.7833 8.18337 53.9 7.75003 54C7.18336 54.1334 6.6167 54.2833 6.05003 54.45L5.35003 54.7L4.55003 55C4.2167 55.1334 3.9667 55.25 3.80003 55.35C3.40003 55.4834 3.08336 55.3667 2.85003 55C2.78336 54.8333 2.78336 54.65 2.85003 54.45C2.9167 54.25 3.05003 54.1167 3.25003 54.05C3.3167 54.0167 3.48336 53.9334 3.75003 53.8C4.05003 53.6667 4.30003 53.5667 4.50003 53.5C5.10003 53.2667 5.63336 53.0834 6.10003 52.95C6.53336 52.7833 7.00003 52.6334 7.50003 52.5C8.03336 52.3667 8.5667 52.2667 9.10003 52.2C9.60003 52.1334 10.0834 52.1334 10.55 52.2C11.0167 52.2667 11.4 52.4167 11.7 52.65C11.8667 52.7834 12.0334 53.0167 12.2 53.35C12.3667 53.65 12.3667 54.0834 12.2 54.65C12.0667 55.2834 11.6667 56.0834 11 57.05C10.3334 58.0167 9.58336 58.9667 8.75003 59.9C8.9167 59.8667 9.20003 59.8167 9.60003 59.75L10.5 59.6C11.8334 59.3334 13.2834 59.0834 14.85 58.85C16.4167 58.6167 18.0167 58.3167 19.65 57.95C21.3834 57.5833 23.0667 57.1834 24.7 56.75C26.4 56.3167 28.1 55.8167 29.8 55.25L31.45 54.65C31.8167 54.5167 32.4 54.3167 33.2 54.05C33.3667 53.9834 33.55 54 33.75 54.1C33.9834 54.2 34.1167 54.3167 34.15 54.45ZM1.65003 63.5C1.95003 63.5667 2.30003 63.4667 2.70003 63.2C2.83336 63.1334 2.95003 63.0667 3.05003 63C3.18336 62.9 3.3167 62.8167 3.45003 62.75C3.58336 62.6834 3.6667 62.6334 3.70003 62.6C3.20003 62.7334 2.73336 62.8834 2.30003 63.05C1.93336 63.1834 1.7167 63.3334 1.65003 63.5Z" fill="white"/>
<path d="M65.4723 54.55L65.3723 55.2C65.539 55.6667 65.389 55.9667 64.9223 56.1C64.8556 56.1 64.4056 56.25 63.5723 56.55C61.8723 57.15 60.7723 57.5333 60.2723 57.7C57.7723 58.5333 56.239 59.05 55.6723 59.25C53.7723 59.9167 52.0056 60.5167 50.3723 61.05C50.2056 61.1167 49.3056 61.3834 47.6723 61.85C47.1723 62.0167 46.389 62.2334 45.3223 62.5C45.0556 62.5667 44.6723 62.6667 44.1723 62.8C43.7056 62.9 43.389 62.9667 43.2223 63C42.7556 63.0667 42.0556 63.1334 41.1223 63.2C40.389 63.2333 39.739 63 39.1723 62.5C38.839 62.1667 38.7223 61.7667 38.8223 61.3C38.889 60.9333 39.0223 60.5334 39.2223 60.1C39.7556 59.0667 40.439 58.0834 41.2723 57.15L43.6723 54.45C39.839 55.2167 36.2056 56.5167 32.7723 58.35C32.6056 58.45 32.4056 58.55 32.1723 58.65C31.939 58.75 31.7223 58.7667 31.5223 58.7C31.3556 58.6667 31.189 58.5667 31.0223 58.4C30.889 58.2667 30.839 58.05 30.8723 57.75C31.639 56.1834 32.6223 54.8 33.8223 53.6C34.889 52.5334 36.1223 51.3834 37.5223 50.15C37.8223 49.8834 38.1223 49.8 38.4223 49.9C38.7556 50 38.939 50.25 38.9723 50.65C38.339 51.2833 37.389 52.2 36.1223 53.4C35.1223 54.3667 34.2223 55.3334 33.4223 56.3C35.2223 55.4333 36.989 54.6833 38.7223 54.05C40.5223 53.4167 42.3723 52.9667 44.2723 52.7C44.5723 52.6334 44.8056 52.65 44.9723 52.75C45.1723 52.85 45.3223 53 45.4223 53.2C45.5223 53.4 45.5723 53.6167 45.5723 53.85C45.5723 54.0834 45.4723 54.3 45.2723 54.5C44.6723 55.2334 44.2056 55.7667 43.8723 56.1C43.539 56.4333 43.0723 56.9667 42.4723 57.7C42.039 58.2 41.6223 58.7667 41.2223 59.4C40.7556 60.0667 40.4223 60.6834 40.2223 61.25C41.5223 61.35 42.839 61.2167 44.1723 60.85C45.9056 60.3834 47.189 60.0334 48.0223 59.8C48.489 59.6667 48.8223 59.5667 49.0223 59.5C49.589 59.3 49.9223 59.1833 50.0223 59.15C52.1223 58.5167 54.3723 57.7667 56.7723 56.9C61.5723 55.2 64.1556 54.2834 64.5223 54.15C64.689 54.0834 64.8723 54.1 65.0723 54.2C65.3056 54.3 65.439 54.4167 65.4723 54.55Z" fill="white"/>
<path d="M99.9723 54.5L99.7223 55.2C99.789 55.3667 99.7723 55.5333 99.6723 55.7C99.5723 55.8667 99.4223 55.9834 99.2223 56.05L98.4223 56.35C97.689 56.6167 96.9723 56.8667 96.2723 57.1L93.1223 58.15C92.7223 58.2834 92.089 58.4834 91.2223 58.75C90.389 59.0167 89.739 59.2333 89.2723 59.4C88.739 59.5667 87.9056 59.8167 86.7723 60.15C86.539 60.2167 85.739 60.4334 84.3723 60.8C84.1723 60.8667 83.839 60.9667 83.3723 61.1C82.939 61.2 82.6056 61.2834 82.3723 61.35L81.1723 61.65C79.5056 62.05 77.9556 62.3667 76.5223 62.6C75.3223 62.8 74.3723 62.9 73.6723 62.9C72.9723 62.9 72.489 62.8334 72.2223 62.7C71.889 62.5333 71.6556 62.3667 71.5223 62.2C71.489 62.1 71.439 61.95 71.3723 61.75C71.3056 61.5167 71.3723 61.1667 71.5723 60.7C71.7723 60.1667 72.139 59.5 72.6723 58.7C73.2723 57.7667 74.1223 56.6334 75.2223 55.3C73.189 55.9 71.189 56.65 69.2223 57.55C67.189 58.4834 65.189 59.2167 63.2223 59.75L61.8723 59.95C61.4056 60.05 61.039 59.8667 60.7723 59.4C60.5723 59.0333 60.6056 58.6667 60.8723 58.3C61.139 57.9667 61.389 57.6667 61.6223 57.4C62.689 56.2333 63.689 55.2 64.6223 54.3C65.6223 53.3334 66.7556 52.4333 68.0223 51.6C68.1556 51.4667 68.339 51.3667 68.5723 51.3C68.7723 51.2334 68.9556 51.2334 69.1223 51.3C69.289 51.3667 69.389 51.4667 69.4223 51.6C69.489 51.7667 69.4723 51.9667 69.3723 52.2C68.1056 53.1 66.9056 54.05 65.7723 55.05C64.739 55.95 63.6723 57.0334 62.5723 58.3C63.739 58 64.8223 57.65 65.8223 57.25C66.5223 56.9834 67.5723 56.55 68.9723 55.95C69.6723 55.65 70.7223 55.2333 72.1223 54.7C73.2556 54.2667 74.339 53.9333 75.3723 53.7C75.7723 53.5667 76.2223 53.5167 76.7223 53.55C77.2223 53.5834 77.4723 53.8834 77.4723 54.45C77.4723 54.6167 77.3723 54.8167 77.1723 55.05C76.9723 55.2834 76.8556 55.4 76.8223 55.4L75.4723 57.05C75.0056 57.6167 74.6056 58.1667 74.2723 58.7C74.1723 58.8667 74.0223 59.1167 73.8223 59.45C73.6223 59.75 73.4723 59.9667 73.3723 60.1C73.1056 60.5 72.9556 60.8 72.9223 61C73.289 61.1667 74.0223 61.1667 75.1223 61C75.9556 60.9 77.2556 60.6667 79.0223 60.3C80.1556 60.0667 81.7723 59.6833 83.8723 59.15C85.6056 58.7167 87.3056 58.2167 88.9723 57.65L90.0723 57.25C90.7723 57.0167 91.6223 56.7167 92.6223 56.35C92.9223 56.25 93.4223 56.0667 94.1223 55.8C94.8556 55.5334 95.439 55.3334 95.8723 55.2C97.5723 54.6 98.6056 54.2334 98.9723 54.1C99.2056 54.0334 99.4056 54.05 99.5723 54.15C99.8056 54.25 99.939 54.3667 99.9723 54.5Z" fill="white"/>
<path d="M112.395 62L111.945 62.05C111.412 62.05 110.962 62 110.595 61.9C110.295 61.8 110.028 61.7 109.795 61.6C109.562 61.5 109.412 61.3834 109.345 61.25C109.278 61.15 109.212 61.0333 109.145 60.9C108.778 60 109.078 58.9667 110.045 57.8C110.978 56.6667 112.278 55.3167 113.945 53.75L114.695 53C115.028 52.6667 115.278 52.4334 115.445 52.3C115.312 52.3334 115.062 52.4167 114.695 52.55C114.362 52.65 114.095 52.7334 113.895 52.8C113.095 53.0667 112.478 53.2833 112.045 53.45C111.178 53.7833 110.512 54.0333 110.045 54.2C109.345 54.4667 108.695 54.7167 108.095 54.95C107.495 55.15 106.612 55.4667 105.445 55.9C104.312 56.3 103.512 56.5834 103.045 56.75C101.978 57.15 100.978 57.4667 100.045 57.7C99.3116 57.9 98.795 58 98.495 58C98.2283 58 98.0116 57.9167 97.845 57.75C97.3783 57.25 97.2783 56.6667 97.545 56C97.8116 55.3667 98.195 54.7834 98.695 54.25C99.0616 53.95 99.395 53.95 99.695 54.25C99.8616 54.4167 99.945 54.5833 99.945 54.75C99.945 54.9167 99.8616 55.0833 99.695 55.25C99.1616 55.8167 98.8783 56.2667 98.845 56.6C99.0783 56.5667 99.5616 56.4333 100.295 56.2C101.028 55.9667 101.762 55.7167 102.495 55.45C102.628 55.4167 102.995 55.2834 103.595 55.05C104.195 54.8167 104.678 54.6334 105.045 54.5C105.412 54.3667 105.895 54.1833 106.495 53.95C107.095 53.7167 107.462 53.5834 107.595 53.55C108.362 53.25 110.062 52.6334 112.695 51.7C113.928 51.2333 114.878 50.9334 115.545 50.8C116.212 50.6667 116.662 50.6167 116.895 50.65C117.128 50.6833 117.328 50.7833 117.495 50.95C117.862 51.3834 117.812 51.8834 117.345 52.45C116.878 53.0167 116.128 53.8167 115.095 54.85C114.828 55.0834 114.362 55.5333 113.695 56.2C113.128 56.7333 112.628 57.2834 112.195 57.85C111.662 58.5167 111.278 59.0167 111.045 59.35C110.745 59.7834 110.645 60.1334 110.745 60.4C110.978 60.7 111.895 60.75 113.495 60.55C114.928 60.3834 116.928 60 119.495 59.4C121.662 58.9 124.362 58.1667 127.595 57.2C130.295 56.4 133.312 55.3667 136.645 54.1C137.078 53.9667 137.378 54.1 137.545 54.5C137.612 54.7334 137.595 54.9333 137.495 55.1C137.395 55.3 137.278 55.4167 137.145 55.45C135.845 55.95 134.495 56.45 133.095 56.95C132.162 57.2833 130.728 57.75 128.795 58.35C128.228 58.5167 126.795 58.9333 124.495 59.6C123.195 59.9667 121.862 60.3167 120.495 60.65C118.428 61.15 116.762 61.5 115.495 61.7C114.195 61.9 113.162 62 112.395 62Z" fill="white"/>
<path d="M168.49 54.55L168.09 54.9C168.257 55.3667 168.107 55.6667 167.64 55.8C167.607 55.8 167.557 55.8167 167.49 55.85C167.424 55.8834 167.34 55.9167 167.24 55.95C167.174 55.95 167.107 55.9667 167.04 56C166.64 56.1334 166.09 56.3334 165.39 56.6L163.89 57.2C163.657 57.3 162.807 57.6167 161.34 58.15C160.074 58.6167 159.107 58.9834 158.44 59.25C157.44 59.65 156.59 60 155.89 60.3C154.89 60.7 153.74 61.2 152.44 61.8C151.174 62.3667 149.89 62.8667 148.59 63.3C147.357 63.7 146.207 63.9 145.14 63.9C144.074 63.9 143.29 63.5167 142.79 62.75C142.524 62.3834 142.44 61.95 142.54 61.45C142.64 60.8834 142.807 60.3834 143.04 59.95C143.307 59.4167 143.607 58.9334 143.94 58.5C144.474 57.8 144.774 57.4167 144.84 57.35C145.574 56.45 145.924 55.7834 145.89 55.35C145.89 55.1833 145.84 55.05 145.74 54.95C145.207 55.25 144.357 55.7167 143.19 56.35C142.424 56.75 141.49 57.1667 140.39 57.6C139.49 57.9333 138.69 58.1833 137.99 58.35C137.324 58.4833 136.824 58.45 136.49 58.25C136.157 58.05 135.957 57.7667 135.89 57.4C135.857 57.0667 135.857 56.7167 135.89 56.35C135.957 55.9833 136.057 55.65 136.19 55.35C136.224 55.2834 136.274 55.1833 136.34 55.05C136.374 54.9834 136.407 54.9333 136.44 54.9C136.44 54.8667 136.457 54.8334 136.49 54.8C136.49 54.7334 136.507 54.6833 136.54 54.65C136.774 54.2167 137.09 54.1167 137.49 54.35C137.924 54.5834 138.024 54.9 137.79 55.3C137.59 55.7667 137.457 56.1167 137.39 56.35C137.29 56.7167 137.257 56.9667 137.29 57.1C137.524 57.1 137.94 57 138.54 56.8C139.14 56.6 139.79 56.35 140.49 56.05C140.957 55.85 141.69 55.5167 142.69 55.05C143.324 54.75 144.024 54.3667 144.79 53.9V53.85C144.357 53.5167 144.09 53.2 143.99 52.9C143.89 52.6334 143.874 52.3667 143.94 52.1C144.074 51.1334 145.074 50.3167 146.94 49.65C148.04 49.2167 148.79 49.3 149.19 49.9C149.357 50.1667 149.407 50.45 149.34 50.75C149.274 51.0834 149.157 51.4 148.99 51.7C148.79 52.0667 148.574 52.3834 148.34 52.65C148.174 52.85 147.89 53.15 147.49 53.55C147.257 53.7834 147.09 53.9334 146.99 54C147.257 54.3667 147.39 54.7167 147.39 55.05C147.49 55.85 147.04 56.8667 146.04 58.1C145.34 58.9333 144.824 59.7167 144.49 60.45C144.19 61.0834 144.124 61.5334 144.29 61.8C144.457 62.1 145.007 62.2 145.94 62.1C146.94 62 148.324 61.6167 150.09 60.95C151.99 60.2167 153.874 59.4667 155.74 58.7C158.44 57.6 159.874 57.0167 160.04 56.95C161.307 56.45 162.824 55.8834 164.59 55.25C164.89 55.15 165.374 54.9667 166.04 54.7C166.707 54.4333 167.224 54.2334 167.59 54.1C168.024 53.9667 168.324 54.1167 168.49 54.55ZM145.09 52.5H145.14C145.14 52.6334 145.207 52.75 145.34 52.85C145.44 52.9167 145.59 53.05 145.79 53.25C145.89 53.1833 146.057 53.0334 146.29 52.8C146.69 52.4 146.99 52.05 147.19 51.75C147.257 51.65 147.34 51.5167 147.44 51.35C147.54 51.1833 147.607 51.0834 147.64 51.05C147.507 51.0834 147.34 51.1334 147.14 51.2C146.374 51.5 145.857 51.7667 145.59 52C145.29 52.2333 145.124 52.4 145.09 52.5Z" fill="white"/>
<path d="M206.6 54.5L206.35 54.7C206.516 55.1667 206.366 55.4667 205.9 55.6C204.433 56.0667 203.083 56.5167 201.85 56.95C200.616 57.3834 199.416 57.8334 198.25 58.3C196.85 58.8334 195.45 59.3334 194.05 59.8C192.583 60.2667 191.166 60.6667 189.8 61C188.2 61.4 186.7 61.6833 185.3 61.85C183.766 62.05 182.15 62.15 180.45 62.15C180.25 62.7834 179.916 63.5 179.45 64.3C179.083 64.9667 178.6 65.5667 178 66.1C177.466 66.6 176.833 67 176.1 67.3C175.4 67.6 174.65 67.75 173.85 67.75C173.55 67.75 173.233 67.6667 172.9 67.5C172.6 67.3667 172.35 67.1667 172.15 66.9C171.983 66.6667 171.866 66.3834 171.8 66.05C171.766 65.75 171.85 65.4167 172.05 65.05C172.816 63.7834 173.866 62.8 175.2 62.1C176.6 61.3667 178 60.9334 179.4 60.8C179.466 60.2 179.45 59.65 179.35 59.15C179.216 58.4167 179.1 57.8834 179 57.55C178.866 57.05 178.766 56.55 178.7 56.05C178.633 55.55 178.733 55.05 179 54.55C176.866 55.45 174.883 56.35 173.05 57.25C171.75 57.8834 169.766 58.8 167.1 60L166.35 60.3C166.016 60.4334 165.75 60.5167 165.55 60.55C165.25 60.5834 164.983 60.5834 164.75 60.55C164.483 60.4834 164.233 60.3667 164 60.2C163.766 59.9667 163.7 59.6667 163.8 59.3C163.9 59 164.033 58.7 164.2 58.4C165.233 56.7 166.483 55.1334 167.95 53.7C169.516 52.2 171.016 50.8667 172.45 49.7C172.716 49.3667 173 49.2833 173.3 49.45C173.6 49.6167 173.75 49.8667 173.75 50.2C173.583 50.5 173.383 50.75 173.15 50.95C172.816 51.2167 172.566 51.4333 172.4 51.6C171.133 52.6334 169.866 53.7834 168.6 55.05C167.4 56.25 166.35 57.6 165.45 59.1C168.283 57.9667 170.966 56.7667 173.5 55.5C176.2 54.1334 178.9 53 181.6 52.1L182.4 52.3C182.6 52.7667 182.583 53.1334 182.35 53.4C182.116 53.7 181.816 54 181.45 54.3C181.083 54.6 180.783 54.9 180.55 55.2C180.316 55.5 180.266 55.8667 180.4 56.3C180.6 56.9334 180.75 57.6167 180.85 58.35C180.95 59.05 181 59.7667 181 60.5C182.6 60.5334 184.2 60.45 185.8 60.25C187.133 60.0834 188.55 59.8 190.05 59.4C191.45 59.0333 192.783 58.6334 194.05 58.2C194.916 57.9 196.25 57.4167 198.05 56.75C199.216 56.3167 200.416 55.8667 201.65 55.4C202.883 54.9333 204.233 54.4834 205.7 54.05C206.166 53.8834 206.466 54.0334 206.6 54.5ZM173.15 66.3L173.05 66.5C173.716 66.6 174.35 66.55 174.95 66.35C175.55 66.15 176.1 65.85 176.6 65.45C177.166 65.0167 177.6 64.55 177.9 64.05C178.233 63.4834 178.533 62.9333 178.8 62.4C177.9 62.6667 177.316 62.8334 177.05 62.9C176.45 63.1 175.9 63.35 175.4 63.65C174.866 63.9833 174.416 64.35 174.05 64.75C173.65 65.2167 173.35 65.7334 173.15 66.3Z" fill="white"/>
<path d="M241.134 54.5L240.884 55.2C240.951 55.3667 240.934 55.5333 240.834 55.7C240.734 55.8667 240.584 55.9834 240.384 56.05L239.584 56.35C238.851 56.6167 238.134 56.8667 237.434 57.1L234.284 58.15C233.884 58.2834 233.251 58.4834 232.384 58.75C231.551 59.0167 230.901 59.2333 230.434 59.4C229.901 59.5667 229.068 59.8167 227.934 60.15C227.701 60.2167 226.901 60.4334 225.534 60.8C225.334 60.8667 225.001 60.9667 224.534 61.1C224.101 61.2 223.768 61.2834 223.534 61.35L222.334 61.65C220.668 62.05 219.118 62.3667 217.684 62.6C216.484 62.8 215.534 62.9 214.834 62.9C214.134 62.9 213.651 62.8334 213.384 62.7C213.051 62.5333 212.818 62.3667 212.684 62.2C212.651 62.1 212.601 61.95 212.534 61.75C212.468 61.5167 212.534 61.1667 212.734 60.7C212.934 60.1667 213.301 59.5 213.834 58.7C214.434 57.7667 215.284 56.6334 216.384 55.3C214.351 55.9 212.351 56.65 210.384 57.55C208.351 58.4834 206.351 59.2167 204.384 59.75L203.034 59.95C202.568 60.05 202.201 59.8667 201.934 59.4C201.734 59.0333 201.768 58.6667 202.034 58.3C202.301 57.9667 202.551 57.6667 202.784 57.4C203.851 56.2333 204.851 55.2 205.784 54.3C206.784 53.3334 207.918 52.4333 209.184 51.6C209.318 51.4667 209.501 51.3667 209.734 51.3C209.934 51.2334 210.118 51.2334 210.284 51.3C210.451 51.3667 210.551 51.4667 210.584 51.6C210.651 51.7667 210.634 51.9667 210.534 52.2C209.268 53.1 208.068 54.05 206.934 55.05C205.901 55.95 204.834 57.0334 203.734 58.3C204.901 58 205.984 57.65 206.984 57.25C207.684 56.9834 208.734 56.55 210.134 55.95C210.834 55.65 211.884 55.2333 213.284 54.7C214.418 54.2667 215.501 53.9333 216.534 53.7C216.934 53.5667 217.384 53.5167 217.884 53.55C218.384 53.5834 218.634 53.8834 218.634 54.45C218.634 54.6167 218.534 54.8167 218.334 55.05C218.134 55.2834 218.018 55.4 217.984 55.4L216.634 57.05C216.168 57.6167 215.768 58.1667 215.434 58.7C215.334 58.8667 215.184 59.1167 214.984 59.45C214.784 59.75 214.634 59.9667 214.534 60.1C214.268 60.5 214.118 60.8 214.084 61C214.451 61.1667 215.184 61.1667 216.284 61C217.118 60.9 218.418 60.6667 220.184 60.3C221.318 60.0667 222.934 59.6833 225.034 59.15C226.768 58.7167 228.468 58.2167 230.134 57.65L231.234 57.25C231.934 57.0167 232.784 56.7167 233.784 56.35C234.084 56.25 234.584 56.0667 235.284 55.8C236.018 55.5334 236.601 55.3334 237.034 55.2C238.734 54.6 239.768 54.2334 240.134 54.1C240.368 54.0334 240.568 54.05 240.734 54.15C240.968 54.25 241.101 54.3667 241.134 54.5Z" fill="white"/>
<path d="M275.607 54.5L275.357 55.2C275.424 55.3667 275.407 55.5333 275.307 55.7C275.207 55.8667 275.057 55.9834 274.857 56.05L274.057 56.35C273.324 56.6167 272.607 56.8667 271.907 57.1L268.757 58.15C268.357 58.2834 267.724 58.4834 266.857 58.75C266.024 59.0167 265.374 59.2333 264.907 59.4C264.374 59.5667 263.54 59.8167 262.407 60.15C262.174 60.2167 261.374 60.4334 260.007 60.8C259.807 60.8667 259.474 60.9667 259.007 61.1C258.574 61.2 258.24 61.2834 258.007 61.35L256.807 61.65C255.14 62.05 253.59 62.3667 252.157 62.6C250.957 62.8 250.007 62.9 249.307 62.9C248.607 62.9 248.124 62.8334 247.857 62.7C247.524 62.5333 247.29 62.3667 247.157 62.2C247.124 62.1 247.074 61.95 247.007 61.75C246.94 61.5167 247.007 61.1667 247.207 60.7C247.407 60.1667 247.774 59.5 248.307 58.7C248.907 57.7667 249.757 56.6334 250.857 55.3C248.824 55.9 246.824 56.65 244.857 57.55C242.824 58.4834 240.824 59.2167 238.857 59.75L237.507 59.95C237.04 60.05 236.674 59.8667 236.407 59.4C236.207 59.0333 236.24 58.6667 236.507 58.3C236.774 57.9667 237.024 57.6667 237.257 57.4C238.324 56.2333 239.324 55.2 240.257 54.3C241.257 53.3334 242.39 52.4333 243.657 51.6C243.79 51.4667 243.974 51.3667 244.207 51.3C244.407 51.2334 244.59 51.2334 244.757 51.3C244.924 51.3667 245.024 51.4667 245.057 51.6C245.124 51.7667 245.107 51.9667 245.007 52.2C243.74 53.1 242.54 54.05 241.407 55.05C240.374 55.95 239.307 57.0334 238.207 58.3C239.374 58 240.457 57.65 241.457 57.25C242.157 56.9834 243.207 56.55 244.607 55.95C245.307 55.65 246.357 55.2333 247.757 54.7C248.89 54.2667 249.974 53.9333 251.007 53.7C251.407 53.5667 251.857 53.5167 252.357 53.55C252.857 53.5834 253.107 53.8834 253.107 54.45C253.107 54.6167 253.007 54.8167 252.807 55.05C252.607 55.2834 252.49 55.4 252.457 55.4L251.107 57.05C250.64 57.6167 250.24 58.1667 249.907 58.7C249.807 58.8667 249.657 59.1167 249.457 59.45C249.257 59.75 249.107 59.9667 249.007 60.1C248.74 60.5 248.59 60.8 248.557 61C248.924 61.1667 249.657 61.1667 250.757 61C251.59 60.9 252.89 60.6667 254.657 60.3C255.79 60.0667 257.407 59.6833 259.507 59.15C261.24 58.7167 262.94 58.2167 264.607 57.65L265.707 57.25C266.407 57.0167 267.257 56.7167 268.257 56.35C268.557 56.25 269.057 56.0667 269.757 55.8C270.49 55.5334 271.074 55.3334 271.507 55.2C273.207 54.6 274.24 54.2334 274.607 54.1C274.84 54.0334 275.04 54.05 275.207 54.15C275.44 54.25 275.574 54.3667 275.607 54.5Z" fill="white"/>
</svg>
