<svg width="583" height="41" viewBox="0 0 583 41" fill="none" xmlns="http://www.w3.org/2000/svg">
<path d="M47.1471 18.5501H46.9971C47.1304 18.9834 46.9804 19.2834 46.5471 19.4501C46.5137 19.4834 46.2471 19.6001 45.7471 19.8001C45.3804 19.9334 44.6971 20.1834 43.6971 20.5501C42.1637 21.1168 40.6637 21.6668 39.1971 22.2001C37.8971 22.7001 36.5304 23.2501 35.0971 23.8501C32.0304 25.0501 28.5471 26.3668 24.6471 27.8001C21.8471 28.8334 19.5971 29.3501 17.8971 29.3501C17.5637 29.3501 17.3137 29.3334 17.1471 29.3001C16.9804 29.2668 16.7637 29.2168 16.4971 29.1501H16.4471C16.0471 29.0501 15.6804 28.8834 15.3471 28.6501C14.7137 28.1168 14.5471 27.2168 14.8471 25.9501C15.1471 24.7168 15.9471 23.0501 17.2471 20.9501L17.6971 20.2501C18.1637 19.5501 18.5471 18.9668 18.8471 18.5001C19.3804 17.6668 19.8804 16.9334 20.3471 16.3001C20.8804 15.5668 21.4137 14.8834 21.9471 14.2501L22.0971 14.1001C20.2637 14.8334 18.6137 15.5501 17.1471 16.2501C15.7471 16.9168 13.9804 17.7334 11.8471 18.7001C9.78041 19.6001 8.23041 20.8668 7.19708 22.5001C6.69708 23.2001 6.38041 23.6334 6.24708 23.8001C5.71375 24.4668 5.29708 24.9834 4.99708 25.3501C4.53041 25.9168 4.08041 26.4168 3.64708 26.8501C3.24708 27.2501 2.81375 27.5668 2.34708 27.8001C2.14708 27.9001 1.94708 27.9501 1.74708 27.9501C1.51375 27.9501 1.33041 27.9001 1.19708 27.8001C1.06375 27.7334 0.94708 27.5834 0.84708 27.3501C0.74708 27.1834 0.730413 26.9668 0.79708 26.7001C0.99708 26.0668 1.24708 25.5334 1.54708 25.1001C2.28041 24.0334 3.04708 23.1001 3.84708 22.3001C4.74708 21.4001 5.88041 20.5168 7.24708 19.6501C7.81375 19.2168 8.28041 18.7668 8.64708 18.3001C9.14708 17.6668 9.86375 16.7668 10.7971 15.6001C11.7304 14.4001 12.3804 13.5668 12.7471 13.1001L16.7971 8.00008L20.4471 3.35009C20.7137 2.95008 21.0637 2.53342 21.4971 2.10008C21.5971 2.00008 21.7471 1.95009 21.9471 1.95009C22.1137 1.95009 22.2637 1.98342 22.3971 2.05008C22.6637 2.28342 22.7137 2.58342 22.5471 2.95008L22.4971 3.05008C22.4304 3.11675 22.3804 3.16675 22.3471 3.20008C22.2471 3.26675 22.0804 3.48342 21.8471 3.85008C21.8137 3.88342 21.4304 4.38342 20.6971 5.35008C20.1971 5.98342 19.4971 6.88342 18.5971 8.05008C17.7637 9.11675 16.5137 10.6834 14.8471 12.7501C13.7804 14.0834 12.5637 15.6834 11.1971 17.5501L18.3971 14.2501L23.4971 11.9501C24.3637 11.5501 25.1637 10.9334 25.8971 10.1001C26.7304 9.13342 27.4304 8.35009 27.9971 7.75008C28.4971 7.21675 29.2804 6.41675 30.3471 5.35008C30.7804 4.91675 31.2804 4.46675 31.8471 4.00009C32.4137 3.53342 33.0138 3.20009 33.6471 3.00008C34.2471 2.86675 34.6971 2.96675 34.9971 3.30009C35.3304 3.63342 35.3804 4.08342 35.1471 4.65008C34.9137 5.21675 34.6637 5.66675 34.3971 6.00008C33.6637 6.86675 32.9137 7.61675 32.1471 8.25008C31.3804 8.88342 30.5971 9.45008 29.7971 9.95008C29.5971 10.0834 29.3971 10.2168 29.1971 10.3501C28.9971 10.4501 28.7804 10.5668 28.5471 10.7001C28.3137 10.8334 28.1471 10.9334 28.0471 11.0001C27.9137 11.0668 27.6804 11.2001 27.3471 11.4001C27.0471 11.5668 26.8304 11.7001 26.6971 11.8001C26.2637 12.0668 25.8804 12.3668 25.5471 12.7001C24.9471 13.4334 24.4804 13.9834 24.1471 14.3501C23.8137 14.7168 23.3137 15.3001 22.6471 16.1001C21.3471 17.8001 20.3637 19.1668 19.6971 20.2001C18.7971 21.5668 18.0971 22.7334 17.5971 23.7001C17.0637 24.7001 16.6971 25.5668 16.4971 26.3001C16.2971 27.0001 16.3137 27.4501 16.5471 27.6501C16.5804 27.6834 16.6304 27.7168 16.6971 27.7501C16.7637 27.7834 16.8137 27.8168 16.8471 27.8501C17.0137 27.8501 17.1137 27.8668 17.1471 27.9001H17.5471L17.4971 27.9501C18.0971 28.0501 18.9804 27.9668 20.1471 27.7001C21.0804 27.5001 22.3804 27.1168 24.0471 26.5501C25.5471 26.0501 27.1971 25.4501 28.9971 24.7501C29.4304 24.5834 30.3137 24.2501 31.6471 23.7501C32.9804 23.2168 34.0304 22.8001 34.7971 22.5001C36.2304 21.9668 37.5637 21.4668 38.7971 21.0001C40.6637 20.2668 42.0471 19.7168 42.9471 19.3501C43.6804 19.0834 44.2137 18.8834 44.5471 18.7501C44.8804 18.6168 45.4137 18.4168 46.1471 18.1501C46.1804 18.1168 46.2804 18.1001 46.4471 18.1001C46.8138 18.1001 47.0471 18.2501 47.1471 18.5501ZM33.1971 4.65008C32.3971 5.18342 31.7137 5.73342 31.1471 6.30009C30.3471 7.10009 29.7638 7.71675 29.3971 8.15008C30.2971 7.55008 31.0804 6.95008 31.7471 6.35009C32.4137 5.75008 32.8971 5.18342 33.1971 4.65008ZM3.24708 25.1001C3.48041 24.9001 3.69708 24.6834 3.89708 24.4501C4.29708 23.9834 4.58041 23.6334 4.74708 23.4001C4.31375 23.8334 4.01375 24.1501 3.84708 24.3501C3.68041 24.5501 3.48041 24.8001 3.24708 25.1001Z" fill="#DDD4C8"/>
<path d="M77.0014 18.5501L76.9014 18.4501C76.9347 18.4834 76.9514 18.5834 76.9514 18.7501C76.8847 19.0168 76.7347 19.2001 76.5014 19.3001C76.4014 19.3001 76.0514 19.4168 75.4514 19.6501C74.7847 19.8834 73.9347 20.1834 72.9014 20.5501C72.068 20.8501 70.968 21.2501 69.6014 21.7501C68.5347 22.1501 67.1347 22.6168 65.4014 23.1501C64.1347 23.5501 62.7347 23.9168 61.2014 24.2501C59.8347 24.5501 58.6847 24.7001 57.7514 24.7001C57.218 24.7001 56.7514 24.6168 56.3514 24.4501C55.818 24.1834 55.5347 23.7834 55.5014 23.2501C55.468 22.8501 55.568 22.3834 55.8014 21.8501C56.068 21.2501 56.3847 20.7001 56.7514 20.2001L57.6514 19.1001C57.818 18.9001 58.1014 18.6001 58.5014 18.2001L59.2514 17.4501C57.2847 17.9501 55.168 18.5834 52.9014 19.3501C51.0014 19.9834 48.9347 20.6001 46.7014 21.2001C46.468 21.3001 46.2014 21.3501 45.9014 21.3501C45.6014 21.3501 45.3347 21.3001 45.1014 21.2001C44.868 21.1001 44.668 20.9501 44.5014 20.7501C44.368 20.5501 44.3514 20.3001 44.4514 20.0001C44.8514 19.1334 45.4347 18.3834 46.2014 17.7501L48.4514 15.9501C49.318 15.3501 49.9847 14.9001 50.4514 14.6001C51.118 14.1668 51.8347 13.8001 52.6014 13.5001C53.368 13.2001 54.1347 13.0001 54.9014 12.9001C55.7014 12.8001 56.5014 12.8501 57.3014 13.0501C57.9347 13.1834 58.4847 13.5168 58.9514 14.0501C59.418 14.5501 59.618 15.1501 59.5514 15.8501H60.2514C60.418 15.8501 60.568 15.8668 60.7014 15.9001C60.968 15.9668 61.1514 16.0168 61.2514 16.0501C61.3847 16.0834 61.518 16.1668 61.6514 16.3001C61.7514 16.4001 61.768 16.5334 61.7014 16.7001C61.2014 17.3668 60.8847 17.7668 60.7514 17.9001C60.3514 18.3668 60.0847 18.6668 59.9514 18.8001C59.7847 18.9668 59.568 19.2168 59.3014 19.5501C59.168 19.7168 58.9347 19.9668 58.6014 20.3001C58.068 21.0001 57.668 21.5668 57.4014 22.0001C57.1014 22.4668 56.9847 22.8501 57.0514 23.1501C57.0514 23.1834 57.0847 23.2334 57.1514 23.3001C57.518 23.5001 58.3014 23.5001 59.5014 23.3001C60.568 23.1334 61.968 22.8001 63.7014 22.3001C65.1347 21.9001 66.818 21.3668 68.7514 20.7001C70.0514 20.2668 71.6514 19.6834 73.5514 18.9501C73.8847 18.9167 74.2014 18.8168 74.5014 18.6501L75.3014 18.3501L76.0514 18.0501C76.218 17.9834 76.4014 18.0001 76.6014 18.1001C76.8347 18.2001 76.968 18.3501 77.0014 18.5501ZM58.0514 16.3001L57.8514 16.2501C58.0514 15.6501 58.018 15.2001 57.7514 14.9001C57.4847 14.6001 57.1347 14.4001 56.7014 14.3001C56.2014 14.2001 55.7014 14.1668 55.2014 14.2001C54.6347 14.2668 54.1847 14.3668 53.8514 14.5001C52.3514 15.0334 50.9514 15.7834 49.6514 16.7501C48.3514 17.7168 47.1514 18.7668 46.0514 19.9001C47.9847 19.4668 49.9847 18.8834 52.0514 18.1501C53.818 17.5168 55.818 16.9001 58.0514 16.3001Z" fill="#DDD4C8"/>
<path d="M85.983 25.1001H86.033C86.2663 25.1001 86.4164 25.1834 86.483 25.3501C86.5497 25.5168 86.5497 25.7001 86.483 25.9001C86.4497 26.0668 86.3497 26.2334 86.183 26.4001C86.0497 26.5334 85.8497 26.5501 85.583 26.4501C83.5497 26.2834 81.6497 26.2501 79.883 26.3501C77.3497 26.4834 75.4497 26.6001 74.183 26.7001C73.983 26.7668 73.8163 26.7501 73.683 26.6501C73.5163 26.5501 73.4164 26.4334 73.383 26.3001C73.3164 26.1668 73.3164 26.0168 73.383 25.8501C73.4497 25.6834 73.5497 25.5501 73.683 25.4501C75.7497 25.0834 77.7997 24.8834 79.833 24.8501C81.733 24.8168 83.783 24.9001 85.983 25.1001ZM121.283 18.4501L121.083 18.8001C121.216 19.2668 121.066 19.5668 120.633 19.7001L119.383 20.1501C118.516 20.4501 117.416 20.8501 116.083 21.3501C114.75 21.8501 113.2 22.4001 111.433 23.0001C109.666 23.6001 107.866 24.2001 106.033 24.8001C104.166 25.4001 102.15 26.0168 99.983 26.6501C98.483 27.0834 97.033 27.4501 95.633 27.7501C94.233 28.0501 93.2497 28.2334 92.683 28.3001C91.9497 28.4001 91.3497 28.4501 90.883 28.4501C90.483 28.4501 90.033 28.3668 89.533 28.2001C89.0997 28.0668 88.883 27.6668 88.883 27.0001C88.8497 26.6668 88.883 26.3334 88.983 26.0001C89.1163 25.6001 89.1997 25.3168 89.233 25.1501C89.6664 24.1501 90.2164 23.2001 90.883 22.3001C91.7497 21.1001 92.3997 20.2168 92.833 19.6501L83.533 24.1501C83.1997 24.2834 82.933 24.3834 82.733 24.4501C82.433 24.5501 82.133 24.6001 81.833 24.6001C81.533 24.6001 81.2663 24.5501 81.033 24.4501C80.7663 24.3501 80.5664 24.1334 80.433 23.8001C80.4664 23.1668 80.6997 22.5334 81.133 21.9001C81.6664 21.1001 82.0497 20.5168 82.283 20.1501C81.1497 20.7501 79.9164 21.4334 78.583 22.2001C77.483 22.8334 76.1997 23.4001 74.733 23.9001C74.4997 24.0334 74.2497 24.0834 73.983 24.0501C73.7163 23.9834 73.483 23.8834 73.283 23.7501C73.083 23.5834 72.933 23.3834 72.833 23.1501C72.733 22.9168 72.7663 22.6668 72.933 22.4001C73.3663 21.4668 73.9497 20.5834 74.683 19.7501L76.783 17.3501C77.2497 16.8834 77.583 16.5334 77.783 16.3001C78.083 15.9334 78.4664 15.7001 78.933 15.6001C79.1997 15.6001 79.383 15.6668 79.483 15.8001C79.583 15.9334 79.633 16.1001 79.633 16.3001C79.633 16.5001 79.583 16.6668 79.483 16.8001C79.3497 17.0001 79.233 17.1334 79.133 17.2001C78.133 18.0334 77.283 18.9001 76.583 19.8001C75.8163 20.7668 75.0497 21.6834 74.283 22.5501C75.8164 22.0501 77.2997 21.3668 78.733 20.5001C80.0997 19.6668 81.533 18.9168 83.033 18.2501C83.133 18.1834 83.3163 18.0834 83.583 17.9501C83.783 17.8501 83.983 17.8001 84.183 17.8001C84.383 17.8001 84.5664 17.8501 84.733 17.9501C84.8663 18.0501 84.9664 18.2334 85.033 18.5001C84.733 19.3001 84.2997 20.0501 83.733 20.7501C83.1997 21.3834 82.7497 22.1168 82.383 22.9501C84.383 22.0501 86.333 21.1001 88.233 20.1001C90.1997 19.0668 92.183 18.1834 94.183 17.4501C94.3497 17.3501 94.5497 17.3334 94.783 17.4001C94.983 17.4668 95.133 17.5668 95.233 17.7001C95.333 17.8668 95.383 18.0501 95.383 18.2501C95.383 18.4501 95.2997 18.6334 95.133 18.8001C94.0997 20.2001 93.1997 21.3834 92.433 22.3501C91.4997 23.5168 90.833 24.8501 90.433 26.3501C90.3997 26.5501 90.483 26.6501 90.683 26.6501C90.883 26.6501 90.983 26.6668 90.983 26.7001C91.6163 26.7001 92.8163 26.5168 94.583 26.1501C96.0497 25.8501 98.1497 25.3168 100.883 24.5501C103.483 23.8168 106.366 22.9168 109.533 21.8501C113.466 20.5168 117.05 19.2501 120.283 18.0501C120.516 17.9834 120.716 18.0001 120.883 18.1001C121.116 18.2001 121.25 18.3168 121.283 18.4501Z" fill="#DDD4C8"/>
<path d="M155.672 18.5001L155.422 19.2001C155.489 19.3668 155.472 19.5334 155.372 19.7001C155.272 19.8668 155.122 19.9834 154.922 20.0501L154.122 20.3501C153.389 20.6168 152.672 20.8668 151.972 21.1001L148.822 22.1501C148.422 22.2834 147.789 22.4834 146.922 22.7501C146.089 23.0168 145.439 23.2334 144.972 23.4001C144.439 23.5668 143.606 23.8168 142.472 24.1501C142.239 24.2168 141.439 24.4334 140.072 24.8001C139.872 24.8668 139.539 24.9668 139.072 25.1001C138.639 25.2001 138.306 25.2834 138.072 25.3501L136.872 25.6501C135.206 26.0501 133.656 26.3668 132.222 26.6001C131.022 26.8001 130.072 26.9001 129.372 26.9001C128.672 26.9001 128.189 26.8334 127.922 26.7001C127.589 26.5334 127.356 26.3668 127.222 26.2001C127.189 26.1001 127.139 25.9501 127.072 25.7501C127.006 25.5168 127.072 25.1668 127.272 24.7001C127.472 24.1668 127.839 23.5001 128.372 22.7001C128.972 21.7668 129.822 20.6334 130.922 19.3001C128.889 19.9001 126.889 20.6501 124.922 21.5501C122.889 22.4834 120.889 23.2168 118.922 23.7501L117.572 23.9501C117.106 24.0501 116.739 23.8668 116.472 23.4001C116.272 23.0334 116.306 22.6668 116.572 22.3001C116.839 21.9668 117.089 21.6668 117.322 21.4001C118.389 20.2334 119.389 19.2001 120.322 18.3001C121.322 17.3334 122.456 16.4334 123.722 15.6001C123.856 15.4668 124.039 15.3668 124.272 15.3001C124.472 15.2334 124.656 15.2334 124.822 15.3001C124.989 15.3668 125.089 15.4668 125.122 15.6001C125.189 15.7668 125.172 15.9668 125.072 16.2001C123.806 17.1001 122.606 18.0501 121.472 19.0501C120.439 19.9501 119.372 21.0334 118.272 22.3001C119.439 22.0001 120.522 21.6501 121.522 21.2501C122.222 20.9834 123.272 20.5501 124.672 19.9501C125.372 19.6501 126.422 19.2334 127.822 18.7001C128.956 18.2668 130.039 17.9334 131.072 17.7001C131.472 17.5668 131.922 17.5168 132.422 17.5501C132.922 17.5834 133.172 17.8834 133.172 18.4501C133.172 18.6168 133.072 18.8168 132.872 19.0501C132.672 19.2834 132.556 19.4001 132.522 19.4001L131.172 21.0501C130.706 21.6168 130.306 22.1668 129.972 22.7001C129.872 22.8668 129.722 23.1168 129.522 23.4501C129.322 23.7501 129.172 23.9668 129.072 24.1001C128.806 24.5001 128.656 24.8001 128.622 25.0001C128.989 25.1668 129.722 25.1668 130.822 25.0001C131.656 24.9001 132.956 24.6668 134.722 24.3001C135.856 24.0668 137.472 23.6834 139.572 23.1501C141.306 22.7168 143.006 22.2168 144.672 21.6501L145.772 21.2501C146.472 21.0168 147.322 20.7168 148.322 20.3501C148.622 20.2501 149.122 20.0668 149.822 19.8001C150.556 19.5334 151.139 19.3334 151.572 19.2001C153.272 18.6001 154.306 18.2334 154.672 18.1001C154.906 18.0334 155.106 18.0501 155.272 18.1501C155.506 18.2501 155.639 18.3668 155.672 18.5001Z" fill="#DDD4C8"/>
<path d="M222.637 18.5501L222.537 19.2001C222.704 19.6668 222.554 19.9668 222.087 20.1001C222.021 20.1001 221.571 20.2501 220.737 20.5501C219.037 21.1501 217.937 21.5334 217.437 21.7001C214.937 22.5334 213.404 23.0501 212.837 23.2501C210.937 23.9168 209.171 24.5168 207.537 25.0501C207.371 25.1168 206.471 25.3834 204.837 25.8501C204.337 26.0168 203.554 26.2334 202.487 26.5001C202.221 26.5668 201.837 26.6668 201.337 26.8001C200.871 26.9001 200.554 26.9668 200.387 27.0001C199.921 27.0668 199.221 27.1334 198.287 27.2001C197.554 27.2334 196.904 27.0001 196.337 26.5001C196.004 26.1668 195.887 25.7668 195.987 25.3001C196.054 24.9334 196.187 24.5334 196.387 24.1001C196.921 23.0668 197.604 22.0834 198.437 21.1501L200.837 18.4501C197.004 19.2168 193.371 20.5168 189.937 22.3501C189.771 22.4501 189.571 22.5501 189.337 22.6501C189.104 22.7501 188.887 22.7668 188.687 22.7001C188.521 22.6668 188.354 22.5668 188.187 22.4001C188.054 22.2668 188.004 22.0501 188.037 21.7501C188.804 20.1834 189.787 18.8001 190.987 17.6001C192.054 16.5334 193.287 15.3834 194.687 14.1501C194.987 13.8834 195.287 13.8001 195.587 13.9001C195.921 14.0001 196.104 14.2501 196.137 14.6501C195.504 15.2834 194.554 16.2001 193.287 17.4001C192.287 18.3668 191.387 19.3334 190.587 20.3001C192.387 19.4334 194.154 18.6834 195.887 18.0501C197.687 17.4168 199.537 16.9668 201.437 16.7001C201.737 16.6334 201.971 16.6501 202.137 16.7501C202.337 16.8501 202.487 17.0001 202.587 17.2001C202.687 17.4001 202.737 17.6168 202.737 17.8501C202.737 18.0834 202.637 18.3001 202.437 18.5001C201.837 19.2334 201.371 19.7668 201.037 20.1001C200.704 20.4334 200.237 20.9668 199.637 21.7001C199.204 22.2001 198.787 22.7668 198.387 23.4001C197.921 24.0668 197.587 24.6834 197.387 25.2501C198.687 25.3501 200.004 25.2168 201.337 24.8501C203.071 24.3834 204.354 24.0334 205.187 23.8001C205.654 23.6668 205.987 23.5668 206.187 23.5001C206.754 23.3001 207.087 23.1834 207.187 23.1501C209.287 22.5168 211.537 21.7668 213.937 20.9001C218.737 19.2001 221.321 18.2834 221.687 18.1501C221.854 18.0834 222.037 18.1001 222.237 18.2001C222.471 18.3001 222.604 18.4168 222.637 18.5501Z" fill="#DDD4C8"/>
<path d="M250.437 18.5501L250.237 19.0501C250.371 19.4834 250.221 19.7834 249.787 19.9501L247.587 20.7501C247.221 20.8834 246.704 21.0834 246.037 21.3501C245.537 21.5501 245.271 21.6501 245.237 21.6501V21.6001C243.037 22.3334 240.971 22.8501 239.037 23.1501C237.171 23.4501 235.554 23.6001 234.187 23.6001C232.954 23.6001 231.954 23.5334 231.187 23.4001C230.387 23.2668 229.671 23.1168 229.037 22.9501L228.687 23.2001C227.887 23.6334 226.654 24.2834 224.987 25.1501C223.754 25.7834 222.404 26.1334 220.937 26.2001C220.537 26.2668 220.171 26.2001 219.837 26.0001C219.371 25.7334 219.021 25.5501 218.787 25.4501C217.554 26.8168 216.437 28.2834 215.437 29.8501C214.771 30.8834 213.804 32.4334 212.537 34.5001C212.404 34.6334 212.304 34.7501 212.237 34.8501L211.937 35.3001C211.837 35.4668 211.721 35.5668 211.587 35.6001C211.421 35.6668 211.271 35.6668 211.137 35.6001C210.871 35.4001 210.737 35.1668 210.737 34.9001C210.737 34.6334 210.787 34.3834 210.887 34.1501C210.954 33.9834 211.087 33.7334 211.287 33.4001C211.487 33.0668 211.621 32.8334 211.687 32.7001C213.854 29.4001 216.054 26.1501 218.287 22.9501C220.454 19.8501 222.887 16.7501 225.587 13.6501C226.054 13.1834 226.487 12.7001 226.887 12.2001C227.287 11.7001 227.721 11.2168 228.187 10.7501C228.421 10.5834 228.621 10.5001 228.787 10.5001C229.054 10.5001 229.237 10.5168 229.337 10.5501C229.504 10.6168 229.587 10.7168 229.587 10.8501C229.587 11.0501 229.521 11.2334 229.387 11.4001C228.221 12.8334 227.121 14.1168 226.087 15.2501C225.054 16.3501 223.987 17.6834 222.887 19.2501C223.421 18.8501 224.171 18.3668 225.137 17.8001C226.404 17.0668 227.521 16.4834 228.487 16.0501C229.687 15.5168 230.871 15.1168 232.037 14.8501C233.204 14.5834 234.137 14.6334 234.837 15.0001C234.971 15.1001 235.071 15.2501 235.137 15.4501C235.204 15.7168 235.237 15.9334 235.237 16.1001C235.237 16.2668 235.204 16.5168 235.137 16.8501C234.671 17.7834 234.054 18.5834 233.287 19.2501C232.521 19.9168 231.654 20.6334 230.687 21.4001C231.454 21.5668 232.321 21.6668 233.287 21.7001C234.287 21.7668 235.437 21.7168 236.737 21.5501C238.037 21.3834 239.487 21.1334 241.087 20.8001C242.687 20.4668 244.437 19.9668 246.337 19.3001C246.404 19.3001 246.587 19.2501 246.887 19.1501C246.921 19.1168 247.237 18.9834 247.837 18.7501C248.304 18.5501 248.654 18.4168 248.887 18.3501C249.121 18.2834 249.337 18.2001 249.537 18.1001C250.004 17.9668 250.304 18.1168 250.437 18.5501ZM233.737 16.5001C231.804 16.6668 229.921 17.1501 228.087 17.9501C226.187 18.7501 224.487 19.8168 222.987 21.1501C223.954 21.1168 224.904 21.1168 225.837 21.1501C227.104 21.2168 228.054 21.2834 228.687 21.3501C229.321 20.8834 230.271 20.1501 231.537 19.1501C232.471 18.4168 233.204 17.5334 233.737 16.5001ZM220.037 24.8001L219.887 24.9001C221.121 25.0001 222.304 24.8168 223.437 24.3501C224.504 23.9168 225.587 23.3834 226.687 22.7501C225.887 22.6834 225.254 22.6501 224.787 22.6501C224.121 22.6501 223.487 22.7001 222.887 22.8001C222.287 22.9001 221.737 23.1001 221.237 23.4001C220.737 23.7001 220.337 24.1668 220.037 24.8001Z" fill="#DDD4C8"/>
<path d="M275.571 18.5501L275.171 18.6001C275.237 18.7668 275.221 18.9334 275.121 19.1001C275.021 19.3001 274.904 19.4168 274.771 19.4501C274.704 19.5168 274.254 19.7001 273.421 20.0001C272.554 20.3001 271.554 20.6501 270.421 21.0501C269.654 21.3168 268.537 21.7168 267.071 22.2501C265.971 22.6501 265.171 22.9501 264.671 23.1501C263.037 23.6168 262.021 23.9001 261.621 24.0001C260.387 24.3001 259.354 24.5334 258.521 24.7001C258.021 24.8001 257.237 24.9501 256.171 25.1501C255.471 25.2834 254.671 25.3501 253.771 25.3501C252.971 25.3501 252.171 25.2501 251.371 25.0501C250.537 24.8501 249.787 24.4834 249.121 23.9501C248.621 23.5501 248.321 23.0668 248.221 22.5001C248.121 22.0001 248.154 21.4001 248.321 20.7001C248.454 20.1334 248.687 19.5168 249.021 18.8501C249.254 18.3834 249.537 17.8834 249.871 17.3501C250.537 16.2834 251.371 15.3501 252.371 14.5501C253.371 13.7501 254.454 13.1501 255.621 12.7501C256.121 12.5834 256.671 12.5334 257.271 12.6001C257.904 12.6668 258.337 12.9668 258.571 13.5001C258.704 14.0001 258.654 14.4668 258.421 14.9001C258.187 15.3334 257.887 15.7001 257.521 16.0001C256.521 16.8668 255.371 17.5834 254.071 18.1501C252.971 18.6501 251.721 19.1168 250.321 19.5501C250.254 19.7168 250.154 19.9834 250.021 20.3501C249.887 20.7168 249.804 20.9501 249.771 21.0501C249.571 21.5834 249.654 22.0834 250.021 22.5501C250.654 23.1501 251.437 23.5001 252.371 23.6001C253.371 23.7001 254.237 23.7334 254.971 23.7001C257.271 23.5001 259.621 23.0668 262.021 22.4001C264.387 21.7334 266.671 20.9834 268.871 20.1501C269.671 19.8501 270.171 19.6668 270.371 19.6001L272.171 19.0001C272.371 18.9334 272.654 18.8334 273.021 18.7001C273.387 18.5668 273.637 18.4834 273.771 18.4501C274.271 18.2834 274.554 18.1834 274.621 18.1501C274.787 18.0834 274.971 18.1001 275.171 18.2001C275.404 18.3001 275.537 18.4168 275.571 18.5501ZM257.121 13.8501C255.854 13.9168 254.704 14.3168 253.671 15.0501C252.637 15.7834 251.737 16.6334 250.971 17.6001C252.071 17.2334 253.204 16.7501 254.371 16.1501C255.471 15.6168 256.387 14.8501 257.121 13.8501Z" fill="#DDD4C8"/>
<path d="M310.067 18.5001L309.817 19.2001C309.884 19.3668 309.867 19.5334 309.767 19.7001C309.667 19.8668 309.517 19.9834 309.317 20.0501L308.517 20.3501C307.784 20.6168 307.067 20.8668 306.367 21.1001L303.217 22.1501C302.817 22.2834 302.184 22.4834 301.317 22.7501C300.484 23.0168 299.834 23.2334 299.367 23.4001C298.834 23.5668 298 23.8168 296.867 24.1501C296.634 24.2168 295.834 24.4334 294.467 24.8001C294.267 24.8668 293.934 24.9668 293.467 25.1001C293.034 25.2001 292.7 25.2834 292.467 25.3501L291.267 25.6501C289.6 26.0501 288.05 26.3668 286.617 26.6001C285.417 26.8001 284.467 26.9001 283.767 26.9001C283.067 26.9001 282.584 26.8334 282.317 26.7001C281.984 26.5334 281.75 26.3668 281.617 26.2001C281.584 26.1001 281.534 25.9501 281.467 25.7501C281.4 25.5168 281.467 25.1668 281.667 24.7001C281.867 24.1668 282.234 23.5001 282.767 22.7001C283.367 21.7668 284.217 20.6334 285.317 19.3001C283.284 19.9001 281.284 20.6501 279.317 21.5501C277.284 22.4834 275.284 23.2168 273.317 23.7501L271.967 23.9501C271.5 24.0501 271.134 23.8668 270.867 23.4001C270.667 23.0334 270.7 22.6668 270.967 22.3001C271.234 21.9668 271.484 21.6668 271.717 21.4001C272.784 20.2334 273.784 19.2001 274.717 18.3001C275.717 17.3334 276.85 16.4334 278.117 15.6001C278.25 15.4668 278.434 15.3668 278.667 15.3001C278.867 15.2334 279.05 15.2334 279.217 15.3001C279.384 15.3668 279.484 15.4668 279.517 15.6001C279.584 15.7668 279.567 15.9668 279.467 16.2001C278.2 17.1001 277 18.0501 275.867 19.0501C274.834 19.9501 273.767 21.0334 272.667 22.3001C273.834 22.0001 274.917 21.6501 275.917 21.2501C276.617 20.9834 277.667 20.5501 279.067 19.9501C279.767 19.6501 280.817 19.2334 282.217 18.7001C283.35 18.2668 284.434 17.9334 285.467 17.7001C285.867 17.5668 286.317 17.5168 286.817 17.5501C287.317 17.5834 287.567 17.8834 287.567 18.4501C287.567 18.6168 287.467 18.8168 287.267 19.0501C287.067 19.2834 286.95 19.4001 286.917 19.4001L285.567 21.0501C285.1 21.6168 284.7 22.1668 284.367 22.7001C284.267 22.8668 284.117 23.1168 283.917 23.4501C283.717 23.7501 283.567 23.9668 283.467 24.1001C283.2 24.5001 283.05 24.8001 283.017 25.0001C283.384 25.1668 284.117 25.1668 285.217 25.0001C286.05 24.9001 287.35 24.6668 289.117 24.3001C290.25 24.0668 291.867 23.6834 293.967 23.1501C295.7 22.7168 297.4 22.2168 299.067 21.6501L300.167 21.2501C300.867 21.0168 301.717 20.7168 302.717 20.3501C303.017 20.2501 303.517 20.0668 304.217 19.8001C304.95 19.5334 305.534 19.3334 305.967 19.2001C307.667 18.6001 308.7 18.2334 309.067 18.1001C309.3 18.0334 309.5 18.0501 309.667 18.1501C309.9 18.2501 310.034 18.3668 310.067 18.5001Z" fill="#DDD4C8"/>
<path d="M327.29 31.2001L327.34 31.8001C326.373 31.8001 325.74 31.4668 325.44 30.8001C325.206 30.2668 325.206 29.6501 325.44 28.9501C325.673 28.2501 326.106 27.5168 326.74 26.7501C327.406 25.9168 328.156 25.0834 328.99 24.2501C329.89 23.3501 330.89 22.4001 331.99 21.4001L333.19 20.3501C333.456 20.1168 333.806 19.7834 334.24 19.3501C333.573 19.5168 332.723 19.7668 331.69 20.1001C330.656 20.4334 329.656 20.7834 328.69 21.1501C325.523 22.2168 323.273 22.9501 321.94 23.3501C320.273 23.8501 319.106 23.9668 318.44 23.7001C318.173 23.5668 318.006 23.3668 317.94 23.1001C317.873 22.8334 317.923 22.5001 318.09 22.1001C318.256 21.7001 318.456 21.3001 318.69 20.9001C318.856 20.6334 319.106 20.2668 319.44 19.8001L320.04 19.0001C319.573 19.2668 319.073 19.5168 318.54 19.7501C318.173 19.9168 317.656 20.1668 316.99 20.5001C314.956 21.5001 313.523 22.1834 312.69 22.5501C311.923 22.9168 311.04 23.2834 310.04 23.6501C309.34 23.9168 308.84 24.0501 308.54 24.0501C308.173 24.0501 307.906 23.9834 307.74 23.8501C307.44 23.6168 307.29 23.3001 307.29 22.9001C307.29 22.4334 307.356 21.9834 307.49 21.5501C307.656 20.9834 307.873 20.4834 308.14 20.0501C308.54 19.3834 308.84 18.9001 309.04 18.6001C309.14 18.4668 309.29 18.3668 309.49 18.3001C309.69 18.2334 309.873 18.2834 310.04 18.4501C310.173 18.5501 310.273 18.7001 310.34 18.9001C310.373 19.0668 310.34 19.2334 310.24 19.4001C309.84 20.0001 309.49 20.6001 309.19 21.2001C308.923 21.7668 308.756 22.2168 308.69 22.5501C309.056 22.4834 309.54 22.3334 310.14 22.1001C310.74 21.8334 311.39 21.5334 312.09 21.2001C312.556 20.9668 313.29 20.6168 314.29 20.1501C314.79 19.9168 315.473 19.5834 316.34 19.1501C317.54 18.5501 318.49 18.1001 319.19 17.8001C319.456 17.7001 319.756 17.5668 320.09 17.4001C320.456 17.2334 320.69 17.1334 320.79 17.1001C321.09 16.9668 321.34 16.9001 321.54 16.9001C321.64 16.9001 321.79 16.9334 321.99 17.0001C322.156 17.1001 322.256 17.2668 322.29 17.5001C322.356 17.7668 322.29 18.0834 322.09 18.4501C321.923 18.7834 321.523 19.4001 320.89 20.3001C320.523 20.7334 320.29 21.0334 320.19 21.2001C319.956 21.5334 319.756 21.8334 319.59 22.1001C320.09 22.0334 320.64 21.9168 321.24 21.7501C321.306 21.7168 322.056 21.4834 323.49 21.0501C324.023 20.8834 324.856 20.6001 325.99 20.2001C326.29 20.1001 326.69 19.9501 327.19 19.7501C327.723 19.5501 328.09 19.4168 328.29 19.3501C330.89 18.4168 332.64 17.8334 333.54 17.6001C334.673 17.3001 335.44 17.2168 335.84 17.3501C336.106 17.4501 336.256 17.6668 336.29 18.0001C336.356 18.4001 336.14 18.8668 335.64 19.4001C335.14 19.9334 334.223 20.8001 332.89 22.0001C332.29 22.5334 331.59 23.1834 330.79 23.9501C329.723 24.9501 328.973 25.6668 328.54 26.1001C327.873 26.7668 327.323 27.4501 326.89 28.1501C326.49 28.7834 326.373 29.2834 326.54 29.6501L326.64 29.7001C326.706 29.7668 326.84 29.8001 327.04 29.8001C327.106 29.8001 327.44 29.7668 328.04 29.7001C328.506 29.6334 329.106 29.4834 329.84 29.2501C331.04 28.8834 332.423 28.3834 333.99 27.7501C335.59 27.1168 337.39 26.3668 339.39 25.5001C340.256 25.1668 341.64 24.6001 343.54 23.8001C345.44 23.0001 346.906 22.3834 347.94 21.9501C351.34 20.5501 354.74 19.2668 358.14 18.1001C358.606 17.9668 358.906 18.1168 359.04 18.5501C359.173 18.9834 359.023 19.2834 358.59 19.4501C354.823 20.7501 351.456 22.0168 348.49 23.2501C344.09 25.0834 341.256 26.2668 339.99 26.8001C337.523 27.8334 334.89 28.9001 332.09 30.0001C330.056 30.8001 328.456 31.2001 327.29 31.2001Z" fill="#DDD4C8"/>
<path d="M343.962 40.1501L343.462 40.4501C342.862 40.3834 342.345 40.2168 341.912 39.9501C341.445 39.6501 341.095 39.2834 340.862 38.8501C340.595 38.3501 340.412 37.8668 340.312 37.4001C340.212 36.9001 340.212 36.4001 340.312 35.9001C340.612 34.7334 341.329 33.6334 342.462 32.6001C343.629 31.5334 344.929 30.5834 346.362 29.7501C347.929 28.8168 349.395 28.0834 350.762 27.5501C352.262 26.9501 353.512 26.5001 354.512 26.2001C356.145 25.7001 357.629 25.3501 358.962 25.1501C359.829 25.0168 361.162 24.8501 362.962 24.6501L366.262 21.3501C367.029 20.5834 367.979 19.6001 369.112 18.4001C367.845 18.8668 366.312 19.3834 364.512 19.9501C363.245 20.3501 362.195 20.6501 361.362 20.8501C360.629 21.0168 359.962 21.1334 359.362 21.2001C358.862 21.2668 358.479 21.2668 358.212 21.2001C357.945 21.1334 357.762 21.0501 357.662 20.9501L357.412 20.7001C357.312 20.5668 357.262 20.3334 357.262 20.0001C357.262 19.7001 357.379 19.3334 357.612 18.9001C357.845 18.5001 358.245 17.9834 358.812 17.3501C359.379 16.7501 360.212 16.0668 361.312 15.3001C361.479 15.1334 361.662 15.0834 361.862 15.1501C362.062 15.1834 362.212 15.2834 362.312 15.4501C362.579 15.8168 362.529 16.1501 362.162 16.4501C361.695 16.7501 361.279 17.0667 360.912 17.4001C360.379 17.8668 360.029 18.1834 359.862 18.3501C359.629 18.5834 359.379 18.8668 359.112 19.2001C358.945 19.4001 358.829 19.6001 358.762 19.8001C359.062 19.8334 359.695 19.7501 360.662 19.5501C361.329 19.4168 362.379 19.1334 363.812 18.7001C365.145 18.3001 366.429 17.9001 367.662 17.5001C368.795 17.1001 370.129 16.6168 371.662 16.0501C371.995 15.9168 372.245 16.0001 372.412 16.3001C372.579 16.6334 372.562 16.9168 372.362 17.1501L371.812 17.7001C371.679 17.8334 371.445 18.0834 371.112 18.4501C370.779 18.8168 370.529 19.0834 370.362 19.2501C370.162 19.4834 369.812 19.8668 369.312 20.4001C368.812 20.9001 368.429 21.2834 368.162 21.5501C367.029 22.7501 366.112 23.7001 365.412 24.4001C366.812 24.2668 367.812 24.1501 368.412 24.0501C368.812 23.9834 369.445 23.8834 370.312 23.7501C371.212 23.6168 371.762 23.5334 371.962 23.5001C373.095 23.3334 374.529 23.0501 376.262 22.6501C377.829 22.2834 379.579 21.8334 381.512 21.3001C384.379 20.5668 386.629 19.8668 388.262 19.2001C389.895 18.5668 390.712 18.2168 390.712 18.1501C390.945 18.0834 391.145 18.1001 391.312 18.2001C391.545 18.3001 391.679 18.4168 391.712 18.5501C391.879 19.0168 391.762 19.3168 391.362 19.4501C391.329 19.4834 390.479 19.8334 388.812 20.5001C387.145 21.1668 384.895 21.8668 382.062 22.6001C379.829 23.2668 377.829 23.7668 376.062 24.1001C374.062 24.5001 372.479 24.7834 371.312 24.9501C369.912 25.1501 368.612 25.3001 367.412 25.4001C365.912 25.5334 364.745 25.6501 363.912 25.7501L362.512 27.0501L361.162 28.4001C352.929 36.1334 347.229 40.0501 344.062 40.1501H343.962ZM360.912 26.5001C359.979 26.6001 358.995 26.7668 357.962 27.0001C356.562 27.3334 355.245 27.7001 354.012 28.1001C352.812 28.5001 351.445 29.0334 349.912 29.7001C348.579 30.3001 347.329 30.9501 346.162 31.6501C345.062 32.3168 344.095 33.0668 343.262 33.9001C342.462 34.7001 341.962 35.5168 341.762 36.3501C341.629 36.9501 341.745 37.5501 342.112 38.1501C342.445 38.7501 342.929 39.0501 343.562 39.0501C344.429 39.0168 345.529 38.6168 346.862 37.8501C348.295 37.0501 349.745 36.0834 351.212 34.9501C352.912 33.6501 354.545 32.3001 356.112 30.9001C357.712 29.5001 359.312 28.0334 360.912 26.5001Z" fill="#DDD4C8"/>
<path d="M435.127 18.4501L435.177 18.8001C435.343 19.2668 435.193 19.5668 434.727 19.7001C433.027 20.3001 431.627 20.7834 430.527 21.1501C428.46 21.8168 426.893 22.3001 425.827 22.6001C424.127 23.0668 422.61 23.4668 421.277 23.8001C419.81 24.1668 418.593 24.4168 417.627 24.5501C416.293 24.6834 414.943 24.9168 413.577 25.2501C412.477 25.5168 411.227 25.9001 409.827 26.4001C409.56 27.0001 409.343 27.4501 409.177 27.7501C408.843 28.3501 408.577 28.7834 408.377 29.0501C408.077 29.4501 407.727 29.8001 407.327 30.1001C406.96 30.3668 406.493 30.5834 405.927 30.7501C405.627 30.9168 405.327 30.9668 405.027 30.9001C404.76 30.8668 404.51 30.7334 404.277 30.5001C404.077 30.3001 403.927 30.0501 403.827 29.7501C403.727 29.4168 403.743 29.1168 403.877 28.8501C404.277 27.9168 404.91 27.1668 405.777 26.6001C406.61 26.0668 407.46 25.5668 408.327 25.1001C408.493 24.1334 408.71 23.3001 408.977 22.6001C409.277 21.7668 409.777 21.0834 410.477 20.5501C408.643 21.1834 406.793 21.8834 404.927 22.6501C403.193 23.3501 401.327 24.0168 399.327 24.6501C398.993 24.7168 398.727 24.7668 398.527 24.8001C398.127 24.8668 397.827 24.9001 397.627 24.9001C397.36 24.9001 397.093 24.8501 396.827 24.7501C396.593 24.6501 396.427 24.4168 396.327 24.0501C396.493 22.9834 396.91 22.0334 397.577 21.2001C398.51 20.0668 399.193 19.2334 399.627 18.7001C397.893 19.3668 396.193 20.1168 394.527 20.9501C392.86 21.7834 391.16 22.5834 389.427 23.3501C389.26 23.4834 389.043 23.5501 388.777 23.5501C388.577 23.5501 388.36 23.4668 388.127 23.3001C387.927 23.1668 387.777 22.9834 387.677 22.7501C387.577 22.5501 387.61 22.3168 387.777 22.0501C388.743 20.4168 389.86 18.9668 391.127 17.7001C392.493 16.3334 393.86 15.1334 395.227 14.1001C395.593 14.1668 395.827 14.2668 395.927 14.4001C396.027 14.5668 396.06 14.7334 396.027 14.9001C395.96 15.1001 395.86 15.3001 395.727 15.5001C395.56 15.7001 395.393 15.8501 395.227 15.9501C394.16 16.7834 393.16 17.6834 392.227 18.6501C391.227 19.6501 390.377 20.6668 389.677 21.7001C391.477 20.7668 393.277 19.8668 395.077 19.0001C396.843 18.1667 398.727 17.4168 400.727 16.7501C401.06 16.6168 401.427 16.5668 401.827 16.6001C402.26 16.6668 402.493 16.9167 402.527 17.3501C401.727 18.4501 400.877 19.4334 399.977 20.3001C399.043 21.2001 398.293 22.2334 397.727 23.4001C399.093 23.0334 400.377 22.6334 401.577 22.2001C402.41 21.9001 403.66 21.4168 405.327 20.7501L409.077 19.2501C410.41 18.7168 411.693 18.2834 412.927 17.9501C413.093 17.8501 413.277 17.8168 413.477 17.8501C413.677 17.8834 413.827 17.9834 413.927 18.1501C414.027 18.3168 414.077 18.4834 414.077 18.6501C414.077 18.8168 413.993 18.9834 413.827 19.1501C413.293 19.6834 412.877 20.0668 412.577 20.3001C412.277 20.5334 411.86 20.9168 411.327 21.4501C410.927 21.8501 410.577 22.3001 410.277 22.8001C410.01 23.2668 409.843 23.8168 409.777 24.4501V24.5501C411.177 24.1168 412.427 23.7834 413.527 23.5501L417.277 22.8001C419.177 22.4334 421.06 22.0334 422.927 21.6001C424.893 21.1668 427.11 20.5168 429.577 19.6501L431.827 18.9001C432.327 18.7334 433.11 18.4501 434.177 18.0501C434.343 17.9834 434.527 18.0001 434.727 18.1001C434.96 18.2001 435.093 18.3168 435.127 18.4501ZM405.177 29.6501C405.843 29.4834 406.393 29.1501 406.827 28.6501C407.293 28.1501 407.66 27.6001 407.927 27.0001C407.193 27.4668 406.66 27.8334 406.327 28.1001C405.793 28.5334 405.41 29.0501 405.177 29.6501Z" fill="#DDD4C8"/>
<path d="M460.238 18.5501L459.839 18.6001C459.905 18.7668 459.888 18.9334 459.788 19.1001C459.688 19.3001 459.572 19.4168 459.438 19.4501C459.372 19.5168 458.922 19.7001 458.089 20.0001C457.222 20.3001 456.222 20.6501 455.089 21.0501C454.322 21.3168 453.205 21.7168 451.738 22.2501C450.638 22.6501 449.839 22.9501 449.339 23.1501C447.705 23.6168 446.688 23.9001 446.288 24.0001C445.055 24.3001 444.022 24.5334 443.188 24.7001C442.688 24.8001 441.905 24.9501 440.839 25.1501C440.138 25.2834 439.338 25.3501 438.438 25.3501C437.638 25.3501 436.838 25.2501 436.038 25.0501C435.205 24.8501 434.455 24.4834 433.788 23.9501C433.288 23.5501 432.988 23.0668 432.888 22.5001C432.788 22.0001 432.822 21.4001 432.988 20.7001C433.122 20.1334 433.355 19.5168 433.688 18.8501C433.922 18.3834 434.205 17.8834 434.538 17.3501C435.205 16.2834 436.038 15.3501 437.038 14.5501C438.038 13.7501 439.122 13.1501 440.288 12.7501C440.788 12.5834 441.338 12.5334 441.938 12.6001C442.572 12.6668 443.005 12.9668 443.238 13.5001C443.372 14.0001 443.322 14.4668 443.089 14.9001C442.855 15.3334 442.555 15.7001 442.188 16.0001C441.188 16.8668 440.038 17.5834 438.738 18.1501C437.638 18.6501 436.388 19.1168 434.988 19.5501C434.922 19.7168 434.822 19.9834 434.688 20.3501C434.555 20.7168 434.472 20.9501 434.438 21.0501C434.238 21.5834 434.322 22.0834 434.688 22.5501C435.322 23.1501 436.105 23.5001 437.038 23.6001C438.038 23.7001 438.905 23.7334 439.638 23.7001C441.938 23.5001 444.288 23.0668 446.688 22.4001C449.055 21.7334 451.338 20.9834 453.538 20.1501C454.338 19.8501 454.838 19.6668 455.038 19.6001L456.839 19.0001C457.039 18.9334 457.322 18.8334 457.688 18.7001C458.055 18.5668 458.305 18.4834 458.438 18.4501C458.938 18.2834 459.222 18.1834 459.288 18.1501C459.455 18.0834 459.638 18.1001 459.839 18.2001C460.072 18.3001 460.205 18.4168 460.238 18.5501ZM441.788 13.8501C440.522 13.9168 439.372 14.3168 438.339 15.0501C437.305 15.7834 436.405 16.6334 435.638 17.6001C436.738 17.2334 437.872 16.7501 439.038 16.1501C440.138 15.6168 441.055 14.8501 441.788 13.8501Z" fill="#DDD4C8"/>
<path d="M484.585 18.5501V18.8501C484.652 19.0168 484.635 19.1834 484.535 19.3501C484.435 19.5501 484.318 19.6668 484.185 19.7001C484.118 19.7334 484.018 19.7668 483.885 19.8001C483.785 19.8334 483.618 19.9001 483.385 20.0001C483.152 20.0668 482.952 20.1334 482.785 20.2001C482.085 20.4668 481.235 20.7668 480.235 21.1001C479.235 21.4334 478.135 21.7834 476.935 22.1501L473.335 23.2001C472.135 23.5334 470.985 23.8334 469.885 24.1001C468.918 24.3334 467.952 24.5001 466.985 24.6001C466.585 24.6668 465.635 24.7834 464.135 24.9501C463.602 25.0168 462.802 25.0834 461.735 25.1501C460.868 25.1834 460.068 25.1334 459.335 25.0001C458.602 24.8668 457.952 24.5668 457.385 24.1001C457.018 23.7668 456.818 23.3168 456.785 22.7501C456.752 22.1834 456.852 21.6834 457.085 21.2501C457.652 19.9834 458.435 18.9001 459.435 18.0001C460.468 17.0668 461.502 16.1834 462.535 15.3501C463.435 14.6834 464.468 14.0334 465.635 13.4001C466.702 12.8001 467.885 12.5334 469.185 12.6001C469.618 12.6334 469.985 12.7834 470.285 13.0501C470.552 13.2834 470.768 13.5834 470.935 13.9501C471.102 14.3168 471.152 14.7001 471.085 15.1001C471.052 15.5001 470.902 15.8501 470.635 16.1501C470.268 16.2501 470.018 16.2334 469.885 16.1001C469.718 15.9668 469.618 15.7668 469.585 15.5001C469.552 15.2668 469.552 15.0001 469.585 14.7001C469.652 14.3001 469.685 14.0501 469.685 13.9501C469.252 13.7834 468.802 13.7334 468.335 13.8001C467.902 13.8334 467.485 13.9334 467.085 14.1001C466.818 14.2001 466.418 14.3834 465.885 14.6501C465.452 14.8501 465.085 15.0668 464.785 15.3001C463.652 16.0334 462.652 16.8001 461.785 17.6001C460.818 18.4668 459.968 19.4167 459.235 20.4501C458.768 21.0834 458.535 21.5668 458.535 21.9001C458.535 22.2668 458.635 22.5501 458.835 22.7501C459.035 22.9501 459.252 23.1001 459.485 23.2001L459.835 23.3001C460.702 23.5001 461.785 23.5501 463.085 23.4501C464.385 23.3501 465.735 23.2001 467.135 23.0001C468.568 22.8001 469.902 22.5501 471.135 22.2501C472.568 21.9168 473.568 21.6501 474.135 21.4501C474.568 21.3168 475.035 21.1668 475.535 21.0001C476.068 20.8001 476.652 20.6001 477.285 20.4001C477.918 20.1668 478.418 19.9834 478.785 19.8501C480.385 19.2834 482.035 18.6834 483.735 18.0501C483.968 17.9834 484.152 18.0001 484.285 18.1001C484.452 18.2001 484.552 18.3501 484.585 18.5501Z" fill="#DDD4C8"/>
<path d="M523.25 18.5001L523.15 18.6001C523.317 19.0668 523.167 19.3668 522.7 19.5001L521.45 19.9501C520.617 20.2501 519.517 20.6501 518.15 21.1501C516.45 21.7834 514.934 22.3334 513.6 22.8001C512.2 23.3001 510.484 23.8668 508.45 24.5001C507.784 24.7001 507.3 24.8501 507 24.9501L505.65 25.4001C504.084 25.9334 502.85 26.3168 501.95 26.5501C500.85 26.8501 499.9 27.0001 499.1 27.0001C498.1 27.0001 497.4 26.7001 497 26.1001C496.534 25.5334 496.5 24.8501 496.9 24.0501C497.3 23.2501 497.85 22.4501 498.55 21.6501C499.184 20.9501 499.917 20.2001 500.75 19.4001C501.517 18.7001 502.05 18.1668 502.35 17.8001C502.184 17.8001 501.7 17.9334 500.9 18.2001C500.034 18.5001 499.2 18.8001 498.4 19.1001C497.5 19.4334 496.65 19.7834 495.85 20.1501C495.05 20.5168 494.5 20.7668 494.2 20.9001C493.767 21.1334 493.15 21.4834 492.35 21.9501C491.75 22.3168 491.1 22.6168 490.4 22.8501C490.067 22.9834 489.75 22.9334 489.45 22.7001C489.15 22.4668 489.084 22.1668 489.25 21.8001C489.384 21.2334 489.617 20.6501 489.95 20.0501L490.85 18.3501C490.117 18.5501 489.434 18.8001 488.8 19.1001C488.367 19.3001 487.717 19.6334 486.85 20.1001C485.984 20.5668 485.334 20.9001 484.9 21.1001C484.367 21.3668 483.7 21.6334 482.9 21.9001C482.634 21.9001 482.434 21.8501 482.3 21.7501C482.167 21.6501 482.067 21.5001 482 21.3001C481.934 21.1001 481.934 20.9001 482 20.7001C482.067 20.4668 482.167 20.2834 482.3 20.1501C482.867 19.2501 483.5 18.3168 484.2 17.3501C484.867 16.4168 485.617 15.5834 486.45 14.8501C486.55 14.6834 486.684 14.6001 486.85 14.6001C487.017 14.6001 487.167 14.6501 487.3 14.7501C487.434 14.8501 487.55 14.9668 487.65 15.1001C487.75 15.2668 487.734 15.4334 487.6 15.6001L485.8 17.7001C485.3 18.3001 484.734 19.0501 484.1 19.9501C485.5 19.2168 486.534 18.6668 487.2 18.3001C488.2 17.7668 489.284 17.3668 490.45 17.1001C490.85 16.9668 491.25 16.9668 491.65 17.1001C492.017 17.2334 492.284 17.5334 492.45 18.0001C492.35 18.5668 492.15 19.1001 491.85 19.6001C491.45 20.2668 491.167 20.7834 491 21.1501C493.2 19.8834 495.384 18.8001 497.55 17.9001C497.617 17.8668 497.717 17.8334 497.85 17.8001C497.984 17.7334 498.134 17.6668 498.3 17.6001C498.5 17.5001 498.7 17.4168 498.9 17.3501C499.534 17.1168 500.217 16.9168 500.95 16.7501C501.65 16.5834 502.3 16.5334 502.9 16.6001C503.534 16.6668 503.867 16.9668 503.9 17.5001C503.934 17.7334 503.834 18.0501 503.6 18.4501C503.367 18.8501 503.034 19.2834 502.6 19.7501C502.334 20.0501 501.85 20.5501 501.15 21.2501L499.5 22.9001C499.034 23.4334 498.684 23.9334 498.45 24.4001C498.217 24.8668 498.167 25.1668 498.3 25.3001C498.5 25.5668 498.934 25.6668 499.6 25.6001C500.267 25.5334 501.017 25.3834 501.85 25.1501C502.417 24.9834 503.3 24.7001 504.5 24.3001C504.7 24.2334 505.5 23.9501 506.9 23.4501C509.267 22.6834 511.65 21.8834 514.05 21.0501C514.984 20.7168 516.384 20.2168 518.25 19.5501C520.15 18.8834 521.5 18.4001 522.3 18.1001C522.467 18.0334 522.65 18.0501 522.85 18.1501C523.084 18.2501 523.217 18.3668 523.25 18.5001Z" fill="#DDD4C8"/>
<path d="M552.522 18.5501L552.372 18.7001C552.439 18.8668 552.422 19.0334 552.322 19.2001C552.222 19.4001 552.105 19.5168 551.972 19.5501C551.939 19.5501 551.672 19.6501 551.172 19.8501C551.005 19.9168 550.689 20.0501 550.222 20.2501C549.755 20.4168 549.372 20.5501 549.072 20.6501C548.472 20.8834 547.422 21.2501 545.922 21.7501C545.522 21.8834 544.905 22.0834 544.072 22.3501C543.239 22.6168 542.589 22.8334 542.122 23.0001L540.172 23.6001C538.639 23.9668 537.372 24.2168 536.372 24.3501C535.439 24.4834 534.489 24.5501 533.522 24.5501H533.072C532.872 24.5501 532.722 24.5334 532.622 24.5001C532.389 24.9668 532.039 25.4668 531.572 26.0001C531.105 26.5668 530.589 27.0668 530.022 27.5001C529.389 27.9668 528.789 28.3001 528.222 28.5001C527.655 28.7001 527.089 28.6668 526.522 28.4001C526.189 28.1334 526.005 27.8668 525.972 27.6001C525.905 27.2668 525.922 26.9501 526.022 26.6501C526.122 26.3168 526.272 26.0001 526.472 25.7001C526.739 25.3001 526.939 25.0168 527.072 24.8501C527.405 24.4834 527.805 24.1668 528.272 23.9001C528.739 23.6334 529.189 23.4334 529.622 23.3001C530.022 23.2001 530.539 23.0834 531.172 22.9501C531.839 22.7834 532.322 22.4001 532.622 21.8001C532.722 21.6001 532.872 21.3168 533.072 20.9501C533.272 20.5834 533.405 20.3168 533.472 20.1501C531.305 20.4168 529.389 21.1834 527.722 22.4501C526.089 23.6834 524.622 25.1668 523.322 26.9001C522.555 27.8334 521.855 28.8334 521.222 29.9001C520.789 30.6001 520.172 31.6501 519.372 33.0501C519.172 33.3168 519.022 33.5001 518.922 33.6001C518.722 33.8001 518.572 33.9334 518.472 34.0001C518.372 34.0668 518.189 34.1334 517.922 34.2001C517.555 34.2668 517.355 34.1168 517.322 33.7501C517.289 33.5168 517.272 33.2668 517.272 33.0001C517.739 29.4668 518.639 26.0168 519.972 22.6501C521.305 19.3168 523.189 16.3168 525.622 13.6501C527.189 11.8501 528.922 10.0501 530.822 8.25008C532.622 6.55008 534.572 5.00008 536.672 3.60008C538.039 2.80009 539.339 2.11675 540.572 1.55008C541.972 0.950084 543.405 0.716751 544.872 0.850084C545.505 0.883417 546.072 1.13342 546.572 1.60008C547.072 2.03342 547.289 2.58342 547.222 3.25008C547.189 4.01675 546.939 4.73342 546.472 5.40009C546.005 6.06675 545.505 6.66675 544.972 7.20008C544.072 8.06675 543.039 8.86675 541.872 9.60009C540.405 10.5334 539.305 11.2168 538.572 11.6501C536.272 12.9834 533.672 14.4001 530.772 15.9001C528.172 17.2334 525.522 18.5334 522.822 19.8001C521.989 21.5001 521.239 23.2501 520.572 25.0501C519.905 26.8501 519.405 28.7001 519.072 30.6001C519.772 29.4668 520.522 28.3168 521.322 27.1501C522.222 25.8834 523.089 24.8001 523.922 23.9001C524.822 22.9334 525.855 22.0334 527.022 21.2001C528.155 20.3668 529.389 19.7334 530.722 19.3001C531.322 19.1001 531.989 18.9501 532.722 18.8501C533.455 18.7501 534.072 18.9668 534.572 19.5001C534.839 20.1668 534.822 20.7834 534.522 21.3501C534.322 21.7501 534.022 22.3168 533.622 23.0501C534.589 23.0501 535.689 22.9501 536.922 22.7501C538.155 22.5501 539.805 22.1501 541.872 21.5501C543.372 20.9834 544.922 20.4334 546.522 19.9001C548.122 19.3668 549.822 18.7668 551.622 18.1001C552.055 17.9668 552.355 18.1168 552.522 18.5501ZM532.472 8.80009L532.322 8.70008C530.889 10.0001 529.422 11.4501 527.922 13.0501C526.589 14.4501 525.272 16.0501 523.972 17.8501C525.005 17.3168 526.589 16.5168 528.722 15.4501C530.855 14.3834 532.439 13.5668 533.472 13.0001C535.539 11.8668 537.072 11.0001 538.072 10.4001C539.805 9.36675 541.289 8.40008 542.522 7.50009C542.755 7.33342 543.105 7.05008 543.572 6.65008C543.939 6.35008 544.272 6.01675 544.572 5.65009C544.839 5.31675 545.089 4.93342 545.322 4.50009C545.522 4.10008 545.622 3.66675 545.622 3.20008C545.455 2.93342 545.255 2.75008 545.022 2.65009C544.789 2.55008 544.539 2.50008 544.272 2.50008C543.939 2.50008 543.689 2.51675 543.522 2.55008L542.772 2.70008C540.739 3.16675 538.905 3.96675 537.272 5.10008C535.739 6.16675 534.139 7.40008 532.472 8.80009ZM526.972 27.2001L526.872 27.3001C526.939 27.4668 527.039 27.5501 527.172 27.5501C527.305 27.5501 527.472 27.5001 527.672 27.4001C527.839 27.3334 528.055 27.1834 528.322 26.9501C528.655 26.6834 528.905 26.4668 529.072 26.3001C529.605 25.7668 530.205 25.1168 530.872 24.3501C530.072 24.5168 529.372 24.7168 528.772 24.9501C528.272 25.1834 527.805 25.4834 527.372 25.8501C526.972 26.2168 526.839 26.6668 526.972 27.2001Z" fill="#DDD4C8"/>
<path d="M582.421 18.5501L582.321 18.4501C582.355 18.4834 582.371 18.5834 582.371 18.7501C582.305 19.0168 582.155 19.2001 581.921 19.3001C581.821 19.3001 581.471 19.4168 580.871 19.6501C580.205 19.8834 579.355 20.1834 578.321 20.5501C577.488 20.8501 576.388 21.2501 575.021 21.7501C573.955 22.1501 572.555 22.6168 570.821 23.1501C569.555 23.5501 568.155 23.9168 566.621 24.2501C565.255 24.5501 564.105 24.7001 563.171 24.7001C562.638 24.7001 562.171 24.6168 561.771 24.4501C561.238 24.1834 560.955 23.7834 560.921 23.2501C560.888 22.8501 560.988 22.3834 561.221 21.8501C561.488 21.2501 561.805 20.7001 562.171 20.2001L563.071 19.1001C563.238 18.9001 563.521 18.6001 563.921 18.2001L564.671 17.4501C562.705 17.9501 560.588 18.5834 558.321 19.3501C556.421 19.9834 554.355 20.6001 552.121 21.2001C551.888 21.3001 551.621 21.3501 551.321 21.3501C551.021 21.3501 550.755 21.3001 550.521 21.2001C550.288 21.1001 550.088 20.9501 549.921 20.7501C549.788 20.5501 549.771 20.3001 549.871 20.0001C550.271 19.1334 550.855 18.3834 551.621 17.7501L553.871 15.9501C554.738 15.3501 555.405 14.9001 555.871 14.6001C556.538 14.1668 557.255 13.8001 558.021 13.5001C558.788 13.2001 559.555 13.0001 560.321 12.9001C561.121 12.8001 561.921 12.8501 562.721 13.0501C563.355 13.1834 563.905 13.5168 564.371 14.0501C564.838 14.5501 565.038 15.1501 564.971 15.8501H565.671C565.838 15.8501 565.988 15.8668 566.121 15.9001C566.388 15.9668 566.571 16.0168 566.671 16.0501C566.805 16.0834 566.938 16.1668 567.071 16.3001C567.171 16.4001 567.188 16.5334 567.121 16.7001C566.621 17.3668 566.305 17.7668 566.171 17.9001C565.771 18.3668 565.505 18.6668 565.371 18.8001C565.205 18.9668 564.988 19.2168 564.721 19.5501C564.588 19.7168 564.355 19.9668 564.021 20.3001C563.488 21.0001 563.088 21.5668 562.821 22.0001C562.521 22.4668 562.405 22.8501 562.471 23.1501C562.471 23.1834 562.505 23.2334 562.571 23.3001C562.938 23.5001 563.721 23.5001 564.921 23.3001C565.988 23.1334 567.388 22.8001 569.121 22.3001C570.555 21.9001 572.238 21.3668 574.171 20.7001C575.471 20.2668 577.071 19.6834 578.971 18.9501C579.305 18.9167 579.621 18.8168 579.921 18.6501L580.721 18.3501L581.471 18.0501C581.638 17.9834 581.821 18.0001 582.021 18.1001C582.255 18.2001 582.388 18.3501 582.421 18.5501ZM563.471 16.3001L563.271 16.2501C563.471 15.6501 563.438 15.2001 563.171 14.9001C562.905 14.6001 562.555 14.4001 562.121 14.3001C561.621 14.2001 561.121 14.1668 560.621 14.2001C560.055 14.2668 559.605 14.3668 559.271 14.5001C557.771 15.0334 556.371 15.7834 555.071 16.7501C553.771 17.7168 552.571 18.7668 551.471 19.9001C553.405 19.4668 555.405 18.8834 557.471 18.1501C559.238 17.5168 561.238 16.9001 563.471 16.3001Z" fill="#DDD4C8"/>
</svg>
