<svg width="74" height="74" viewBox="0 0 74 74" fill="none" xmlns="http://www.w3.org/2000/svg">
<circle cx="37" cy="37" r="37" fill="#82654F"/>
<path d="M27.8369 39.8137C26.9969 40.9442 26.5 42.2454 26.5 43.6536V48.6663H23V44.8206C23 42.5923 24.9902 40.6724 27.8369 39.8137ZM37.001 38.1663C41.5043 38.1664 45.168 40.6285 45.168 43.6536V48.6663H28.834V43.6536C28.834 40.6284 32.4975 38.1663 37.001 38.1663ZM46.1631 39.8147C49.0098 40.6722 51.0012 42.5923 51 44.8206V48.6663H47.5V43.6545C47.5 42.2452 47.0043 40.9452 46.1631 39.8147ZM28.25 28.8333C28.7131 28.8333 29.153 28.9281 29.5684 29.0715C29.4692 29.5603 29.417 30.0654 29.417 30.5833C29.417 32.5001 30.1392 34.2482 31.3164 35.5852C30.5674 36.4449 29.4773 37.0002 28.25 37.0002C25.9983 37.0001 24.167 35.1679 24.167 32.9163C24.1672 30.6648 25.9984 28.8334 28.25 28.8333ZM45.751 28.8333C48.0026 28.8333 49.8338 30.6648 49.834 32.9163C49.834 35.1679 48.0016 37.0002 45.751 37.0002C44.5237 37.0002 43.4336 36.445 42.6846 35.5852C43.8618 34.2482 44.584 32.5001 44.584 30.5833C44.584 30.0665 44.5318 29.5603 44.4326 29.0715C44.848 28.928 45.2866 28.8333 45.751 28.8333ZM37.001 25.3333C39.8954 25.3335 42.251 27.6889 42.251 30.5833C42.251 33.4776 39.8954 35.833 37.001 35.8333C34.1064 35.8333 31.75 33.4778 31.75 30.5833C31.75 27.6888 34.1064 25.3333 37.001 25.3333Z" fill="#F0EBE4"/>
</svg>
