<svg width="74" height="74" viewBox="0 0 74 74" fill="none" xmlns="http://www.w3.org/2000/svg">
<circle cx="37" cy="37" r="37" fill="#82654F"/>
<path d="M26.5003 33.5003C27.144 33.5005 27.6661 34.0226 27.6663 34.6663V47.5003C27.6662 48.144 27.1441 48.6661 26.5003 48.6663C25.8564 48.6663 25.3335 48.1441 25.3333 47.5003V34.6663C25.3335 34.0225 25.8564 33.5003 26.5003 33.5003ZM34.7923 26.4417C35.5774 25.2797 37.0944 24.9856 38.2191 25.7776C39.2037 26.4718 39.5944 27.8012 39.1546 28.9632L37.4378 33.5003H46.3333C47.6225 33.5003 48.6663 34.5441 48.6663 35.8333V37.6712C48.6663 37.9977 48.5991 38.3199 48.4661 38.6184L44.6155 47.2806C44.2411 48.1227 43.4052 48.6661 42.4837 48.6663H34.6663C32.0894 48.6661 30.0005 46.5772 30.0003 44.0003V33.5003H30.0218L34.7923 26.4417Z" fill="#F0EBE4"/>
</svg>
