<svg width="420" height="42" viewBox="0 0 420 42" fill="none" xmlns="http://www.w3.org/2000/svg">
<path d="M37.5611 17.55L37.4111 17.75C37.5778 18.2166 37.4611 18.5166 37.0611 18.65C35.0944 19.5166 33.3278 20.1666 31.7611 20.6C30.0278 21.1 28.5278 21.4333 27.2611 21.6C25.8611 21.8 24.5444 21.9 23.3111 21.9H19.6611C18.5944 21.9 17.0278 21.9333 14.9611 22C13.4278 22.0333 11.7611 22.3333 9.96111 22.9C9.32777 23.3333 8.41111 23.95 7.21111 24.75C6.47777 25.25 5.62777 25.7666 4.66111 26.3C3.89444 26.7333 3.16111 27.0833 2.46111 27.35C1.76111 27.6166 1.24444 27.75 0.911105 27.75H0.661105C0.627772 27.75 0.577772 27.7166 0.511105 27.65C0.177772 27.5166 0.0111051 27.2666 0.0111051 26.9C-0.0555616 26.2333 0.244438 25.65 0.911105 25.15C1.54444 24.65 2.29444 24.2 3.16111 23.8C4.06111 23.3666 4.94444 23.0333 5.81111 22.8C6.81111 22.5333 7.49444 22.3333 7.86111 22.2L8.76111 21.9C9.16111 21.7666 9.44444 21.6833 9.6111 21.65C11.4111 20.4166 13.2111 19.0166 15.0111 17.45C16.8111 15.8833 18.4611 14.2333 19.9611 12.5C18.9611 12.6666 18.0278 12.8666 17.1611 13.1C16.8944 13.1666 16.4778 13.2833 15.9111 13.45C15.3778 13.5833 14.9944 13.6833 14.7611 13.75C14.2944 13.8833 13.7111 14.0666 13.0111 14.3L12.3611 14.55C12.1278 14.6166 11.9444 14.6 11.8111 14.5C11.6778 14.4 11.5778 14.2666 11.5111 14.1C11.4444 13.9333 11.4611 13.75 11.5611 13.55C11.6611 13.35 11.7944 13.2166 11.9611 13.15C11.9944 13.1166 12.2944 13 12.8611 12.8C13.5611 12.5333 14.2944 12.3 15.0611 12.1C15.9611 11.8333 16.9611 11.5833 18.0611 11.35C19.2944 11.0833 20.3944 10.9 21.3611 10.8C23.6944 7.63329 24.6111 4.88329 24.1111 2.54995C24.0778 2.38329 23.9778 2.23329 23.8111 2.09995C23.6444 1.96662 23.3944 1.86662 23.0611 1.79995C22.2944 1.66662 21.1944 1.79995 19.7611 2.19995C18.4611 2.56662 17.0444 3.14995 15.5111 3.94995C14.1111 4.68328 12.7444 5.53328 11.4111 6.49995C10.0778 7.46662 9.12777 8.38328 8.56111 9.24995C8.26111 9.61662 7.92777 9.66662 7.56111 9.39995C7.22777 9.09995 7.16111 8.76662 7.36111 8.39995C7.79444 7.79995 8.39444 7.13328 9.16111 6.39995C9.82777 5.76662 10.6778 5.09995 11.7111 4.39995C12.6778 3.73328 13.6778 3.13328 14.7111 2.59995C15.8778 1.99995 16.9278 1.51662 17.8611 1.14995C18.9944 0.716619 19.9944 0.433285 20.8611 0.299951C21.7944 0.166618 22.5944 0.166618 23.2611 0.299951C24.3944 0.499951 25.0944 1.13328 25.3611 2.19995C25.6611 3.59995 25.5611 5.01662 25.0611 6.44995C24.5611 7.91662 23.8444 9.33328 22.9111 10.7H23.2111C23.6778 10.7666 23.9111 11.0166 23.9111 11.45C23.8444 11.9166 23.5944 12.15 23.1611 12.15C22.7611 12.1166 22.3444 12.1166 21.9111 12.15C20.7111 13.7166 19.4611 15.1 18.1611 16.3C16.8278 17.5666 15.5778 18.6666 14.4111 19.6C13.9778 20 13.4778 20.4 12.9111 20.8C14.1444 20.6 15.3278 20.5 16.4611 20.5H23.3611C24.5611 20.5 25.8444 20.4 27.2111 20.2C28.4444 20.0333 29.8944 19.7 31.5611 19.2C33.0944 18.7333 34.7944 18.0833 36.6611 17.25C37.1278 17.0166 37.4278 17.1166 37.5611 17.55ZM1.76111 26.2L1.71111 26.25C2.51111 25.9833 3.56111 25.4666 4.86111 24.7C4.22777 24.9333 3.61111 25.1833 3.01111 25.45C2.51111 25.6833 2.09444 25.9333 1.76111 26.2Z" fill="white"/>
<path d="M76.1134 17.5L76.0135 17.6C76.1801 18.0666 76.0301 18.3666 75.5635 18.5L74.3135 18.95C73.4801 19.25 72.3801 19.65 71.0135 20.15C69.3135 20.7833 67.7968 21.3333 66.4634 21.8C65.0634 22.3 63.3468 22.8666 61.3134 23.5C60.6468 23.7 60.1634 23.85 59.8634 23.95L58.5135 24.4C56.9468 24.9333 55.7135 25.3166 54.8134 25.55C53.7135 25.85 52.7635 26 51.9635 26C50.9635 26 50.2635 25.7 49.8634 25.1C49.3968 24.5333 49.3634 23.85 49.7634 23.05C50.1634 22.25 50.7134 21.45 51.4134 20.65C52.0468 19.95 52.7801 19.2 53.6134 18.4C54.3801 17.7 54.9135 17.1666 55.2135 16.8C55.0468 16.8 54.5634 16.9333 53.7635 17.2C52.8968 17.5 52.0634 17.8 51.2635 18.1C50.3635 18.4333 49.5135 18.7833 48.7135 19.15C47.9135 19.5166 47.3634 19.7666 47.0634 19.9C46.6301 20.1333 46.0134 20.4833 45.2134 20.95C44.6134 21.3166 43.9635 21.6166 43.2635 21.85C42.9301 21.9833 42.6134 21.9333 42.3134 21.7C42.0135 21.4666 41.9468 21.1666 42.1134 20.8C42.2468 20.2333 42.4801 19.65 42.8134 19.05L43.7134 17.35C42.9801 17.55 42.2968 17.8 41.6634 18.1C41.2301 18.3 40.5801 18.6333 39.7134 19.1C38.8468 19.5666 38.1968 19.9 37.7635 20.1C37.2301 20.3666 36.5634 20.6333 35.7635 20.9C35.4968 20.9 35.2968 20.85 35.1634 20.75C35.0301 20.65 34.9301 20.5 34.8634 20.3C34.7968 20.1 34.7968 19.9 34.8634 19.7C34.9301 19.4666 35.0301 19.2833 35.1634 19.15C35.7301 18.25 36.3634 17.3166 37.0634 16.35C37.7301 15.4166 38.4801 14.5833 39.3134 13.85C39.4134 13.6833 39.5468 13.6 39.7134 13.6C39.8801 13.6 40.0301 13.65 40.1634 13.75C40.2968 13.85 40.4135 13.9666 40.5135 14.1C40.6134 14.2666 40.5968 14.4333 40.4634 14.6L38.6634 16.7C38.1634 17.3 37.5968 18.05 36.9634 18.95C38.3634 18.2166 39.3968 17.6666 40.0634 17.3C41.0634 16.7666 42.1468 16.3666 43.3134 16.1C43.7135 15.9666 44.1134 15.9666 44.5135 16.1C44.8801 16.2333 45.1468 16.5333 45.3134 17C45.2135 17.5666 45.0134 18.1 44.7134 18.6C44.3134 19.2666 44.0301 19.7833 43.8634 20.15C46.0634 18.8833 48.2468 17.8 50.4134 16.9C50.4801 16.8666 50.5801 16.8333 50.7135 16.8C50.8468 16.7333 50.9968 16.6666 51.1634 16.6C51.3634 16.5 51.5634 16.4166 51.7635 16.35C52.3968 16.1166 53.0801 15.9166 53.8134 15.75C54.5135 15.5833 55.1635 15.5333 55.7635 15.6C56.3968 15.6666 56.7301 15.9666 56.7635 16.5C56.7968 16.7333 56.6968 17.05 56.4635 17.45C56.2301 17.85 55.8968 18.2833 55.4635 18.75C55.1968 19.05 54.7135 19.55 54.0135 20.25L52.3634 21.9C51.8968 22.4333 51.5468 22.9333 51.3134 23.4C51.0801 23.8666 51.0301 24.1666 51.1634 24.3C51.3634 24.5666 51.7968 24.6666 52.4635 24.6C53.1301 24.5333 53.8801 24.3833 54.7134 24.15C55.2801 23.9833 56.1634 23.7 57.3634 23.3C57.5634 23.2333 58.3634 22.95 59.7635 22.45C62.1301 21.6833 64.5135 20.8833 66.9135 20.05C67.8468 19.7166 69.2468 19.2166 71.1134 18.55C73.0135 17.8833 74.3634 17.4 75.1635 17.1C75.3301 17.0333 75.5134 17.05 75.7134 17.15C75.9468 17.25 76.0801 17.3666 76.1134 17.5Z" fill="white"/>
<path d="M106.085 17.55L105.985 17.45C106.019 17.4833 106.035 17.5833 106.035 17.75C105.969 18.0166 105.819 18.2 105.585 18.3C105.485 18.3 105.135 18.4166 104.535 18.65C103.869 18.8833 103.019 19.1833 101.985 19.55C101.152 19.85 100.052 20.25 98.6853 20.75C97.6187 21.15 96.2187 21.6166 94.4853 22.15C93.2187 22.55 91.8187 22.9166 90.2853 23.25C88.9187 23.55 87.7687 23.7 86.8353 23.7C86.302 23.7 85.8353 23.6166 85.4353 23.45C84.902 23.1833 84.6187 22.7833 84.5853 22.25C84.552 21.85 84.652 21.3833 84.8853 20.85C85.152 20.25 85.4687 19.7 85.8353 19.2L86.7353 18.1C86.902 17.9 87.1853 17.6 87.5853 17.2L88.3353 16.45C86.3687 16.95 84.252 17.5833 81.9853 18.35C80.0853 18.9833 78.0187 19.6 75.7853 20.2C75.552 20.3 75.2853 20.35 74.9853 20.35C74.6853 20.35 74.4187 20.3 74.1853 20.2C73.952 20.1 73.752 19.95 73.5853 19.75C73.452 19.55 73.4353 19.3 73.5353 19C73.9353 18.1333 74.5187 17.3833 75.2853 16.75L77.5353 14.95C78.402 14.35 79.0687 13.9 79.5353 13.6C80.202 13.1666 80.9187 12.8 81.6853 12.5C82.452 12.2 83.2187 12 83.9853 11.9C84.7853 11.8 85.5853 11.85 86.3853 12.05C87.0187 12.1833 87.5687 12.5166 88.0353 13.05C88.502 13.55 88.702 14.15 88.6353 14.85H89.3353C89.502 14.85 89.652 14.8666 89.7853 14.9C90.052 14.9666 90.2353 15.0166 90.3353 15.05C90.4687 15.0833 90.602 15.1666 90.7353 15.3C90.8353 15.4 90.852 15.5333 90.7853 15.7C90.2853 16.3666 89.9687 16.7666 89.8353 16.9C89.4353 17.3666 89.1687 17.6666 89.0353 17.8C88.8687 17.9666 88.652 18.2166 88.3853 18.55C88.252 18.7166 88.0187 18.9666 87.6853 19.3C87.152 20 86.752 20.5666 86.4853 21C86.1853 21.4666 86.0687 21.85 86.1353 22.15C86.1353 22.1833 86.1687 22.2333 86.2353 22.3C86.602 22.5 87.3853 22.5 88.5853 22.3C89.652 22.1333 91.052 21.8 92.7853 21.3C94.2187 20.9 95.902 20.3666 97.8353 19.7C99.1353 19.2666 100.735 18.6833 102.635 17.95C102.969 17.9166 103.285 17.8166 103.585 17.65L104.385 17.35L105.135 17.05C105.302 16.9833 105.485 17 105.685 17.1C105.919 17.2 106.052 17.35 106.085 17.55ZM87.1353 15.3L86.9353 15.25C87.1353 14.65 87.102 14.2 86.8353 13.9C86.5687 13.6 86.2187 13.4 85.7853 13.3C85.2853 13.2 84.7853 13.1666 84.2853 13.2C83.7187 13.2666 83.2687 13.3666 82.9353 13.5C81.4353 14.0333 80.0353 14.7833 78.7353 15.75C77.4353 16.7166 76.2353 17.7666 75.1353 18.9C77.0687 18.4666 79.0687 17.8833 81.1353 17.15C82.902 16.5166 84.902 15.9 87.1353 15.3Z" fill="white"/>
<path d="M137.317 17.55L137.217 18.2C137.384 18.6666 137.234 18.9666 136.767 19.1C136.7 19.1 136.25 19.25 135.417 19.55C133.717 20.15 132.617 20.5333 132.117 20.7C129.617 21.5333 128.084 22.05 127.517 22.25C125.617 22.9166 123.85 23.5166 122.217 24.05C122.05 24.1166 121.15 24.3833 119.517 24.85C119.017 25.0166 118.234 25.2333 117.167 25.5C116.9 25.5666 116.517 25.6666 116.017 25.8C115.55 25.9 115.234 25.9666 115.067 26C114.6 26.0666 113.9 26.1333 112.967 26.2C112.234 26.2333 111.584 26 111.017 25.5C110.684 25.1666 110.567 24.7666 110.667 24.3C110.734 23.9333 110.867 23.5333 111.067 23.1C111.6 22.0666 112.284 21.0833 113.117 20.15L115.517 17.45C111.684 18.2166 108.05 19.5166 104.617 21.35C104.45 21.45 104.25 21.55 104.017 21.65C103.784 21.75 103.567 21.7666 103.367 21.7C103.2 21.6666 103.034 21.5666 102.867 21.4C102.734 21.2666 102.684 21.05 102.717 20.75C103.484 19.1833 104.467 17.8 105.667 16.6C106.734 15.5333 107.967 14.3833 109.367 13.15C109.667 12.8833 109.967 12.8 110.267 12.9C110.6 13 110.784 13.25 110.817 13.65C110.184 14.2833 109.234 15.2 107.967 16.4C106.967 17.3666 106.067 18.3333 105.267 19.3C107.067 18.4333 108.834 17.6833 110.567 17.05C112.367 16.4166 114.217 15.9666 116.117 15.7C116.417 15.6333 116.65 15.65 116.817 15.75C117.017 15.85 117.167 16 117.267 16.2C117.367 16.4 117.417 16.6166 117.417 16.85C117.417 17.0833 117.317 17.3 117.117 17.5C116.517 18.2333 116.05 18.7666 115.717 19.1C115.384 19.4333 114.917 19.9666 114.317 20.7C113.884 21.2 113.467 21.7666 113.067 22.4C112.6 23.0666 112.267 23.6833 112.067 24.25C113.367 24.35 114.684 24.2166 116.017 23.85C117.75 23.3833 119.034 23.0333 119.867 22.8C120.334 22.6666 120.667 22.5666 120.867 22.5C121.434 22.3 121.767 22.1833 121.867 22.15C123.967 21.5166 126.217 20.7666 128.617 19.9C133.417 18.2 136 17.2833 136.367 17.15C136.534 17.0833 136.717 17.1 136.917 17.2C137.15 17.3 137.284 17.4166 137.317 17.55Z" fill="white"/>
<path d="M174.417 17.5L174.067 17.85C174.134 18.0166 174.117 18.1833 174.017 18.35C173.917 18.55 173.8 18.6666 173.667 18.7C173.634 18.7 173.184 18.85 172.317 19.15C171.45 19.45 170.35 19.85 169.017 20.35C167.684 20.85 166.134 21.4 164.367 22C162.6 22.6 160.8 23.2 158.967 23.8C157.1 24.4 155.084 25.0166 152.917 25.65C151.417 26.0833 149.967 26.45 148.567 26.75C147.167 27.05 146.184 27.2333 145.617 27.3C144.884 27.4 144.284 27.45 143.817 27.45C143.217 27.45 142.817 27.4 142.617 27.3C142.417 27.2 142.267 27.0666 142.167 26.9C141.8 26.5 141.65 26.05 141.717 25.55C141.784 25.0166 141.984 24.4833 142.317 23.95C142.717 23.35 143.167 22.7666 143.667 22.2C144.034 21.8 144.617 21.2 145.417 20.4V20.35L148.217 17.55L136.767 20.5C136.667 20.9333 136.6 21.2333 136.567 21.4C136.467 21.8 136.317 22.1833 136.117 22.55C135.85 23.0833 135.634 23.4833 135.467 23.75C135.234 24.1166 134.934 24.4333 134.567 24.7C134.234 24.9 133.967 25.0333 133.767 25.1C133.467 25.2 133.167 25.25 132.867 25.25C132.567 25.25 132.284 25.1666 132.017 25C131.75 24.8666 131.55 24.6166 131.417 24.25C131.284 23.8166 131.434 23.2166 131.867 22.45C132.267 21.7833 132.85 20.9833 133.617 20.05C134.25 19.2833 135.034 18.4333 135.967 17.5C136.6 16.8666 137.384 16.1166 138.317 15.25C138.484 15.0833 138.667 15 138.867 15C139.034 15 139.2 15.0833 139.367 15.25C139.5 15.3833 139.567 15.55 139.567 15.75C139.567 15.9166 139.484 16.0833 139.317 16.25C138.984 16.55 138.517 17 137.917 17.6L136.617 18.9L150.517 15.3C150.917 15.2666 151.184 15.3833 151.317 15.65C151.484 15.9166 151.434 16.2 151.167 16.5C150.167 17.5666 149.167 18.5666 148.167 19.5C146.867 20.7333 145.984 21.6 145.517 22.1C144.717 22.9666 144.134 23.6666 143.767 24.2C143.367 24.8 143.25 25.2833 143.417 25.65C143.717 25.85 144.65 25.8 146.217 25.5C147.817 25.2 149.9 24.7 152.467 24C154.867 23.3666 157.95 22.4333 161.717 21.2C165.05 20.1333 168.984 18.75 173.517 17.05C173.984 16.8833 174.284 17.0333 174.417 17.5ZM133.667 23.65H133.617C134.084 23.2833 134.434 22.7666 134.667 22.1C134.967 21.3 135.15 20.7166 135.217 20.35C134.484 21.1833 133.884 21.9333 133.417 22.6C132.95 23.2666 132.7 23.7166 132.667 23.95C133.067 24.0166 133.4 23.9166 133.667 23.65Z" fill="white"/>
<path d="M242.419 17.55L241.819 17.7C241.985 18.1666 241.835 18.4666 241.369 18.6C239.435 19.3666 237.519 20.0666 235.619 20.7C233.952 21.2333 231.852 21.85 229.319 22.55C226.719 23.2833 224.769 23.85 223.469 24.25C221.435 24.8833 219.569 25.55 217.869 26.25L216.569 28.3C215.569 29.8666 214.385 31.6166 213.019 33.55C211.785 35.3166 210.419 36.9166 208.919 38.35C208.552 38.7166 208.052 39.15 207.419 39.65C206.719 40.2166 205.969 40.6666 205.169 41C204.335 41.3666 203.585 41.5 202.919 41.4C202.185 41.3 201.702 40.75 201.469 39.75C201.369 39.3833 201.352 38.9833 201.419 38.55C201.452 38.15 201.552 37.75 201.719 37.35C201.885 36.9166 202.085 36.5333 202.319 36.2L203.069 35.15C203.902 33.9833 204.885 32.8833 206.019 31.85C207.185 30.7833 208.335 29.85 209.469 29.05C210.769 28.1166 212.019 27.3333 213.219 26.7C214.952 25.7666 216.252 25.0833 217.119 24.65C217.485 24.15 218.002 23.4 218.669 22.4C219.169 21.6666 219.569 20.8333 219.869 19.9C219.935 19.4333 219.769 19.15 219.369 19.05C219.002 18.95 218.635 18.9333 218.269 19C217.202 19.1 216.235 19.3666 215.369 19.8C214.169 20.4 213.285 20.8666 212.719 21.2C212.485 21.1333 212.335 21.0333 212.269 20.9C212.202 20.7666 212.202 20.6166 212.269 20.45C212.302 20.35 212.385 20.2 212.519 20C212.619 19.8333 212.752 19.7 212.919 19.6C213.685 18.8333 214.469 18.1 215.269 17.4L217.669 15.3C216.002 15.9333 214.835 16.3833 214.169 16.65C213.369 16.95 212.602 17.25 211.869 17.55C211.702 17.6166 211.519 17.7 211.319 17.8C211.152 17.8666 210.985 17.9333 210.819 18C210.652 18.0666 210.535 18.1166 210.469 18.15C210.002 18.35 209.735 18.4666 209.669 18.5C209.202 18.6666 208.902 18.55 208.769 18.15C208.702 17.9833 208.702 17.8 208.769 17.6C208.835 17.3666 208.935 17.2333 209.069 17.2C209.569 17 209.852 16.8833 209.919 16.85C210.119 16.75 210.452 16.6 210.919 16.4C212.685 15.6666 213.902 15.1666 214.569 14.9C215.302 14.6 215.985 14.3166 216.619 14.05C217.119 13.8166 217.452 13.6833 217.619 13.65C217.885 13.5833 218.069 13.5333 218.169 13.5C219.302 13.1666 220.052 13.1666 220.419 13.5C220.585 13.7 220.585 13.95 220.419 14.25C220.252 14.55 220.052 14.85 219.819 15.15C219.485 15.55 219.219 15.8333 219.019 16C218.819 16.1666 218.602 16.3666 218.369 16.6C218.335 16.6 218.319 16.6166 218.319 16.65L217.569 17.25C217.235 17.5166 216.985 17.7333 216.819 17.9C217.185 17.8333 217.585 17.7833 218.019 17.75C218.619 17.6833 219.052 17.65 219.319 17.65C219.685 17.65 220.069 17.7333 220.469 17.9C220.835 18.0666 221.135 18.3333 221.369 18.7C221.635 19.3666 221.669 20.0166 221.469 20.65C221.302 21.2166 221.069 21.7666 220.769 22.3L220.319 23.05C220.152 23.2833 219.952 23.5833 219.719 23.95C221.585 23.2833 223.185 22.75 224.519 22.35C226.719 21.6833 228.369 21.2 229.469 20.9C231.569 20.3333 233.552 19.7333 235.419 19.1C237.385 18.4333 239.385 17.7833 241.419 17.15C241.652 17.0833 241.852 17.1 242.019 17.2C242.252 17.3 242.385 17.4166 242.419 17.55ZM206.219 38.85L206.119 38.7C208.119 37.1 209.852 35.2666 211.319 33.2C212.852 31 214.285 28.9166 215.619 26.95C213.285 28.1166 211.102 29.4666 209.069 31C207.002 32.5666 205.252 34.3833 203.819 36.45C203.452 37.0833 203.185 37.7333 203.019 38.4C202.852 39 202.852 39.45 203.019 39.75C203.185 40.05 203.519 40.15 204.019 40.05C204.552 39.95 205.285 39.55 206.219 38.85Z" fill="white"/>
<path d="M272.296 17.55L272.196 17.45C272.23 17.4833 272.246 17.5833 272.246 17.75C272.18 18.0166 272.03 18.2 271.796 18.3C271.696 18.3 271.346 18.4166 270.746 18.65C270.08 18.8833 269.23 19.1833 268.196 19.55C267.363 19.85 266.263 20.25 264.896 20.75C263.83 21.15 262.43 21.6166 260.696 22.15C259.43 22.55 258.03 22.9166 256.496 23.25C255.13 23.55 253.98 23.7 253.046 23.7C252.513 23.7 252.046 23.6166 251.646 23.45C251.113 23.1833 250.83 22.7833 250.796 22.25C250.763 21.85 250.863 21.3833 251.096 20.85C251.363 20.25 251.68 19.7 252.046 19.2L252.946 18.1C253.113 17.9 253.396 17.6 253.796 17.2L254.546 16.45C252.58 16.95 250.463 17.5833 248.196 18.35C246.296 18.9833 244.23 19.6 241.996 20.2C241.763 20.3 241.496 20.35 241.196 20.35C240.896 20.35 240.63 20.3 240.396 20.2C240.163 20.1 239.963 19.95 239.796 19.75C239.663 19.55 239.646 19.3 239.746 19C240.146 18.1333 240.73 17.3833 241.496 16.75L243.746 14.95C244.613 14.35 245.28 13.9 245.746 13.6C246.413 13.1666 247.13 12.8 247.896 12.5C248.663 12.2 249.43 12 250.196 11.9C250.996 11.8 251.796 11.85 252.596 12.05C253.23 12.1833 253.78 12.5166 254.246 13.05C254.713 13.55 254.913 14.15 254.846 14.85H255.546C255.713 14.85 255.863 14.8666 255.996 14.9C256.263 14.9666 256.446 15.0166 256.546 15.05C256.68 15.0833 256.813 15.1666 256.946 15.3C257.046 15.4 257.063 15.5333 256.996 15.7C256.496 16.3666 256.18 16.7666 256.046 16.9C255.646 17.3666 255.38 17.6666 255.246 17.8C255.08 17.9666 254.863 18.2166 254.596 18.55C254.463 18.7166 254.23 18.9666 253.896 19.3C253.363 20 252.963 20.5666 252.696 21C252.396 21.4666 252.28 21.85 252.346 22.15C252.346 22.1833 252.38 22.2333 252.446 22.3C252.813 22.5 253.596 22.5 254.796 22.3C255.863 22.1333 257.263 21.8 258.996 21.3C260.43 20.9 262.113 20.3666 264.046 19.7C265.346 19.2666 266.946 18.6833 268.846 17.95C269.18 17.9166 269.496 17.8166 269.796 17.65L270.596 17.35L271.346 17.05C271.513 16.9833 271.696 17 271.896 17.1C272.13 17.2 272.263 17.35 272.296 17.55ZM253.346 15.3L253.146 15.25C253.346 14.65 253.313 14.2 253.046 13.9C252.78 13.6 252.43 13.4 251.996 13.3C251.496 13.2 250.996 13.1666 250.496 13.2C249.93 13.2666 249.48 13.3666 249.146 13.5C247.646 14.0333 246.246 14.7833 244.946 15.75C243.646 16.7166 242.446 17.7666 241.346 18.9C243.28 18.4666 245.28 17.8833 247.346 17.15C249.113 16.5166 251.113 15.9 253.346 15.3Z" fill="white"/>
<path d="M303.528 17.55L303.428 18.2C303.595 18.6666 303.445 18.9666 302.978 19.1C302.911 19.1 302.461 19.25 301.628 19.55C299.928 20.15 298.828 20.5333 298.328 20.7C295.828 21.5333 294.295 22.05 293.728 22.25C291.828 22.9166 290.061 23.5166 288.428 24.05C288.261 24.1166 287.361 24.3833 285.728 24.85C285.228 25.0166 284.445 25.2333 283.378 25.5C283.111 25.5666 282.728 25.6666 282.228 25.8C281.761 25.9 281.445 25.9666 281.278 26C280.811 26.0666 280.111 26.1333 279.178 26.2C278.445 26.2333 277.795 26 277.228 25.5C276.895 25.1666 276.778 24.7666 276.878 24.3C276.945 23.9333 277.078 23.5333 277.278 23.1C277.811 22.0666 278.495 21.0833 279.328 20.15L281.728 17.45C277.895 18.2166 274.261 19.5166 270.828 21.35C270.661 21.45 270.461 21.55 270.228 21.65C269.995 21.75 269.778 21.7666 269.578 21.7C269.411 21.6666 269.245 21.5666 269.078 21.4C268.945 21.2666 268.895 21.05 268.928 20.75C269.695 19.1833 270.678 17.8 271.878 16.6C272.945 15.5333 274.178 14.3833 275.578 13.15C275.878 12.8833 276.178 12.8 276.478 12.9C276.811 13 276.995 13.25 277.028 13.65C276.395 14.2833 275.445 15.2 274.178 16.4C273.178 17.3666 272.278 18.3333 271.478 19.3C273.278 18.4333 275.045 17.6833 276.778 17.05C278.578 16.4166 280.428 15.9666 282.328 15.7C282.628 15.6333 282.861 15.65 283.028 15.75C283.228 15.85 283.378 16 283.478 16.2C283.578 16.4 283.628 16.6166 283.628 16.85C283.628 17.0833 283.528 17.3 283.328 17.5C282.728 18.2333 282.261 18.7666 281.928 19.1C281.595 19.4333 281.128 19.9666 280.528 20.7C280.095 21.2 279.678 21.7666 279.278 22.4C278.811 23.0666 278.478 23.6833 278.278 24.25C279.578 24.35 280.895 24.2166 282.228 23.85C283.961 23.3833 285.245 23.0333 286.078 22.8C286.545 22.6666 286.878 22.5666 287.078 22.5C287.645 22.3 287.978 22.1833 288.078 22.15C290.178 21.5166 292.428 20.7666 294.828 19.9C299.628 18.2 302.211 17.2833 302.578 17.15C302.745 17.0833 302.928 17.1 303.128 17.2C303.361 17.3 303.495 17.4166 303.528 17.55Z" fill="white"/>
<path d="M288.378 39.15L287.878 39.45C287.278 39.3833 286.761 39.2166 286.328 38.95C285.861 38.65 285.511 38.2833 285.278 37.85C285.011 37.35 284.828 36.8666 284.728 36.4C284.628 35.9 284.628 35.4 284.728 34.9C285.028 33.7333 285.745 32.6333 286.878 31.6C288.045 30.5333 289.345 29.5833 290.778 28.75C292.345 27.8166 293.811 27.0833 295.178 26.55C296.678 25.95 297.928 25.5 298.928 25.2C300.561 24.7 302.045 24.35 303.378 24.15C304.245 24.0166 305.578 23.85 307.378 23.65L310.678 20.35C311.445 19.5833 312.395 18.6 313.528 17.4C312.261 17.8666 310.728 18.3833 308.928 18.95C307.661 19.35 306.611 19.65 305.778 19.85C305.045 20.0166 304.378 20.1333 303.778 20.2C303.278 20.2666 302.895 20.2666 302.628 20.2C302.361 20.1333 302.178 20.05 302.078 19.95L301.828 19.7C301.728 19.5666 301.678 19.3333 301.678 19C301.678 18.7 301.795 18.3333 302.028 17.9C302.261 17.5 302.661 16.9833 303.228 16.35C303.795 15.75 304.628 15.0666 305.728 14.3C305.895 14.1333 306.078 14.0833 306.278 14.15C306.478 14.1833 306.628 14.2833 306.728 14.45C306.995 14.8166 306.945 15.15 306.578 15.45C306.111 15.75 305.695 16.0666 305.328 16.4C304.795 16.8666 304.445 17.1833 304.278 17.35C304.045 17.5833 303.795 17.8666 303.528 18.2C303.361 18.4 303.245 18.6 303.178 18.8C303.478 18.8333 304.111 18.75 305.078 18.55C305.745 18.4166 306.795 18.1333 308.228 17.7C309.561 17.3 310.845 16.9 312.078 16.5C313.211 16.1 314.545 15.6166 316.078 15.05C316.411 14.9166 316.661 15 316.828 15.3C316.995 15.6333 316.978 15.9166 316.778 16.15L316.228 16.7C316.095 16.8333 315.861 17.0833 315.528 17.45C315.195 17.8166 314.945 18.0833 314.778 18.25C314.578 18.4833 314.228 18.8666 313.728 19.4C313.228 19.9 312.845 20.2833 312.578 20.55C311.445 21.75 310.528 22.7 309.828 23.4C311.228 23.2666 312.228 23.15 312.828 23.05C313.228 22.9833 313.861 22.8833 314.728 22.75C315.628 22.6166 316.178 22.5333 316.378 22.5C317.511 22.3333 318.945 22.05 320.678 21.65C322.245 21.2833 323.995 20.8333 325.928 20.3C328.795 19.5666 331.045 18.8666 332.678 18.2C334.311 17.5666 335.128 17.2166 335.128 17.15C335.361 17.0833 335.561 17.1 335.728 17.2C335.961 17.3 336.095 17.4166 336.128 17.55C336.295 18.0166 336.178 18.3166 335.778 18.45C335.745 18.4833 334.895 18.8333 333.228 19.5C331.561 20.1666 329.311 20.8666 326.478 21.6C324.245 22.2666 322.245 22.7666 320.478 23.1C318.478 23.5 316.895 23.7833 315.728 23.95C314.328 24.15 313.028 24.3 311.828 24.4C310.328 24.5333 309.161 24.65 308.328 24.75L306.928 26.05L305.578 27.4C297.345 35.1333 291.645 39.05 288.478 39.15H288.378ZM305.328 25.5C304.395 25.6 303.411 25.7666 302.378 26C300.978 26.3333 299.661 26.7 298.428 27.1C297.228 27.5 295.861 28.0333 294.328 28.7C292.995 29.3 291.745 29.95 290.578 30.65C289.478 31.3166 288.511 32.0666 287.678 32.9C286.878 33.7 286.378 34.5166 286.178 35.35C286.045 35.95 286.161 36.55 286.528 37.15C286.861 37.75 287.345 38.05 287.978 38.05C288.845 38.0166 289.945 37.6166 291.278 36.85C292.711 36.05 294.161 35.0833 295.628 33.95C297.328 32.65 298.961 31.3 300.528 29.9C302.128 28.5 303.728 27.0333 305.328 25.5Z" fill="white"/>
<path d="M360.593 17.55V17.85C360.659 18.0166 360.643 18.1833 360.543 18.35C360.443 18.55 360.326 18.6666 360.193 18.7C360.126 18.7333 360.026 18.7666 359.893 18.8C359.793 18.8333 359.626 18.9 359.393 19C359.159 19.0666 358.959 19.1333 358.793 19.2C358.093 19.4666 357.243 19.7666 356.243 20.1C355.243 20.4333 354.143 20.7833 352.943 21.15L349.343 22.2C348.143 22.5333 346.993 22.8333 345.893 23.1C344.926 23.3333 343.959 23.5 342.993 23.6C342.593 23.6666 341.643 23.7833 340.143 23.95C339.609 24.0166 338.809 24.0833 337.743 24.15C336.876 24.1833 336.076 24.1333 335.343 24C334.609 23.8666 333.959 23.5666 333.393 23.1C333.026 22.7666 332.826 22.3166 332.793 21.75C332.759 21.1833 332.859 20.6833 333.093 20.25C333.659 18.9833 334.443 17.9 335.443 17C336.476 16.0666 337.509 15.1833 338.543 14.35C339.443 13.6833 340.476 13.0333 341.643 12.4C342.709 11.8 343.893 11.5333 345.193 11.6C345.626 11.6333 345.993 11.7833 346.293 12.05C346.559 12.2833 346.776 12.5833 346.943 12.95C347.109 13.3166 347.159 13.7 347.093 14.1C347.059 14.5 346.909 14.85 346.643 15.15C346.276 15.25 346.026 15.2333 345.893 15.1C345.726 14.9666 345.626 14.7666 345.593 14.5C345.559 14.2666 345.559 14 345.593 13.7C345.659 13.3 345.693 13.05 345.693 12.95C345.259 12.7833 344.809 12.7333 344.343 12.8C343.909 12.8333 343.493 12.9333 343.093 13.1C342.826 13.2 342.426 13.3833 341.893 13.65C341.459 13.85 341.093 14.0666 340.793 14.3C339.659 15.0333 338.659 15.8 337.793 16.6C336.826 17.4666 335.976 18.4166 335.243 19.45C334.776 20.0833 334.543 20.5666 334.543 20.9C334.543 21.2666 334.643 21.55 334.843 21.75C335.043 21.95 335.259 22.1 335.493 22.2L335.843 22.3C336.709 22.5 337.793 22.55 339.093 22.45C340.393 22.35 341.743 22.2 343.143 22C344.576 21.8 345.909 21.55 347.143 21.25C348.576 20.9166 349.576 20.65 350.143 20.45C350.576 20.3166 351.043 20.1666 351.543 20C352.076 19.8 352.659 19.6 353.293 19.4C353.926 19.1666 354.426 18.9833 354.793 18.85C356.393 18.2833 358.043 17.6833 359.743 17.05C359.976 16.9833 360.159 17 360.293 17.1C360.459 17.2 360.559 17.35 360.593 17.55Z" fill="white"/>
<path d="M389.808 17.65L389.758 17.85C389.925 18.2833 389.775 18.5833 389.308 18.75C389.041 18.7833 388.741 18.8833 388.408 19.05C388.308 19.0833 388.141 19.15 387.908 19.25C387.708 19.3166 387.558 19.3666 387.458 19.4C386.925 19.6 386.508 19.75 386.208 19.85C384.275 20.4833 382.325 21.0833 380.358 21.65C378.058 22.2833 376.191 22.7666 374.758 23.1C372.625 23.5666 370.958 23.9 369.758 24.1C368.325 24.3333 366.975 24.45 365.708 24.45C364.608 24.45 363.875 24.3166 363.508 24.05C363.175 23.75 363.025 23.45 363.058 23.15C363.091 22.5833 363.341 22.0833 363.808 21.65C364.275 21.2166 364.775 20.7666 365.308 20.3C365.608 20.0333 365.958 19.7333 366.358 19.4C366.758 19.0666 366.958 18.8166 366.958 18.65C366.825 18.5166 366.558 18.45 366.158 18.45C365.725 18.45 365.258 18.5166 364.758 18.65C364.158 18.8166 363.575 19.0166 363.008 19.25C362.208 19.5833 361.625 19.8333 361.258 20L361.158 20.1C360.525 20.5 359.925 20.9 359.358 21.3C358.791 21.7 358.291 22.05 357.858 22.35C357.058 22.8833 356.558 23.2166 356.358 23.35C355.991 23.55 355.741 23.65 355.608 23.65C355.408 23.65 355.241 23.55 355.108 23.35C354.875 23.1166 354.808 22.8666 354.908 22.6C355.008 22.3333 355.108 22.1333 355.208 22C355.475 21.7 355.875 21.25 356.408 20.65C356.941 20.05 357.541 19.4 358.208 18.7C358.875 18 359.575 17.3 360.308 16.6C361.041 15.9 361.741 15.25 362.408 14.65C363.175 13.95 363.741 13.45 364.108 13.15C364.575 12.7833 364.891 12.5666 365.058 12.5C365.225 12.4333 365.375 12.45 365.508 12.55C365.641 12.65 365.741 12.8 365.808 13C365.941 13.3333 365.841 13.5833 365.508 13.75C365.408 13.7833 365.158 13.9833 364.758 14.35C364.625 14.4833 364.391 14.7 364.058 15C363.758 15.2666 363.525 15.4833 363.358 15.65C362.625 16.3166 362.025 16.8833 361.558 17.35L359.608 19.3C360.508 18.7 361.508 18.1 362.608 17.5C364.075 16.7 365.191 16.1166 365.958 15.75C367.125 15.1833 368.275 14.7333 369.408 14.4C370.541 14.0666 371.641 13.8666 372.708 13.8C372.908 13.8 373.091 13.85 373.258 13.95C373.425 14.05 373.508 14.2 373.508 14.4C373.541 14.6 373.491 14.7666 373.358 14.9C373.225 15.0333 373.058 15.1 372.858 15.1C371.958 15.1333 370.975 15.3166 369.908 15.65C368.975 15.9166 367.941 16.3 366.808 16.8C367.375 16.8333 367.841 17.0333 368.208 17.4C368.475 17.6666 368.608 18.0166 368.608 18.45C368.575 18.9166 368.325 19.3833 367.858 19.85C367.425 20.2833 366.925 20.7333 366.358 21.2C365.958 21.5333 365.641 21.8 365.408 22C365.075 22.2666 364.825 22.55 364.658 22.85C365.125 22.95 366.008 22.95 367.308 22.85C368.441 22.75 369.958 22.5166 371.858 22.15C373.991 21.7166 375.891 21.3 377.558 20.9C379.791 20.3666 381.791 19.8 383.558 19.2C384.025 19.0333 384.691 18.7833 385.558 18.45C386.558 18.0833 387.141 17.8666 387.308 17.8C387.841 17.5666 388.375 17.3666 388.908 17.2C389.375 17.0666 389.675 17.2166 389.808 17.65Z" fill="white"/>
<path d="M419.757 17.55L419.657 17.45C419.691 17.4833 419.707 17.5833 419.707 17.75C419.641 18.0166 419.491 18.2 419.257 18.3C419.157 18.3 418.807 18.4166 418.207 18.65C417.541 18.8833 416.691 19.1833 415.657 19.55C414.824 19.85 413.724 20.25 412.357 20.75C411.291 21.15 409.891 21.6166 408.157 22.15C406.891 22.55 405.491 22.9166 403.957 23.25C402.591 23.55 401.441 23.7 400.507 23.7C399.974 23.7 399.507 23.6166 399.107 23.45C398.574 23.1833 398.291 22.7833 398.257 22.25C398.224 21.85 398.324 21.3833 398.557 20.85C398.824 20.25 399.141 19.7 399.507 19.2L400.407 18.1C400.574 17.9 400.857 17.6 401.257 17.2L402.007 16.45C400.041 16.95 397.924 17.5833 395.657 18.35C393.757 18.9833 391.691 19.6 389.457 20.2C389.224 20.3 388.957 20.35 388.657 20.35C388.357 20.35 388.091 20.3 387.857 20.2C387.624 20.1 387.424 19.95 387.257 19.75C387.124 19.55 387.107 19.3 387.207 19C387.607 18.1333 388.191 17.3833 388.957 16.75L391.207 14.95C392.074 14.35 392.741 13.9 393.207 13.6C393.874 13.1666 394.591 12.8 395.357 12.5C396.124 12.2 396.891 12 397.657 11.9C398.457 11.8 399.257 11.85 400.057 12.05C400.691 12.1833 401.241 12.5166 401.707 13.05C402.174 13.55 402.374 14.15 402.307 14.85H403.007C403.174 14.85 403.324 14.8666 403.457 14.9C403.724 14.9666 403.907 15.0166 404.007 15.05C404.141 15.0833 404.274 15.1666 404.407 15.3C404.507 15.4 404.524 15.5333 404.457 15.7C403.957 16.3666 403.641 16.7666 403.507 16.9C403.107 17.3666 402.841 17.6666 402.707 17.8C402.541 17.9666 402.324 18.2166 402.057 18.55C401.924 18.7166 401.691 18.9666 401.357 19.3C400.824 20 400.424 20.5666 400.157 21C399.857 21.4666 399.741 21.85 399.807 22.15C399.807 22.1833 399.841 22.2333 399.907 22.3C400.274 22.5 401.057 22.5 402.257 22.3C403.324 22.1333 404.724 21.8 406.457 21.3C407.891 20.9 409.574 20.3666 411.507 19.7C412.807 19.2666 414.407 18.6833 416.307 17.95C416.641 17.9166 416.957 17.8166 417.257 17.65L418.057 17.35L418.807 17.05C418.974 16.9833 419.157 17 419.357 17.1C419.591 17.2 419.724 17.35 419.757 17.55ZM400.807 15.3L400.607 15.25C400.807 14.65 400.774 14.2 400.507 13.9C400.241 13.6 399.891 13.4 399.457 13.3C398.957 13.2 398.457 13.1666 397.957 13.2C397.391 13.2666 396.941 13.3666 396.607 13.5C395.107 14.0333 393.707 14.7833 392.407 15.75C391.107 16.7166 389.907 17.7666 388.807 18.9C390.741 18.4666 392.741 17.8833 394.807 17.15C396.574 16.5166 398.574 15.9 400.807 15.3Z" fill="white"/>
</svg>
