<svg width="1000" height="333" viewBox="0 0 1000 333" fill="none" xmlns="http://www.w3.org/2000/svg">
<path d="M110 45L1000 44.9999" stroke="#D9CABF"/>
<path d="M109 42.3333C107.527 42.3333 106.333 43.5272 106.333 45C106.333 46.4728 107.527 47.6667 109 47.6667C110.473 47.6667 111.667 46.4728 111.667 45C111.667 43.5272 110.473 42.3333 109 42.3333ZM109 0L108.5 2.18557e-08L108.5 45L109 45L109.5 45L109.5 -2.18557e-08L109 0Z" fill="#D9CABF"/>
<path d="M369 42.3333C367.527 42.3333 366.333 43.5272 366.333 45C366.333 46.4728 367.527 47.6667 369 47.6667C370.473 47.6667 371.667 46.4728 371.667 45C371.667 43.5272 370.473 42.3333 369 42.3333ZM369 0L368.5 2.18557e-08L368.5 45L369 45L369.5 45L369.5 -2.18557e-08L369 0Z" fill="#D9CABF"/>
<path d="M629 42.3333C627.527 42.3333 626.333 43.5272 626.333 45C626.333 46.4728 627.527 47.6667 629 47.6667C630.473 47.6667 631.667 46.4728 631.667 45C631.667 43.5272 630.473 42.3333 629 42.3333ZM629 0L628.5 2.18557e-08L628.5 45L629 45L629.5 45L629.5 -2.18557e-08L629 0Z" fill="#D9CABF"/>
<path d="M889 42.3333C887.527 42.3333 886.333 43.5272 886.333 45C886.333 46.4728 887.527 47.6667 889 47.6667C890.473 47.6667 891.667 46.4728 891.667 45C891.667 43.5272 890.473 42.3333 889 42.3333ZM889 0L888.5 2.18557e-08L888.5 45L889 45L889.5 45L889.5 -2.18557e-08L889 0Z" fill="#D9CABF"/>
<path d="M0 330L890 330" stroke="#D9CABF"/>
<path d="M109 327.333C107.527 327.333 106.333 328.527 106.333 330C106.333 331.473 107.527 332.667 109 332.667C110.473 332.667 111.667 331.473 111.667 330C111.667 328.527 110.473 327.333 109 327.333ZM109 285L108.5 285L108.5 330L109 330L109.5 330L109.5 285L109 285Z" fill="#D9CABF"/>
<path d="M369 327.333C367.527 327.333 366.333 328.527 366.333 330C366.333 331.473 367.527 332.667 369 332.667C370.473 332.667 371.667 331.473 371.667 330C371.667 328.527 370.473 327.333 369 327.333ZM369 285L368.5 285L368.5 330L369 330L369.5 330L369.5 285L369 285Z" fill="#D9CABF"/>
<path d="M629 327.333C627.527 327.333 626.333 328.527 626.333 330C626.333 331.473 627.527 332.667 629 332.667C630.473 332.667 631.667 331.473 631.667 330C631.667 328.527 630.473 327.333 629 327.333ZM629 285L628.5 285L628.5 330L629 330L629.5 330L629.5 285L629 285Z" fill="#D9CABF"/>
<path d="M889 327.333C887.527 327.333 886.333 328.527 886.333 330C886.333 331.473 887.527 332.667 889 332.667C890.473 332.667 891.667 331.473 891.667 330C891.667 328.527 890.473 327.333 889 327.333ZM889 285L888.5 285L888.5 330L889 330L889.5 330L889.5 285L889 285Z" fill="#D9CABF"/>
</svg>
